<?xml version="1.0" encoding="utf-8"?>
<!-- Generator: Adobe Illustrator 25.2.0, SVG Export Plug-In . SVG Version: 6.00 Build 0)  -->
<svg version="1.1" xmlns="http://www.w3.org/2000/svg" xmlns:xlink="http://www.w3.org/1999/xlink" x="0px" y="0px"
	 viewBox="0 0 750 500" style="enable-background:new 0 0 750 500;" xml:space="preserve">
<style type="text/css">
	.st0{display:none;}
	.st1{display:inline;fill:#FFFCF5;}
	.st2{fill:#FFF2DB;}
	.st3{clip-path:url(#SVGID_2_);}
	.st4{fill:#FFBC45;}
	.st5{fill:#FFE4B5;}
	.st6{fill:#31241C;}
	.st7{fill:#C97440;}
	.st8{fill:#AB5D2D;}
	.st9{fill:#1A191F;}
	.st10{fill:#1F0E03;}
	.st11{fill:#5F7E91;}
	.st12{fill:#49687A;}
	.st13{fill:none;stroke:#1F0E03;stroke-miterlimit:10;}
	.st14{fill:#F5CDB3;}
	.st15{font-family:'Raleway-Bold';}
	.st16{font-size:21.9325px;}
	.st17{font-size:22.7385px;}
	.st18{font-size:32.1078px;}
</style>
<g id="background" class="st0">
	<rect class="st1" width="750" height="500"/>
</g>
<g id="objects">
	<g>
		<path class="st2" d="M340.17,40.86c-108.88-6.83-147.5,46.87-202.84,102.42c-55.34,55.54-80.92,114.17-48.76,197.64
			c32.16,83.46,108.08,104.68,227.25,104.68c119.17,0,241.89,11.63,304.04-33.77c62.15-45.39,83.32-149.14-6.73-203.42
			C560.09,176.44,490.69,50.31,340.17,40.86z"/>
		<g>
			<defs>
				<path id="SVGID_1_" d="M340.17,40.86c-108.88-6.83-147.5,46.87-202.84,102.42c-55.34,55.54-80.92,114.17-48.76,197.64
					c32.16,83.46,108.08,104.68,227.25,104.68c119.17,0,241.89,11.63,304.04-33.77c62.15-45.39,83.32-149.14-6.73-203.42
					C560.09,176.44,490.69,50.31,340.17,40.86z"/>
			</defs>
			<clipPath id="SVGID_2_">
				<use xlink:href="#SVGID_1_"  style="overflow:visible;"/>
			</clipPath>
			<g class="st3">
				<g>
					<path class="st4" d="M165.69,428.06c-1.17-14.46-5.86-28.19-10.53-41.83c-4.62-13.47-9.82-27.69-10.06-42.09
						c-0.1-6.22,2.74-18.87,11.6-16.49c3,0.8,4.88,4.06,6.24,6.59c1.78,3.34,3.18,6.89,4.41,10.46c4.65,13.48,5.49,27.92,5.45,42.07
						c-0.03,10.64-0.77,21.33,0.1,31.96c0.05,0.63,1,0.65,1,0c-0.04-14.91,0.79-29.8,3.42-44.5c1.25-7.01,2.96-13.93,4.97-20.76
						c0.72-2.45,3-6.19,5.51-6.84c3.73-0.97,8.34,0.07,9.78,4.1c5.36,15.04,0.82,31.23-4.17,45.69c-2.11,6.1-4.2,12.2-6.91,18.06
						c-2.21,4.78-4.38,9.58-6.51,14.41c-0.62,1.41-1.24,2.83-1.83,4.25c-0.25,0.6,0.72,0.85,0.96,0.27
						c3.79-9.12,8.51-17.88,11.85-27.18c4.99-13.93,10.57-28.23,9.94-43.28c-0.14-3.33-0.71-6.63-1.55-9.84
						c-0.76-2.89-1.65-5.08-4.25-6.71c-1.83-1.14-4.17-1.23-6.24-0.97c-2.64,0.33-3.54,1.03-4.96,3.18
						c-0.54,0.82-1.81,2.04-2.07,2.92c-0.51,1.68-1,3.36-1.47,5.05c-1,3.57-1.88,7.17-2.68,10.8c-1.46,6.63-2.52,13.35-3.28,20.09
						c-1.18,10.38-1.52,20.84-1.5,31.28c0.33,0,0.67,0,1,0c-1-12.22,0.02-24.54-0.12-36.79c-0.16-13.85-1.69-27.77-6.66-40.79
						c-1.82-4.77-3.98-10.54-8.32-13.59c-4.49-3.15-9.48,0.31-11.93,4.23c-3.26,5.21-3.05,12.14-2.4,17.99
						c0.76,6.76,2.39,13.42,4.26,19.94c5.58,19.39,14.31,38,15.95,58.34C164.74,428.7,165.74,428.7,165.69,428.06L165.69,428.06z"/>
				</g>
				<g>
					<path class="st4" d="M165.6,427.9c-0.25-2.77-0.56-5.53-1.15-8.26c-0.12-0.55-1.02-0.43-0.98,0.13c0.17,2.78,0.56,5.53,1,8.28
						c0.1,0.64,1.06,0.37,0.96-0.27c-0.42-2.66-0.8-5.32-0.96-8.01c-0.33,0.04-0.65,0.09-0.98,0.13c0.57,2.64,0.86,5.31,1.11,7.99
						C164.66,428.54,165.66,428.54,165.6,427.9L165.6,427.9z"/>
				</g>
				<g>
					<path class="st4" d="M151.94,428.28c-4.23-11.18-13.09-19.38-20.97-28.02c-4.22-4.63-8.15-9.53-10.99-15.14
						c-2.69-5.32-6.33-13.31-2.68-18.94c3.16-4.87,10.08-0.92,13.52,1.39c4.39,2.96,7.86,6.92,11.18,10.99
						c9.22,11.28,16.15,24.51,20.14,38.52c0.98,3.45,1.72,6.96,2.3,10.49c0.1,0.64,1.07,0.37,0.96-0.27
						c-2.21-13.64-7.43-26.58-14.71-38.29c-5.65-9.09-12.71-18.87-22.32-24.12c-3.12-1.7-7.18-3.01-10.38-0.85
						c-4.07,2.74-3.42,8.71-2.38,12.76c3,11.56,11.21,20.53,19.15,29c6.39,6.81,12.84,13.84,16.19,22.72
						C151.2,429.14,152.17,428.89,151.94,428.28L151.94,428.28z"/>
				</g>
				<g>
					<path class="st4" d="M191.02,352.97c-6.62,10.32-5.37,23.49-7.39,35.11c-1.16,6.68-3.55,13.03-4.77,19.69
						c-1.29,7.04-2.7,14.03-4.38,20.98c-0.15,0.63,0.81,0.89,0.96,0.27c1.6-6.65,3.02-13.34,4.23-20.08
						c1.14-6.33,3.34-12.39,4.57-18.7c1.17-6.01,1.67-12.05,2.23-18.14c0.61-6.53,1.81-13.03,5.41-18.63
						C192.24,352.93,191.37,352.43,191.02,352.97L191.02,352.97z"/>
				</g>
				<g>
					<path class="st4" d="M153.58,337.92c0.45,7.54,3,14.68,4.74,21.97c1.94,8.14,3.52,16.39,5.16,24.59
						c1.6,7.99,3.03,16.02,4.74,23.98c1.77,8.22,3.19,16.55,3.23,24.98c0,0.64,1,0.64,1,0c-0.04-7.58-1.2-15.08-2.69-22.5
						c-1.66-8.26-3.31-16.53-4.93-24.8c-1.56-7.93-3.14-15.87-4.9-23.76c-1.82-8.12-4.85-16.12-5.35-24.48
						C154.54,337.28,153.54,337.27,153.58,337.92L153.58,337.92z"/>
				</g>
				<g>
					<path class="st4" d="M128.72,379.61c7.53,7.17,13.73,15.55,19.39,24.24c2.87,4.4,5.47,9.01,8.06,13.58
						c2.9,5.11,4.56,10.51,6.66,15.96c0.23,0.59,1.2,0.34,0.96-0.27c-1.9-4.92-3.31-9.92-5.85-14.57c-2.67-4.89-5.49-9.79-8.5-14.48
						c-5.8-9.03-12.23-17.76-20.02-25.17C128.96,378.46,128.25,379.16,128.72,379.61L128.72,379.61z"/>
				</g>
				<g>
					<path class="st4" d="M130.1,393.08c6.07,4.08,12.72,7.28,18.47,11.84c0.5,0.4,1.21-0.31,0.71-0.71
						c-5.81-4.62-12.52-7.87-18.67-12C130.06,391.85,129.56,392.72,130.1,393.08L130.1,393.08z"/>
				</g>
				<g>
					<path class="st4" d="M146.82,392.3c2.22,2.93,3.55,6.7,4.8,10.12c1.54,4.19,2.62,8.61,3.63,12.96
						c0.15,0.63,1.11,0.36,0.96-0.27c-1.06-4.57-2.24-9.17-3.85-13.58c-1.2-3.29-2.54-6.92-4.67-9.73
						C147.29,391.29,146.43,391.79,146.82,392.3L146.82,392.3z"/>
				</g>
				<g>
					<path class="st4" d="M179.74,380.66c0.34,4.22,2.39,8.08,2.52,12.33c0.02,0.64,1.02,0.65,1,0c-0.14-4.26-2.18-8.11-2.52-12.33
						C180.69,380.02,179.69,380.01,179.74,380.66L179.74,380.66z"/>
				</g>
				<g>
					<path class="st4" d="M160.21,345.5c-1.4,4.39-1.21,9.18-1.8,13.72c-0.08,0.64,0.92,0.63,1,0c0.58-4.45,0.4-9.14,1.77-13.45
						C161.37,345.15,160.41,344.89,160.21,345.5L160.21,345.5z"/>
				</g>
				<g>
					<path class="st4" d="M152.26,363.73c2.2,3.1,3.99,6.44,6.25,9.49c2.08,2.81,3.78,5.51,4.55,8.96c0.14,0.63,1.1,0.36,0.96-0.27
						c-0.66-2.97-1.89-5.2-3.59-7.7c-2.47-3.63-4.77-7.41-7.31-10.99C152.76,362.71,151.89,363.21,152.26,363.73L152.26,363.73z"/>
				</g>
				<g>
					<path class="st4" d="M168.33,375.84c-1.02,6.15-2.01,12.31-2.6,18.53c-0.06,0.64,0.94,0.64,1,0
						c0.58-6.12,1.56-12.19,2.57-18.26C169.4,375.48,168.43,375.21,168.33,375.84L168.33,375.84z"/>
				</g>
				<g>
					<path class="st4" d="M194.69,359.94c-2.47,6.46-6.66,12.16-9.59,18.41c-0.27,0.58,0.59,1.09,0.86,0.5
						c2.96-6.33,7.18-12.1,9.69-18.64C195.89,359.6,194.92,359.35,194.69,359.94L194.69,359.94z"/>
				</g>
			</g>
			<g class="st3">
				<g>
					<path class="st4" d="M551.7,443.73c-1.94-4.67-4.44-8.91-7.87-12.64c-4.32-4.68-9.88-7.77-13.7-12.95
						c-3.74-5.09-6.9-10.8-10-16.29c-1.83-3.23-3.31-6.5-3.92-10.18c-0.59-3.59-0.44-7.31-0.18-10.92c-0.25,0.14-0.5,0.29-0.75,0.43
						c2.42,1.04,4.2,2.86,6.15,4.57c1.94,1.69,4.22,2.97,6.29,4.49c4.84,3.54,9.17,8.19,12.7,13.01c3.27,4.47,5.57,9.75,7.79,14.8
						c1.93,4.39,3.49,9.4,6.35,13.3c0.31,0.42,1.12,0.19,0.91-0.38c-3.53-10.08-4.94-20.78-4.62-31.44
						c0.15-4.83,0.73-9.73,1.47-14.51c0.72-4.63,1.84-9.33,4.23-13.41c-0.29,0-0.58,0-0.86,0c1.16,2.25,1.42,4.7,1.88,7.15
						c0.51,2.75,1.48,5.36,2.46,7.97c2.17,5.75,3.39,11.9,4.51,17.92c1.19,6.41,1.47,12.43,0.49,18.89
						c-0.9,5.92-2.54,11.71-3.77,17.57c-0.11,0.53,0.65,0.92,0.91,0.38c1.77-3.56,3.43-7.16,4.91-10.85
						c1.61-4.02,2.68-8.2,4.1-12.28c2.24-6.41,6.05-12.24,12.18-15.44c7.33-3.82,24.08-7.63,25.99,4.26
						c0.25-0.19,0.49-0.38,0.73-0.56c-11.07-4.69-19.75,5.66-25.3,13.9c-3.76,5.58-7.66,10.84-11.96,16.03
						c-1.71,2.06-3.24,4.6-5.22,6.39c-1.77,1.6-5.22,4.05-7.74,3.81c-0.64-0.06-0.64,0.94,0,1c3.33,0.31,7.95-3.07,9.81-5.63
						c3.79-5.23,8.29-9.91,12.08-15.15c6.25-8.62,14.51-25.13,27.83-19.49c0.42,0.18,0.81-0.11,0.73-0.56
						c-1.9-11.79-17.32-9.15-25.18-5.91c-5.97,2.46-10.16,6.84-13.05,12.6c-2,3.99-3,8.34-4.41,12.54
						c-1.72,5.11-3.97,10.02-6.37,14.84c0.3,0.13,0.61,0.26,0.91,0.38c1.29-6.15,2.96-12.22,3.9-18.44
						c0.91-5.96,0.62-11.68-0.45-17.59c-1.15-6.36-2.45-12.8-4.69-18.88c-0.97-2.63-1.88-5.22-2.46-7.97
						c-0.54-2.54-0.77-5.04-1.98-7.39c-0.17-0.34-0.68-0.31-0.86,0c-4.56,7.77-5.22,17.86-5.76,26.67
						c-0.69,11.25,0.86,22.82,4.58,33.45c0.3-0.13,0.61-0.26,0.91-0.38c-3.01-4.1-4.66-9.46-6.7-14.11
						c-2.35-5.37-4.93-10.71-8.48-15.4c-3.2-4.23-7.12-8.2-11.33-11.44c-2.41-1.85-5.06-3.37-7.35-5.37
						c-1.84-1.6-3.48-3.22-5.75-4.2c-0.36-0.15-0.72,0.02-0.75,0.43c-0.46,6.44-0.21,12.58,2.6,18.49
						c2.88,6.06,6.69,11.9,10.34,17.52c1.56,2.4,3.32,4.62,5.38,6.61c2.25,2.17,4.93,3.88,7.27,5.98
						c4.54,4.07,7.79,9.06,10.12,14.66C550.98,444.58,551.94,444.32,551.7,443.73L551.7,443.73z"/>
				</g>
				<g>
					<path class="st4" d="M544.88,444.36c-5.66-9.16-10.18-21.58-21.04-25.78c-5.78-2.23-12.76-0.96-18.18,1.61
						c-6.12,2.91-10.99,8.07-15.29,13.17c-0.31,0.36-0.03,0.99,0.49,0.84c9.27-2.73,20.91-3.3,29.5,1.83
						c4.1,2.45,7.32,6.6,10.55,10.05c2.14,2.28,3.71,6.11,7.02,6.91c0.63,0.15,0.89-0.81,0.27-0.96c-2.22-0.53-3.72-2.96-5.01-4.66
						c-1.22-1.62-2.61-3.04-3.99-4.52c-3.31-3.55-6.55-7.11-11.09-9.05c-8.54-3.64-18.77-3.12-27.52-0.55
						c0.16,0.28,0.32,0.56,0.49,0.84c7.89-9.33,19.34-19.04,32.5-14.52c5.39,1.85,9.26,6.8,12.29,11.38
						c2.97,4.49,5.32,9.36,8.15,13.94C544.36,445.41,545.22,444.91,544.88,444.36L544.88,444.36z"/>
				</g>
				<g>
					<path class="st4" d="M529.74,400.91c4.05,8.5,11.23,14.77,16.4,22.51c2.57,3.85,4.8,8.15,6.74,12.34
						c2.38,5.16,1.63,10.47,1.59,15.99c0,0.65,1,0.64,1,0c0.03-4.66,0.83-9.59-0.73-14.06c-1.63-4.69-4.37-9.17-6.89-13.43
						c-5.02-8.5-12.96-14.85-17.25-23.85C530.33,399.82,529.47,400.33,529.74,400.91L529.74,400.91z"/>
				</g>
				<g>
					<path class="st4" d="M516.02,426.63c7.41,3.93,14.65,8.02,19.78,14.81c1.82,2.41,3.6,4.85,5.46,7.24
						c0.54,0.7,2.05,3.31,3.19,3.19c0.63-0.07,0.64-1.07,0-1c-0.83,0.09-3.54-4.27-3.94-4.81c-1.68-2.22-3.31-4.48-5.02-6.68
						c-4.84-6.2-12.14-10.01-18.96-13.62C515.96,425.47,515.45,426.33,516.02,426.63L516.02,426.63z"/>
				</g>
				<g>
					<path class="st4" d="M557.48,399.15c0.08,4.41,1.28,8.64,1.79,13c0.62,5.22,0.12,10.63-0.65,15.8
						c-1.41,9.52-0.76,19.19-3.38,28.55c0.33,0.04,0.66,0.09,0.98,0.13c0-0.38,0-0.75,0-1.13c0-0.64-1-0.64-1,0
						c0,0.38,0,0.75,0,1.13c0,0.57,0.83,0.68,0.98,0.13c2.54-9.05,2.32-18.52,3.3-27.8c0.53-5.03,1.16-9.91,0.91-14.99
						c-0.24-5-1.85-9.81-1.94-14.82C558.47,398.51,557.47,398.51,557.48,399.15L557.48,399.15z"/>
				</g>
				<g>
					<path class="st4" d="M590.04,405.48c-7.65,4.84-13.2,13.2-17.57,20.96c-4.2,7.47-7.89,16.68-16.25,20.36
						c-0.59,0.26-0.08,1.12,0.5,0.86c7.44-3.28,11.35-10.98,15.01-17.78c4.64-8.63,10.35-18.19,18.81-23.54
						C591.08,406,590.58,405.14,590.04,405.48L590.04,405.48z"/>
				</g>
			</g>
		</g>
	</g>
	<g>
		<g>
			<path class="st4" d="M381.79,241.22c0,5.32-4.31,9.64-9.63,9.64l0,0c-5.32,0-9.64-4.31-9.64-9.64v-6.69
				c0-5.32,4.31-9.63,9.64-9.63l0,0c5.32,0,9.63,4.31,9.63,9.63V241.22z"/>
			<path class="st4" d="M479.95,346.41c-2.66-12.98-14.16-48.07-42.17-60.76c-28.02-12.68-54.27-2.36-64,3.54
				c-9.73,5.9-20.94,28.91-25.95,50.43c-5.02,21.53-22.12,21.24-35.39,25.95l6.19,22.42l136.85,0.88c0,0,0,0,0.29-3.54
				C491.45,383.28,482.61,359.39,479.95,346.41z M340,380.77c5.46,0,29.79-18.29,34.8-17.7c2.51,13.42,2.8,20.5,3.1,21.38
				C378.2,385.34,341.48,391.83,340,380.77z"/>
			<path class="st5" d="M388.62,295.39c-1.77,8.45-9.04,60.17,3.34,94.18c9.63,0.79,23.99,0,23.99,0
				c-2.75-17.89-8.26-67.44,3.14-95.76C407.69,294.01,388.62,295.39,388.62,295.39z"/>
			<path class="st5" d="M394.91,280.05c-9.73,0.59-11.99,11.11-7.57,17.6c4.42,6.49,12.78,1.18,14.25-2.06
				c10.52,9.93,24.19,0.98,27.13-13.76C428.73,280.64,412.02,277.4,394.91,280.05z"/>
			<path class="st4" d="M422.63,226.74c-0.44-9.81-10.52-28.54-34.41-27.48c-17.01,1.31-19.07,17.42-19.07,17.42
				c-0.59,1.81-3.64,5.63-3.64,5.63c-0.88-7.55,3.89-27.55,25.37-28.09c24.18-0.6,35.73,18.32,36.18,31.91
				C425.14,229.31,422.63,226.74,422.63,226.74z"/>
			<path class="st6" d="M375.19,208.17c-8.17,5.6-13.06,14.91-8.92,24.17c4.14,9.26,5.31,13.34,1.3,20.59
				c-5.65,10.19-8.03,19.71-3.78,28.37c25.62-3.54,36.89-6.42,36.89-6.42S390.77,207.09,375.19,208.17z"/>
			<path class="st7" d="M413.22,254.82c0,0,6.34,19.09,6.94,27.16c0.55,7.4-23.93,12.33-25.67,4.58c-1.81-9.23-4.5-24.91-4.5-24.91"
				/>
			<path class="st8" d="M415.25,262.79l-2.03-7.97l-23.23,6.83c0,0,0.83,4.82,1.89,10.86c1.73,0.33,3.51,0.49,5.34,0.4
				C404.78,272.57,411.31,268.61,415.25,262.79z"/>
			<path class="st7" d="M372.61,245.54c0.57,12.71,11.33,22.56,24.04,21.99l0,0c12.71-0.57,22.56-11.33,21.99-24.05l-1.09-24.34
				c-0.57-12.71-11.34-22.56-24.05-21.99l0,0c-12.71,0.57-22.56,11.33-21.99,24.04L372.61,245.54z"/>
			<g>
				<path class="st6" d="M403.02,220.34c-2.91-1.56-6.73-2.29-9.77-0.72c-1.14,0.59-0.13,2.3,1,1.71c2.37-1.22,5.52-0.49,7.76,0.72
					C403.14,222.66,404.14,220.95,403.02,220.34L403.02,220.34z"/>
			</g>
			<g>
				<path class="st6" d="M375.23,223.55c1.37-1.3,3.34-1.78,5.17-1.4c1.25,0.26,1.78-1.66,0.53-1.91c-2.54-0.52-5.2,0.1-7.1,1.91
					C372.9,223.03,374.31,224.43,375.23,223.55L375.23,223.55z"/>
			</g>
			<g>
				<path class="st6" d="M388.96,241.31c-0.18,0-0.35-0.06-0.5-0.19l-4.49-3.95c-0.18-0.16-0.28-0.4-0.25-0.64s0.17-0.46,0.38-0.58
					l4.52-2.54c0.36-0.2,0.82-0.07,1.02,0.29c0.2,0.36,0.08,0.82-0.29,1.02l-3.6,2.03l3.7,3.25c0.31,0.27,0.34,0.75,0.07,1.06
					C389.38,241.22,389.17,241.31,388.96,241.31z"/>
			</g>
			<g>
				<path class="st6" d="M390.63,247.67c-1.21,0-2.4-0.32-3.33-0.95c-0.34-0.23-0.43-0.7-0.2-1.04c0.23-0.34,0.7-0.43,1.04-0.2
					c1.27,0.87,3.42,0.91,4.88,0.1c0.88-0.49,1.91-1.5,1.82-3.53c-0.02-0.41,0.3-0.76,0.71-0.78c0.41-0.02,0.76,0.3,0.78,0.71
					c0.1,2.18-0.82,3.92-2.58,4.91C392.82,247.41,391.71,247.67,390.63,247.67z"/>
			</g>
			<path class="st9" d="M394,233c0.55,1.45,2.16,2.18,3.61,1.63c1.44-0.54,2.18-2.16,1.63-3.61c-0.55-1.45-2.16-2.18-3.61-1.63
				C394.19,229.94,393.46,231.56,394,233z"/>
			<path class="st9" d="M377.26,234.01c0.55,1.44,2.16,2.18,3.61,1.63c1.44-0.54,2.18-2.17,1.63-3.61
				c-0.55-1.45-2.16-2.17-3.61-1.63C377.44,230.95,376.71,232.56,377.26,234.01z"/>
			<g>
				<path class="st9" d="M377.98,233.35c-0.12,0-0.24-0.03-0.34-0.1l-2.73-1.67c-0.31-0.19-0.41-0.6-0.22-0.91
					c0.19-0.31,0.6-0.41,0.91-0.22l2.73,1.67c0.31,0.19,0.41,0.6,0.22,0.91C378.42,233.23,378.2,233.35,377.98,233.35z"/>
			</g>
			<g>
				<path class="st9" d="M397.82,232.36c-0.21,0-0.41-0.1-0.54-0.28c-0.21-0.3-0.13-0.71,0.17-0.92l2.86-1.98
					c0.3-0.21,0.71-0.13,0.92,0.17c0.21,0.3,0.13,0.71-0.17,0.92l-2.86,1.98C398.08,232.32,397.95,232.36,397.82,232.36z"/>
			</g>
			<path class="st6" d="M440.56,245.69c-3.82-8.23,0.9-13.34-1.14-21.19c-1.78-6.86-9.95-6.65-14.16-16.37
				c-6.45-14.9-39.66-28.32-52.04,1.92c13.76-9.33,27.87-4.48,33.23,2.42c10.8,13.91-0.28,19.81,3.89,28.08
				c3.04,6.03,5.03,10.09,1.1,19.21c-3.92,9.12,1.57,17.8,1.57,17.8c12.85-1.42,27.38-2.69,40.58-4.92
				C453.58,250.38,444.37,253.92,440.56,245.69z"/>
			<path class="st7" d="M382.13,359.68c-11.21,0.98-15.53,4.33-25.56,9.64c-10.03,5.31-12.19,6.49-9.83,7.47
				c-5.9,0.39-2.46,3.54,1.67,2.16c-2.75,1.18,1.08,2.46,6.59,0.39c1.38,2.16,8.46,1.18,12.98-1.38c4.52-2.56,15.34-4.72,25.17-1.38
				c1.18-6.09-2.55-16.71-2.55-16.71L382.13,359.68z"/>
			<path class="st4" d="M389.26,359.83c6.05-1.33,22.96-2.71,32.99-2.11c0.59,7.86-3.74,23.79-3.74,23.79l-26.74-5.9
				C391.76,375.61,393.09,367.2,389.26,359.83z"/>
			<g>
				<path class="st10" d="M388.75,359.97c11.94-1.73,24.01-1.69,36.05-2.03c5.8-0.16,11.36-0.84,17.1-1.49
					c5.46-0.62,11.93,0.56,17.17,2.15c0.62,0.19,0.88-0.78,0.27-0.96c-4.85-1.47-10.52-2.43-15.59-2.32
					c-2.51,0.05-5.04,0.57-7.51,0.94c-3.45,0.51-6.97,0.55-10.45,0.66c-12.46,0.4-24.93,0.31-37.3,2.1
					C387.85,359.1,388.12,360.06,388.75,359.97L388.75,359.97z"/>
			</g>
			<g>
				<path class="st10" d="M442.01,329.34c1.14,8.3,1.73,16.65,1.75,25.04c0,0.64,1,0.64,1,0c-0.02-8.47-0.64-16.91-1.79-25.3
					C442.89,328.44,441.92,328.71,442.01,329.34L442.01,329.34z"/>
			</g>
			<g>
				<path class="st10" d="M390.98,376.11c3.62-0.04,6.96,1.56,10.39,2.49c4.08,1.11,8.07,2.49,12.14,3.61
					c8.23,2.26,16.79,3.69,25.31,4.18c13.56,0.78,29.96,0.12,40.2-10.03c0.46-0.45-0.25-1.16-0.71-0.71
					c-10.7,10.61-28.29,10.62-42.33,9.55c-8.4-0.64-16.82-2.36-24.9-4.72c-3.63-1.06-7.25-2.17-10.87-3.25
					c-3.05-0.91-6-2.16-9.24-2.12C390.33,375.12,390.33,376.12,390.98,376.11L390.98,376.11z"/>
			</g>
			<g>
				<path class="st10" d="M371.03,319.05c-0.89,2.68-0.63,5.57-0.59,8.36c0.05,3.84,0.34,7.66,0.54,11.49
					c0.2,3.78,0.31,7.56,0.62,11.34c0.28,3.48,1.6,6.79,1.78,10.24c0.03,0.64,1.03,0.64,1,0c-0.17-3.16-1.38-6.14-1.69-9.3
					c-0.35-3.45-0.46-6.93-0.61-10.4c-0.15-3.5-0.39-6.99-0.54-10.48c-0.15-3.5-0.65-7.62,0.47-10.98
					C372.2,318.7,371.23,318.44,371.03,319.05L371.03,319.05z"/>
			</g>
			<g>
				<path class="st10" d="M386.17,284.83c-1.57,5.54-2.67,12.6,3.53,15.71c2.24,1.12,4.79,0.57,6.95-0.41
					c1.52-0.69,2.84-1.85,4.09-2.92c1.27-1.09,1.82,0.56,2.95,1.36c9.12,6.52,21.13-2.51,24.15-11.51c0.21-0.61-0.76-0.87-0.96-0.27
					c-3.22,9.6-17,18.42-24.92,8.63c-0.18-0.22-0.52-0.17-0.71,0c-3.29,2.96-7.56,6.46-12.05,3.69c-4.89-3.02-3.32-9.55-2.06-14.02
					C387.31,284.48,386.35,284.21,386.17,284.83L386.17,284.83z"/>
			</g>
			<g>
				<path class="st10" d="M354.54,380.22c3.15-0.56,5.68-2.53,8.33-4.19c3.66-2.29,7.76-3.61,11.73-5.25
					c0.59-0.24,0.33-1.21-0.27-0.96c-3.27,1.35-6.62,2.49-9.79,4.1c-3.44,1.74-6.37,4.65-10.27,5.34
					C353.64,379.37,353.91,380.33,354.54,380.22L354.54,380.22z"/>
			</g>
			<g>
				<path class="st10" d="M347.38,380.17c7.96-3.36,15.3-8.09,23.47-10.96c0.6-0.21,0.34-1.18-0.27-0.96
					c-8.26,2.9-15.67,7.67-23.71,11.06C346.29,379.56,346.8,380.42,347.38,380.17L347.38,380.17z"/>
			</g>
			<g>
				<path class="st10" d="M345.61,377.81c3.14-1.91,6.73-2.8,9.97-4.51c3.2-1.7,6.38-3.44,9.7-4.92c0.59-0.26,0.08-1.12-0.5-0.86
					c-3.31,1.48-6.5,3.22-9.7,4.92c-3.23,1.72-6.82,2.6-9.97,4.51C344.56,377.28,345.06,378.15,345.61,377.81L345.61,377.81z"/>
			</g>
			<g>
				<path class="st10" d="M397.47,303.93c0.34,1.78,2.85,1.71,3.66,0.34c0.45-0.76-0.04-1.66-0.74-2.06
					c-0.85-0.49-2.14-0.4-2.72,0.44c-0.37,0.53,0.5,1.03,0.86,0.5c0.44-0.64,2.28,0.03,1.63,0.74c-0.49,0.54-1.58,0.59-1.73-0.24
					C398.32,303.03,397.36,303.3,397.47,303.93L397.47,303.93z"/>
			</g>
			<g>
				<path class="st10" d="M396.15,311.33c-0.25,1.77,1.8,2.27,2.99,1.28c0.61-0.5,0.92-1.47,0.41-2.15
					c-0.53-0.71-1.57-0.6-2.31-0.36c-0.61,0.19-0.35,1.16,0.27,0.96c0.37-0.12,0.86-0.26,1.22-0.04c0.31,0.18-0.11,0.74-0.27,0.86
					c-0.37,0.27-1.45,0.46-1.34-0.29C397.21,310.96,396.24,310.69,396.15,311.33L396.15,311.33z"/>
			</g>
			<g>
				<path class="st10" d="M395.54,320.9c0.09,2.01,3.05,1.21,3.34-0.31c0.36-1.85-2.86-2.86-3.18-0.86c-0.1,0.63,0.87,0.9,0.96,0.27
					c0.12-0.77,1.22-0.24,1.24,0.36c0.01,0.47-1.34,1.12-1.37,0.54C396.51,320.26,395.51,320.25,395.54,320.9L395.54,320.9z"/>
			</g>
			<g>
				<path class="st10" d="M376.08,375.61c-0.15,1.47,0.06,3.18,0.61,4.56c0.24,0.59,1.2,0.33,0.96-0.27
					c-0.52-1.32-0.72-2.89-0.57-4.29C377.14,374.97,376.14,374.97,376.08,375.61L376.08,375.61z"/>
			</g>
			<g>
				<path class="st10" d="M388.56,360.12c1.87,1.31,2.01,3.91,2.54,5.94c0.7,2.68,1.22,6,0.03,8.62c-0.26,0.58,0.6,1.09,0.86,0.5
					c1.34-2.95,0.78-6.33,0.07-9.39c-0.55-2.37-0.88-5.04-3-6.53C388.54,358.88,388.04,359.75,388.56,360.12L388.56,360.12z"/>
			</g>
			<g>
				<path class="st10" d="M364.44,246.99c-1.57,11.66,15.66,11.7,23.1,11.35c0.64-0.03,0.64-1.03,0-1
					c-6.57,0.31-23.57,0.63-22.13-10.08C365.49,246.62,364.53,246.35,364.44,246.99L364.44,246.99z"/>
			</g>
			<path class="st4" d="M393.34,257.69c0,1.66-1.65,3-3.69,3c-2.04,0-3.68-1.34-3.68-3c0-1.66,1.65-3,3.68-3
				C391.69,254.69,393.34,256.03,393.34,257.69z"/>
			<path class="st4" d="M390.88,194.23c-12.25,0.31-19.06,6.94-22.49,13.99c1.17,0.13,2.43,0.47,3.48,0.97
				c2.54-4.4,7.35-9.23,16.35-9.93c23.89-1.06,33.97,17.67,34.41,27.48c0,0,2.51,2.57,4.42-0.6
				C426.61,212.55,415.06,193.62,390.88,194.23z"/>
			<path class="st4" d="M434.83,241.22c0,5.32-4.31,9.64-9.63,9.64l0,0c-5.32,0-9.64-4.31-9.64-9.64v-6.69
				c0-5.32,4.31-9.63,9.64-9.63l0,0c5.32,0,9.63,4.31,9.63,9.63V241.22z"/>
			<g>
				<path class="st10" d="M432.56,240.19c-0.35,6.5-9.08,7.99-11.47,1.89c-0.71-1.82-0.31-4.4-0.31-6.32c0-6.65,9.15-7.8,11.47-1.89
					C432.96,235.69,432.56,238.27,432.56,240.19c0,0.65,1,0.65,1,0c0-4.01,0.39-7.88-3.41-10.38c-4.61-3.03-10.1,1.04-10.37,5.95
					c-0.21,3.95-0.25,7.98,3.41,10.38c4.61,3.03,10.1-1.04,10.37-5.95C433.59,239.55,432.59,239.55,432.56,240.19z"/>
			</g>
		</g>
		<g>
			<path class="st11" d="M319.8,380.13c5.51,0,73.34,0,76.88,0c3.54,0,4.33,7.08-1.57,7.08c-5.9,0-176.37,0-176.37,0
				c-5.31-10.62-29.1-75.5-31.46-81.6c-2.36-6.09-0.2-13.17,9.44-13.17c9.63,0,60.56,0,67.64,0c7.08,0,14.94,1.18,19.86,11.99
				C289.13,315.25,319.8,380.13,319.8,380.13z"/>
			<path class="st12" d="M396.92,386.93c0.23-0.08,0.44-0.18,0.64-0.28c0.02-0.01,0.04-0.02,0.05-0.03
				c3.02-1.69,1.98-6.49-0.93-6.49c-0.58,0-2.86,0-6.29,0c-17.67,0-65.98,0-70.59,0c0,0-0.02-0.05-0.06-0.13
				c-0.04-0.07-0.08-0.17-0.15-0.31c-0.27-0.58-0.81-1.71-1.56-3.3c-6.6-13.96-29.62-62.71-33.82-71.96
				c-4.92-10.82-12.78-11.99-19.86-11.99c-1.12,0-3.33,0-6.29,0c7.08,0,14.94,1.18,19.86,11.99c4.91,10.82,35.59,75.7,35.59,75.7
				l2.66,6.89c0,0,3.31,0.08,8.61,0.19c27.54,0,52.65,0,64.05,0c3.49,0,5.71,0,6.29,0c0.35,0,0.68-0.03,0.99-0.08
				c0.2-0.03,0.37-0.08,0.55-0.13C396.73,386.98,396.84,386.96,396.92,386.93z"/>
			<path class="st13" d="M255.9,340.81c1.94,4.8-0.36,8.69-5.14,8.69c-4.78,0-10.23-3.89-12.17-8.69c-1.94-4.8,0.36-8.69,5.14-8.69
				C248.51,332.12,253.96,336.01,255.9,340.81z"/>
		</g>
		<g>
			<path class="st14" d="M486.88,392.7H209.52v43.97c30.45,6.48,71.48,11.17,111.89,11.68c55.32,0.7,112.69,0.07,165.46-2.5V392.7z"
				/>
			<path class="st7" d="M498.39,391.61c0,2.62-2.13,4.75-4.75,4.75H202.76c-2.62,0-4.75-2.13-4.75-4.75l0,0
				c0-2.62,2.13-4.75,4.75-4.75h290.87C496.26,386.85,498.39,388.98,498.39,391.61L498.39,391.61z"/>
		</g>
	</g>
	<g>
		<path class="st4" d="M176.1,223.17c6.59,6.25,11.98,6.25,11.96,0c-0.01-6.25-0.04-16.47-0.05-22.71
			c-0.01-6.25-5.41-11.36-11.99-11.36c-6.58,0-17.35,0-23.93,0c-6.58,0-6.57,5.11,0.02,11.36
			C158.71,206.71,169.5,216.93,176.1,223.17z"/>
		<path class="st4" d="M333.35,162.72c0,21.2-17.18,38.38-38.38,38.38h-140.9c-21.2,0-38.38-17.18-38.38-38.38v-50.57
			c0-21.2,17.18-38.38,38.38-38.38h140.9c21.2,0,38.38,17.18,38.38,38.38V162.72z"/>
		<text transform="matrix(1 0 0 1 212.2329 113.5625)" class="st7 st15 st16">A L’AIDE !</text>
		<rect x="214.5" y="123.75" class="st2" width="98.27" height="6.39"/>
		<rect x="214.5" y="139.28" class="st2" width="84.86" height="6.39"/>
		<rect x="214.5" y="154.8" class="st2" width="56.29" height="6.39"/>
		<rect x="214.5" y="170.33" class="st2" width="91.04" height="6.39"/>
		<g>
			<path class="st6" d="M194.99,174.35c-2.93-7.27-13.06-12.47-18.24-12.4h-17.48c-5.75,0.54-15.31,5.13-18.24,12.4
				c6.85,6.78,16.4,10.99,26.98,10.99C178.59,185.34,188.15,181.12,194.99,174.35z"/>
			<path class="st7" d="M160.88,147.02c0,0-1.67,13.75-2.83,21.53c-0.84,5.68,19.54,7.28,20.16,1.15
				c0.54-7.26,1.16-19.57,1.16-19.57"/>
			<path class="st8" d="M160.05,153.34l0.83-6.32l18.5,3.11c0,0-0.19,3.78-0.45,8.53c-1.3,0.41-2.65,0.7-4.07,0.8
				C169,159.9,163.61,157.45,160.05,153.34z"/>
			<path class="st7" d="M191.25,136.15c0.74,9.83-6.64,18.39-16.47,19.13l0,0c-9.83,0.73-18.39-6.64-19.13-16.47l-1.41-18.82
				c-0.74-9.83,6.64-18.39,16.47-19.12l0,0c9.83-0.74,18.39,6.64,19.13,16.46L191.25,136.15z"/>
			<g>
				<path class="st6" d="M166.95,121.95c2.5-0.53,4.51-1.65,6.01-3.74c0.75-1.04-0.98-2.03-1.71-1c-1.19,1.67-2.87,2.41-4.83,2.83
					C165.17,120.3,165.7,122.22,166.95,121.95L166.95,121.95z"/>
			</g>
			<g>
				<path class="st6" d="M187.15,118.05c-1.4-0.26-2.26-0.93-2.95-2.17c-0.62-1.12-2.33-0.12-1.71,1c0.91,1.65,2.26,2.73,4.13,3.08
					C187.87,120.2,188.4,118.29,187.15,118.05L187.15,118.05z"/>
			</g>
			<g>
				<path class="st6" d="M178.21,134.57c-0.18,0-0.36-0.06-0.5-0.19c-0.31-0.28-0.34-0.75-0.06-1.06l2.38-2.67l-2.74-1.14
					c-0.38-0.16-0.56-0.6-0.41-0.98c0.16-0.38,0.6-0.57,0.98-0.41l3.71,1.54c0.22,0.09,0.39,0.29,0.44,0.53
					c0.05,0.24-0.01,0.49-0.17,0.67l-3.09,3.46C178.63,134.48,178.42,134.57,178.21,134.57z"/>
			</g>
			<g>
				<path class="st6" d="M173.71,142.15c-0.23,0-0.47-0.11-0.61-0.32c-0.24-0.34-0.16-0.81,0.18-1.05c2.95-2.09,5.6-2.93,7.89-2.5
					c0.41,0.08,0.67,0.47,0.6,0.88c-0.08,0.41-0.47,0.67-0.88,0.6c-1.86-0.35-4.13,0.4-6.74,2.25
					C174.01,142.11,173.86,142.15,173.71,142.15z"/>
			</g>
			<path class="st9" d="M173.64,128.47c-0.29,1.16-1.46,1.87-2.63,1.59c-1.16-0.29-1.87-1.46-1.58-2.63
				c0.29-1.16,1.46-1.88,2.62-1.59C173.22,126.13,173.93,127.31,173.64,128.47z"/>
			<path class="st9" d="M186.61,127.7c-0.29,1.16-1.46,1.88-2.63,1.59c-1.16-0.28-1.87-1.46-1.59-2.63
				c0.29-1.16,1.46-1.87,2.63-1.58C186.19,125.36,186.9,126.54,186.61,127.7z"/>
			<path class="st7" d="M159.08,134.08c0.85,3.48-1.29,6.98-4.77,7.83l0,0c-3.48,0.85-6.98-1.29-7.83-4.77l-0.48-1.99
				c-0.84-3.48,1.29-6.98,4.77-7.83l0,0c3.48-0.84,6.98,1.29,7.83,4.77L159.08,134.08z"/>
			<path class="st6" d="M149.3,127.97c-1.52-4.34-8.95-21.99,2.09-22.52c0.69-6.93,10.32-10.58,22.35-12.95
				c12.03-2.36,19.53,3.28,18.62,8.91c-0.91,5.64-8.3,7.69-14.16,6.02c-1.68,6.09-9.75,4.04-11.5,2.82
				c-1.35,5.9-8.05,7.33-7.29,11.44c0.76,4.11,1.1,8.3,1.26,9.14c0.15,0.84-3.35,2.48-4.11,0.8
				C155.79,129.95,152.78,126.95,149.3,127.97z"/>
		</g>
		<g>
			<path class="st10" d="M182.56,224.35c7.3,1.45,3.12-23.32,3.07-27.06c-0.17,0.17-0.33,0.33-0.5,0.5
				c15.72,0.14,31.43,0.18,47.15,0.04c11.23-0.1,22.46-0.39,33.7-0.39c6.91,0,13.78-0.25,20.68-0.52c7.4-0.29,14.78-0.26,21.98-2.18
				c13.79-3.66,18.81-18.25,20.24-31.04c0.07-0.64-0.93-0.63-1,0c-1.06,9.5-3.94,19.91-11.58,26.23
				c-5.76,4.77-14.24,5.37-21.38,5.72c-7.11,0.35-14.25,0.65-21.38,0.75c-22.52,0.32-45.06,0.54-67.59,0.49
				c-6.94-0.02-13.89-0.05-20.83-0.11c-0.27,0-0.5,0.23-0.5,0.5c0.04,3.15,3.3,27.11-1.8,26.1
				C182.2,223.26,181.93,224.23,182.56,224.35L182.56,224.35z"/>
		</g>
		<g>
			<path class="st10" d="M328.41,120.91c0.01,12.42,0.54,24.91-0.31,37.32c-0.04,0.64,0.96,0.64,1,0
				c0.85-12.4,0.31-24.89,0.31-37.32C329.41,120.26,328.41,120.26,328.41,120.91L328.41,120.91z"/>
		</g>
	</g>
	<g>
		<path class="st4" d="M716.67,283.17c0,21.98-17.82,39.79-39.79,39.79H530.8c-21.98,0-39.79-17.82-39.79-39.79v-52.42
			c0-21.98,17.82-39.79,39.79-39.79h146.08c21.98,0,39.79,17.82,39.79,39.79V283.17z"/>
		<path class="st4" d="M536.06,345.85c-6.84,6.47-12.42,6.47-12.41,0c0.01-6.47,0.04-17.07,0.05-23.55
			c0.01-6.48,5.61-11.77,12.43-11.77c6.82,0,17.99,0,24.81,0c6.82,0,6.81,5.3-0.02,11.77C554.08,328.77,542.89,339.37,536.06,345.85
			z"/>
		<text transform="matrix(1 0 0 1 520.1934 234.9814)" class="st7 st15 st17">MERCI !</text>
		<rect x="517.5" y="245.55" class="st2" width="101.88" height="6.62"/>
		<rect x="517.5" y="261.64" class="st2" width="87.98" height="6.63"/>
		<rect x="517.5" y="277.74" class="st2" width="58.36" height="6.62"/>
		<g>
			<path class="st6" d="M642.76,297.69c3.04-7.54,13.54-12.93,18.91-12.86h18.12c5.96,0.56,15.87,5.32,18.91,12.86
				c-7.1,7.03-17,11.39-27.97,11.39C659.76,309.08,649.86,304.71,642.76,297.69z"/>
			<g>
				<path class="st7" d="M678.13,269.36c0,0,1.74,14.26,2.93,22.32c0.88,5.89-20.26,7.54-20.9,1.2c-0.56-7.53-1.21-20.29-1.21-20.29
					"/>
				<path class="st8" d="M678.99,275.91l-0.86-6.55l-19.17,3.23c0,0,0.2,3.92,0.47,8.84c1.35,0.43,2.75,0.72,4.22,0.83
					C669.71,282.71,675.29,280.17,678.99,275.91z"/>
				<path class="st7" d="M646.64,258.08c-0.76,10.19,6.88,19.07,17.07,19.83l0,0c10.19,0.76,19.07-6.88,19.83-17.08l1.46-19.51
					c0.76-10.19-6.88-19.07-17.07-19.83l0,0c-10.19-0.76-19.07,6.88-19.83,17.07L646.64,258.08z"/>
				<g>
					<path class="st6" d="M671.97,241.56c-1-1.93-3.23-3.27-5.44-3.02c-1.26,0.15-1.27,2.13,0,1.98c1.56-0.18,3.01,0.65,3.72,2.03
						C670.85,243.69,672.56,242.69,671.97,241.56L671.97,241.56z"/>
				</g>
				<g>
					<path class="st6" d="M651.87,241.01c0.87-0.91,2.46-1.53,3.7-1.23c1.24,0.3,1.77-1.61,0.53-1.91
						c-1.92-0.46-4.27,0.32-5.63,1.74C649.59,240.53,650.99,241.94,651.87,241.01L651.87,241.01z"/>
				</g>
				<g>
					<path class="st6" d="M660.15,256.42c-0.21,0-0.41-0.08-0.56-0.25l-3.2-3.58c-0.16-0.18-0.23-0.43-0.17-0.67
						c0.05-0.24,0.22-0.43,0.44-0.53l3.85-1.6c0.38-0.16,0.82,0.02,0.98,0.41c0.16,0.38-0.02,0.82-0.41,0.98l-2.87,1.19l2.5,2.79
						c0.28,0.31,0.25,0.78-0.06,1.06C660.51,256.35,660.33,256.42,660.15,256.42z"/>
				</g>
				<g>
					<path class="st6" d="M659.86,266.69C659.86,266.69,659.86,266.69,659.86,266.69c-2.06,0-3.45-2.18-4.25-6.66
						c-0.04-0.24,0.03-0.48,0.2-0.65c0.17-0.17,0.41-0.25,0.65-0.22c1.26,0.19,2.87,0.38,5.19,0.38c1.19,0,2.49-0.05,3.97-0.15
						c0.27-0.02,0.54,0.12,0.69,0.35c0.15,0.24,0.15,0.54,0.01,0.77C663.86,264.67,661.75,266.69,659.86,266.69z M657.29,260.78
						c0.63,2.82,1.55,4.41,2.57,4.41c0.66,0,2.07-0.58,4.41-4.22C661.57,261.1,659.51,261.05,657.29,260.78z"/>
				</g>
				<path class="st9" d="M664.89,250.13c0.3,1.21,1.52,1.94,2.72,1.65c1.2-0.3,1.94-1.52,1.64-2.72c-0.3-1.21-1.51-1.94-2.72-1.65
					C665.33,247.7,664.6,248.92,664.89,250.13z"/>
				<path class="st9" d="M651.45,249.33c0.3,1.2,1.52,1.94,2.72,1.64c1.2-0.3,1.94-1.52,1.65-2.72c-0.3-1.21-1.52-1.94-2.72-1.64
					C651.89,246.9,651.15,248.12,651.45,249.33z"/>
			</g>
			<path class="st7" d="M680,255.94c-0.88,3.61,1.34,7.24,4.94,8.12l0,0c3.61,0.88,7.24-1.33,8.12-4.94l0.5-2.06
				c0.88-3.61-1.33-7.24-4.94-8.12l0,0c-3.61-0.88-7.24,1.34-8.12,4.94L680,255.94z"/>
			<path class="st6" d="M690.13,249.61c1.58-4.5,9.28-22.8-2.17-23.35c-0.71-7.19-10.7-10.97-23.17-13.42
				c-12.47-2.45-20.25,3.4-19.31,9.24c0.95,5.84,8.61,7.97,14.68,6.24c1.74,6.32,10.11,4.18,11.92,2.92
				c1.4,6.12,8.35,7.6,7.56,11.86c-0.79,4.26-1.15,8.61-1.3,9.48c-0.16,0.87,3.47,2.56,4.27,0.83
				C683.4,251.66,686.52,248.54,690.13,249.61z"/>
		</g>
		<g>
			<path class="st10" d="M676.41,320.02c14.69-0.58,30.43-9.93,33.56-25.11c0.13-0.63-0.84-0.9-0.96-0.27
				c-3.04,14.74-18.33,23.81-32.59,24.37C675.77,319.04,675.77,320.04,676.41,320.02L676.41,320.02z"/>
		</g>
		<g>
			<path class="st10" d="M664.26,320.1c2.68,0.1,5.36,0.15,8.04,0.21c0.65,0.01,0.64-0.99,0-1c-2.68-0.06-5.36-0.11-8.04-0.21
				C663.62,319.07,663.62,320.07,664.26,320.1L664.26,320.1z"/>
		</g>
		<g>
			<path class="st10" d="M535.83,342.18c5.04-4.53,10.09-9.04,14.82-13.89c2.19-2.24,4.14-5.17,6.79-6.95
				c1.57-1.05,3.51-1.22,5.34-1.33c3.6-0.21,7.23-0.11,10.84-0.16c6.54-0.09,13.07-0.44,19.62-0.43c7.01,0.01,14.02,0.33,21.02,0.65
				c13.64,0.62,27.31,1.27,40.92-0.14c0.63-0.07,0.64-1.07,0-1c-13.93,1.43-27.91,0.73-41.86,0.09c-7.33-0.33-14.67-0.62-22.01-0.61
				c-6.55,0.01-13.1,0.38-19.65,0.45c-4.47,0.05-10.69-0.94-14.71,1.6c-2.49,1.58-4.36,4.34-6.34,6.43
				c-4.87,5.14-10.21,9.83-15.47,14.56C534.64,341.91,535.35,342.61,535.83,342.18L535.83,342.18z"/>
		</g>
	</g>
	<g>
		<path class="st14" d="M634.25,139.87c0,11.5-9.33,20.83-20.83,20.83H419.49c-11.5,0-20.83-9.33-20.83-20.83v-19.39
			c0-11.5,9.33-20.83,20.83-20.83h193.94c11.5,0,20.83,9.33,20.83,20.83V139.87z"/>
		<g>
			<g>
				<path class="st7" d="M431.06,114.23c0.73-1.48,1.92-1.48,2.65,0l2.33,4.72c0.73,1.48,2.66,2.88,4.3,3.12l5.21,0.76
					c1.63,0.24,2,1.37,0.82,2.53l-3.77,3.68c-1.18,1.15-1.92,3.42-1.64,5.05l0.89,5.19c0.28,1.63-0.69,2.33-2.15,1.56l-4.67-2.45
					c-1.46-0.77-3.85-0.77-5.31,0l-4.66,2.45c-1.46,0.77-2.43,0.07-2.15-1.56l0.89-5.19c0.28-1.63-0.46-3.9-1.64-5.05l-3.77-3.68
					c-1.18-1.15-0.81-2.29,0.82-2.53l5.21-0.76c1.63-0.24,3.57-1.64,4.3-3.12L431.06,114.23z"/>
			</g>
			<g>
				<path class="st7" d="M472.73,114.23c0.73-1.48,1.92-1.48,2.66,0l2.33,4.72c0.73,1.48,2.66,2.88,4.3,3.12l5.21,0.76
					c1.63,0.24,2,1.37,0.82,2.53l-3.77,3.68c-1.18,1.15-1.92,3.42-1.64,5.05l0.89,5.19c0.28,1.63-0.69,2.33-2.15,1.56l-4.66-2.45
					c-1.46-0.77-3.85-0.77-5.31,0l-4.67,2.45c-1.46,0.77-2.43,0.06-2.15-1.56l0.89-5.19c0.28-1.63-0.46-3.9-1.64-5.05l-3.77-3.68
					c-1.18-1.15-0.81-2.29,0.82-2.53l5.21-0.76c1.63-0.24,3.57-1.64,4.3-3.12L472.73,114.23z"/>
			</g>
			<g>
				<path class="st7" d="M514.4,114.23c0.73-1.48,1.93-1.48,2.66,0l2.33,4.72c0.73,1.48,2.66,2.88,4.3,3.12l5.21,0.76
					c1.63,0.24,2,1.37,0.82,2.53l-3.77,3.68c-1.18,1.15-1.92,3.42-1.64,5.05l0.89,5.19c0.28,1.63-0.69,2.33-2.15,1.56l-4.66-2.45
					c-1.46-0.77-3.85-0.77-5.31,0l-4.66,2.45c-1.46,0.77-2.43,0.07-2.15-1.56l0.89-5.19c0.28-1.63-0.46-3.9-1.64-5.05l-3.77-3.68
					c-1.18-1.15-0.81-2.29,0.82-2.53l5.21-0.76c1.63-0.24,3.57-1.64,4.3-3.12L514.4,114.23z"/>
			</g>
			<g>
				<path class="st7" d="M556.06,114.23c0.73-1.48,1.93-1.48,2.66,0l2.33,4.72c0.73,1.48,2.66,2.88,4.3,3.12l5.21,0.76
					c1.63,0.24,2,1.37,0.82,2.53l-3.77,3.68c-1.18,1.15-1.92,3.42-1.64,5.05l0.89,5.19c0.28,1.63-0.69,2.33-2.15,1.56l-4.66-2.45
					c-1.46-0.77-3.85-0.77-5.31,0l-4.66,2.45c-1.46,0.77-2.43,0.07-2.15-1.56l0.89-5.19c0.28-1.63-0.46-3.9-1.64-5.05l-3.77-3.68
					c-1.18-1.15-0.81-2.29,0.82-2.53l5.21-0.76c1.63-0.24,3.57-1.64,4.3-3.12L556.06,114.23z"/>
			</g>
			<g>
				<path class="st7" d="M597.73,114.23c0.73-1.48,1.93-1.48,2.66,0l2.33,4.72c0.73,1.48,2.66,2.88,4.3,3.12l5.21,0.76
					c1.63,0.24,2,1.37,0.82,2.53l-3.77,3.68c-1.18,1.15-1.92,3.42-1.64,5.05l0.89,5.19c0.28,1.63-0.69,2.33-2.15,1.56l-4.66-2.45
					c-1.46-0.77-3.85-0.77-5.31,0l-4.66,2.45c-1.46,0.77-2.43,0.07-2.15-1.56l0.89-5.19c0.28-1.63-0.46-3.9-1.64-5.05l-3.77-3.68
					c-1.18-1.15-0.81-2.29,0.82-2.53l5.21-0.76c1.63-0.24,3.57-1.64,4.3-3.12L597.73,114.23z"/>
			</g>
		</g>
		<g>
			<path class="st10" d="M502.89,157.64c3.29-0.04,6.58-0.33,9.87-0.37c0.64-0.01,0.65-1.01,0-1c-3.29,0.04-6.58,0.33-9.87,0.37
				C502.24,156.65,502.24,157.65,502.89,157.64L502.89,157.64z"/>
		</g>
		<g>
			<path class="st10" d="M517.33,157.28c11.76-0.26,23.52,0.26,35.27,0.07c5.87-0.1,11.69-0.64,17.54-0.93
				c6.15-0.3,12.32-0.2,18.47-0.04c5.88,0.15,11.75,0.38,17.64,0.47c4.06,0.06,8.18,0.26,12.17-0.61c6.53-1.41,9.31-6.7,9.74-12.98
				c0.04-0.64-0.96-0.64-1,0c-0.24,3.49-1.05,6.91-3.64,9.41c-2.36,2.27-5.92,2.88-9.05,3.13c-4.66,0.37-9.44,0.05-14.11-0.07
				c-5.54-0.14-11.08-0.36-16.63-0.45c-11.07-0.19-22.04,0.96-33.09,1.11c-11.11,0.14-22.21-0.35-33.31-0.1
				C516.69,156.29,516.69,157.29,517.33,157.28L517.33,157.28z"/>
		</g>
	</g>
	<g>
		<path class="st14" d="M168.42,289.57c0,11.5-9.33,20.83-20.83,20.83H65.3c-11.5,0-20.83-9.33-20.83-20.83v-24.23
			c0-11.5,9.33-20.83,20.83-20.83h82.29c11.5,0,20.83,9.33,20.83,20.83V289.57z"/>
		<text transform="matrix(1 0 0 1 67.8623 286.8779)" class="st7 st15 st18">24/7</text>
		<g>
			<path class="st10" d="M115.9,306.81c14.26-3.49,30.16,3.52,43.15-5.26c0.53-0.36,0.03-1.23-0.5-0.86
				c-12.84,8.67-28.78,1.7-42.91,5.16C115.01,306,115.27,306.96,115.9,306.81L115.9,306.81z"/>
		</g>
		<g>
			<path class="st10" d="M163.77,269.88c0.22,2.15,0.11,4.3,0.41,6.45c0.34,2.49,0.71,4.89,0.68,7.4
				c-0.05,4.76-0.45,9.82-3.21,13.86c-0.37,0.53,0.5,1.03,0.86,0.5c2.43-3.54,3.04-7.81,3.28-12.01c0.12-2.17,0.17-4.39-0.13-6.55
				c-0.45-3.23-0.56-6.42-0.89-9.65C164.71,269.24,163.71,269.24,163.77,269.88L163.77,269.88z"/>
		</g>
	</g>
</g>
</svg>
