<?xml version="1.0" encoding="utf-8"?>
<!-- Generator: Adobe Illustrator 25.2.0, SVG Export Plug-In . SVG Version: 6.00 Build 0)  -->
<svg version="1.1" xmlns="http://www.w3.org/2000/svg" xmlns:xlink="http://www.w3.org/1999/xlink" x="0px" y="0px"
	 viewBox="0 0 3710 3710" style="enable-background:new 0 0 3710 3710;" xml:space="preserve">
<style type="text/css">
	.st0{display:none;}
	.st1{display:inline;}
	.st2{fill:#FFFFFF;}
	.st3{fill:#F4F7FA;}
	.st4{fill:url(#SVGID_1_);}
	.st5{opacity:0.5;clip-path:url(#SVGID_3_);}
	.st6{fill:#FCFDFE;}
	.st7{clip-path:url(#SVGID_5_);fill:url(#SVGID_6_);}
	.st8{opacity:0.5;clip-path:url(#SVGID_5_);}
	.st9{fill:#BEB8F2;}
	.st10{fill:url(#SVGID_7_);}
	.st11{opacity:0.5;clip-path:url(#SVGID_9_);}
	.st12{opacity:0.75;fill:#F4F7FA;}
	.st13{fill:url(#SVGID_10_);}
	.st14{fill:url(#SVGID_11_);}
	.st15{opacity:0.3;fill:url(#SVGID_12_);}
	.st16{fill:url(#SVGID_13_);}
	.st17{opacity:0.3;fill:url(#SVGID_14_);}
	.st18{fill:url(#SVGID_15_);}
	.st19{fill:url(#SVGID_16_);}
	.st20{fill:url(#SVGID_17_);}
	.st21{opacity:0.5;fill:#F4F7FA;}
	.st22{fill:url(#SVGID_18_);}
	.st23{fill:url(#SVGID_19_);}
	.st24{fill:url(#SVGID_20_);}
	.st25{opacity:0.3;fill:url(#SVGID_21_);}
	.st26{opacity:0.44;fill:#F4F7FA;}
	.st27{clip-path:url(#SVGID_23_);fill:url(#SVGID_24_);}
	.st28{opacity:0.3;clip-path:url(#SVGID_23_);fill:url(#SVGID_25_);}
	.st29{opacity:0.3;clip-path:url(#SVGID_23_);fill:url(#SVGID_26_);}
	.st30{clip-path:url(#SVGID_23_);}
	.st31{clip-path:url(#SVGID_23_);fill:#FFFFFF;}
	.st32{fill:#97A6B7;}
	.st33{fill:#E7EBEF;}
	.st34{fill:url(#SVGID_27_);}
	.st35{fill:url(#SVGID_28_);}
	.st36{fill:url(#SVGID_29_);}
	.st37{fill:url(#SVGID_30_);}
	.st38{fill:url(#SVGID_31_);}
	.st39{opacity:0.3;}
	.st40{fill:url(#SVGID_32_);}
	.st41{fill:url(#SVGID_33_);}
	.st42{fill:url(#SVGID_34_);}
	.st43{fill:url(#SVGID_35_);}
	.st44{fill:url(#SVGID_36_);}
	.st45{fill:url(#SVGID_37_);}
	.st46{fill:url(#SVGID_38_);}
	.st47{fill:url(#SVGID_39_);}
	.st48{fill:url(#SVGID_40_);}
	.st49{fill:url(#SVGID_41_);}
	.st50{opacity:0.3;fill:url(#SVGID_42_);}
	.st51{fill:#D8DEE8;}
	.st52{fill:url(#SVGID_43_);}
	.st53{fill:url(#SVGID_44_);}
	.st54{fill:url(#SVGID_45_);}
	.st55{fill:url(#SVGID_46_);}
	.st56{fill:url(#SVGID_47_);}
	.st57{opacity:0.3;fill:url(#SVGID_48_);}
	.st58{fill:url(#SVGID_49_);}
	.st59{fill:url(#SVGID_50_);}
	.st60{fill:url(#SVGID_51_);}
	.st61{fill:url(#SVGID_52_);}
	.st62{fill:url(#SVGID_53_);}
	.st63{fill:url(#SVGID_54_);}
	.st64{fill:url(#SVGID_55_);}
	.st65{fill:url(#SVGID_56_);}
	.st66{opacity:0.3;fill:url(#SVGID_57_);}
	.st67{fill:url(#SVGID_58_);}
	.st68{opacity:0.3;fill:url(#SVGID_59_);}
	.st69{fill:url(#SVGID_60_);}
	.st70{fill:url(#SVGID_61_);}
	.st71{fill:url(#SVGID_62_);}
	.st72{fill:url(#SVGID_63_);}
	.st73{fill:url(#SVGID_64_);}
	.st74{fill:url(#SVGID_65_);}
	.st75{fill:url(#SVGID_66_);}
</style>
<g id="Background" class="st0">
	<g class="st1">
		<g>
			<rect class="st2" width="3710" height="3710"/>
		</g>
	</g>
</g>
<g id="Illustration">
	<g>
		<path class="st3" d="M1124.99,617.64c-95.81,134.13,12.56,354.37-128.57,454.52c-137.38,97.49-303.16-66.42-432.54,17.38
			c-191.93,124.31-163.21,702.7,111.69,1064.76c82.67,108.89,152.25,151.64,181.98,274.12c63.84,262.98-171.86,416.54-128.68,546.73
			c97.22,293.14,1636.99,554.45,2265.09-316.84c293.35-406.93,342.82-998.47,89.31-1450.82
			C2625.17,390.11,1339.98,316.67,1124.99,617.64z"/>
		<g>
			<g>
				
					<linearGradient id="SVGID_1_" gradientUnits="userSpaceOnUse" x1="-1907.5209" y1="466.0331" x2="-1090.1454" y2="2613.7571" gradientTransform="matrix(-0.9526 -0.3041 -0.3041 0.9526 1198.1394 207.51)">
					<stop  offset="0" style="stop-color:#FF9085"/>
					<stop  offset="1" style="stop-color:#FB6FBB"/>
				</linearGradient>
				<path class="st4" d="M2027.33,2656.16c16.3,84.76-36.15,152.45-81.06,195.61c-7.69-1.86-12.68-0.84-20.9-0.88
					c-74.24-0.38-104.92-17.2-177.37-29.75c-15.59-2.7-58.26-25.43-75.07-35.93l-31-20.12c0,0-14.2-199.84,93.04-227.4
					s116.79-220.56,133.81-322.87c46.19-277.62,334.26-179.71,422.13-531.71c23.37-93.62,36.64-279.98,134.13-334.93
					c111.07-62.61,156.01,37.07,231.52-19.61c118.01-88.59,274.6-91.96,333.62,44.08c58.25,134.26-102.44,332.75-407.99,448.42
					c-209.8,107.81-223.71,152.25-237.45,265.46c-9.63,79.3,13.93,297.97-110.4,352.04
					C2110.02,2492.63,2008.7,2559.27,2027.33,2656.16z"/>
				<g>
					<defs>
						<path id="SVGID_2_" d="M1885.36,2902.7l-239.39-129.47c0,0-18.24-207.98,89-235.54c107.24-27.56,116.79-220.56,133.81-322.87
							c46.19-277.62,334.26-179.71,422.13-531.71c23.37-93.62,36.64-279.98,134.13-334.93c111.07-62.61,156.01,37.07,231.52-19.61
							c118.01-88.59,274.6-91.96,333.62,44.08c58.25,134.26-102.44,332.75-407.99,448.42c-209.8,107.81-223.71,152.25-237.45,265.46
							c-9.63,79.3,13.93,297.97-110.4,352.04c-124.33,54.07-225.65,120.7-207.02,217.6
							C2055.68,2803.6,1885.36,2902.7,1885.36,2902.7z"/>
					</defs>
					<clipPath id="SVGID_3_">
						<use xlink:href="#SVGID_2_"  style="overflow:visible;"/>
					</clipPath>
					<g class="st5">
						<path class="st6" d="M1784.34,2833.22l-5.03-1.94c11.56-30,23.58-60.11,35.74-89.5c90.05-217.58,197.15-418.89,318.33-598.32
							c102.68-152.04,216.89-290.54,339.44-411.66c98.56-97.4,203.03-184.14,310.51-257.8c75.56-51.78,151.81-96.62,226.64-133.26
							c13.04-6.39,26.73-12.19,39.98-17.8c17.64-7.48,35.89-15.21,52.73-24.39l2.58,4.74c-17.07,9.3-35.44,17.09-53.2,24.62
							c-13.18,5.58-26.8,11.36-39.71,17.68c-74.6,36.53-150.62,81.23-225.96,132.87c-107.21,73.48-211.43,160.01-309.77,257.19
							c-122.3,120.87-236.28,259.09-338.76,410.84c-120.98,179.13-227.91,380.11-317.82,597.36
							C1807.89,2773.19,1795.88,2803.26,1784.34,2833.22z"/>
						<path class="st6" d="M2333.62,1889.14l-4.19-3.4c146.05-179.73,155.69-576.47,155.77-580.45l5.4,0.11
							C2490.51,1309.4,2480.84,1707.97,2333.62,1889.14z"/>
						<path class="st6" d="M1969.14,2427.72l-4.55-2.89c84.96-133.76,386.03-178.45,389.06-178.89l0.77,5.34
							C2351.4,2251.71,2052.77,2296.05,1969.14,2427.72z"/>
						<path class="st6" d="M1927.49,2507.78l-4.99-2.04c39.15-95.74,41.38-247.23,6.28-426.55c-1.76-9.02-1.76-9.02-1.39-9.97
							l5.02,1.98l-2.51-0.99l2.69-0.02c0.05,0.61,0.71,4.02,1.49,7.96C1969.37,2258.49,1967.03,2411.07,1927.49,2507.78z"/>
						<path class="st6" d="M1806.2,2778.77l-4.2-3.38c71.49-88.71,240.47-88.72,242.17-88.71l-0.03,5.4
							C2042.47,2692.07,1876.06,2692.1,1806.2,2778.77z"/>
						<path class="st6" d="M1776.32,2831.66c1.89-91.85-22.54-187.25-74.67-291.64l4.83-2.41c52.53,105.2,77.14,201.42,75.24,294.16
							L1776.32,2831.66z"/>
						<path class="st6" d="M2723.79,1522.87l-3.99-3.63c86.77-95.4,155.82-215.74,178.5-255.28c5.49-9.57,7.44-12.94,8.32-13.99
							l4.14,3.46c-0.66,0.81-3.8,6.29-7.78,13.21C2880.23,1306.32,2810.96,1427.04,2723.79,1522.87z"/>
						<path class="st6" d="M2559.77,1657.12l-2.74-4.65c104.11-61.53,338.14-0.55,348.05,2.08l-1.38,5.22
							C2901.29,1659.13,2661.93,1596.74,2559.77,1657.12z"/>
					</g>
				</g>
			</g>
			<g>
				<defs>
					<path id="SVGID_4_" d="M1759.41,2930.33l213.2,129.96c0,0,106.8-84.9,101.6-193.94c-10.6-222.46,184.97-216.22,267.28-225.86
						c124.13-14.54,227.17-81.49,128.71-197.99s142.44-232.31,346.29-226.9c199.48,5.29,323.99-346.25-106.7-397.34
						c-257.21-30.51-355.68,201.89-433.3,307.42c-77.63,105.54-249,13.72-275.26,184.44c-22.43,145.83,17.94,286.75-101.06,323.87
						C1781.18,2671.12,1719.27,2756.33,1759.41,2930.33z"/>
				</defs>
				<clipPath id="SVGID_5_">
					<use xlink:href="#SVGID_4_"  style="overflow:visible;"/>
				</clipPath>
				
					<linearGradient id="SVGID_6_" gradientUnits="userSpaceOnUse" x1="6652.604" y1="441.0246" x2="6155.5415" y2="1853.7302" gradientTransform="matrix(0.8539 0.5205 -0.5205 0.8539 -2557.9978 -1919.8285)">
					<stop  offset="3.597120e-03" style="stop-color:#E38DDD"/>
					<stop  offset="1" style="stop-color:#9571F6"/>
				</linearGradient>
				<path class="st7" d="M1759.41,2930.33l213.2,129.96c0,0,106.8-84.9,101.6-193.94c-10.6-222.46,184.97-216.22,267.28-225.86
					c124.13-14.54,212.95-76.94,145.5-193.66c-76.32-132.07,125.66-236.64,329.5-231.23c199.48,5.29,323.99-346.25-106.7-397.34
					c-257.21-30.51-355.68,201.89-433.3,307.42c-77.63,105.54-249,13.72-275.26,184.44c-22.43,145.83,17.94,286.75-101.06,323.87
					C1781.18,2671.12,1719.27,2756.33,1759.41,2930.33z"/>
				<g class="st8">
					<path class="st9" d="M1839.62,3006.37l4.92,1.89c1.17-3.05,119.29-307.83,327.5-574.66
						c191.81-245.83,501.56-508.8,887.9-365.63l1.83-4.94c-171.98-63.74-343.33-53.68-509.3,29.89
						c-132.58,66.75-262,180.31-384.65,337.53C1959.16,2697.89,1840.79,3003.32,1839.62,3006.37z"/>
					<path class="st9" d="M2484.63,2130.82l4.81,2.17c72.11-159.94,257.47-336.58,259.33-338.35l-3.62-3.83
						C2743.27,1792.59,2557.16,1969.95,2484.63,2130.82z"/>
					<path class="st9" d="M2596.74,2078.18c209.06-2.04,323.01,129.55,324.13,130.88l4.02-3.41
						c-1.14-1.35-116.58-134.8-328.2-132.74L2596.74,2078.18z"/>
					<path class="st9" d="M2045.43,2615.46c179.68-181.53,500.02-57.64,503.04-56.17l2.61-4.58
						c-2.83-1.72-328.12-126.1-509.39,57.04L2045.43,2615.46z"/>
					<path class="st9" d="M2098.85,2524.69l4.97,1.77c54.72-153.52-35.93-337.37-36.85-339.21l-4.71,2.36
						C2063.17,2191.44,2152.81,2373.31,2098.85,2524.69z"/>
					<path class="st9" d="M1864.18,2960.71c56.84-78.64,214.63-72.15,216.21-72.08l0.25-5.26c-6.59-0.31-162.22-6.7-220.73,74.26
						L1864.18,2960.71z"/>
					<path class="st9" d="M1891.19,2888.16l4.9,1.95c28.34-71.29-25.42-202.72-43.08-245.91c-2.5-6.1-4.65-11.37-4.85-12.39
						l-5.19,0.94c0.26,1.43,1.68,4.94,5.16,13.44C1865.59,2688.89,1918.74,2818.84,1891.19,2888.16z"/>
				</g>
			</g>
			<g>
				<linearGradient id="SVGID_7_" gradientUnits="userSpaceOnUse" x1="2757.4773" y1="2159.7532" x2="1485.6257" y2="3988.0391">
					<stop  offset="0" style="stop-color:#FF9085"/>
					<stop  offset="1" style="stop-color:#FB6FBB"/>
				</linearGradient>
				<path class="st10" d="M2135.98,3127.7c-1.03,0.2-2.05,0.4-3.08,0.6c-60.93,11.58-129.56,13.47-206.22-0.48
					c-14.75-3.77-29.5-7.55-44.26-11.32c-4.68-38.03-2.32-75.03,45.94-78.78c74.95-5.82,103.45-129.26,93.64-177.23
					c-12.15-59.38-37.61-198.22,78.12-209.04c96.34-9.01,160.35,4.87,191.8-109.86c31.44-114.73,110.49-173.45,214.28-143.75
					c109.23,31.25,232.01-96.58,312.1-27.6c139.56,120.19-59.11,345.02-267.51,377.51c-208.4,32.49-113.06,125.68-128.44,221.81
					c-20.99,131.24-190.34,65.58-247.69,106.51C2155.23,3089.92,2143.25,3108.36,2135.98,3127.7z"/>
				<g>
					<defs>
						<path id="SVGID_8_" d="M2125.61,3200.29l-241.01-54.15c-6.37-37.27-10.16-104.24,43.75-108.43
							c74.95-5.82,103.45-129.26,93.64-177.23c-12.15-59.38-37.61-198.22,78.12-209.04c96.34-9.01,160.35,4.87,191.8-109.86
							c31.44-114.73,110.49-173.45,214.28-143.75c109.23,31.25,232.01-96.58,312.1-27.6c139.56,120.19-59.11,345.02-267.51,377.51
							c-208.4,32.49-113.06,125.68-128.44,221.81c-20.99,131.24-190.34,65.58-247.69,106.51
							C2129.7,3108.15,2124.5,3164.73,2125.61,3200.29z"/>
					</defs>
					<clipPath id="SVGID_9_">
						<use xlink:href="#SVGID_8_"  style="overflow:visible;"/>
					</clipPath>
					<g class="st11">
						<path class="st6" d="M2020.65,3136.88l-4.9-2.16c157.92-358.06,488.85-637.73,863.64-729.86l1.28,5.2
							C2507.46,2501.8,2177.92,2780.31,2020.65,3136.88z"/>
						<path class="st6" d="M2123.47,2949.04l-5.23-1.15c33.05-150.2-69.77-295.58-70.81-297.03l4.35-3.12
							C2052.84,2649.2,2157.05,2796.47,2123.47,2949.04z"/>
						<path class="st6" d="M2051.5,3071.8l-4.05-3.49c101.8-118.11,382.66-76.19,385.48-75.75l-0.82,5.29
							C2429.31,2997.42,2151.36,2955.94,2051.5,3071.8z"/>
						<path class="st6" d="M2380.74,2664.53l-4.34-3.13c72.46-100.25,37.66-286.7,37.3-288.57l5.26-1.01
							C2419.32,2373.71,2454.54,2562.44,2380.74,2664.53z"/>
						<path class="st6" d="M2586.31,2524.84l-1.76-5.06c133.13-46.27,306,33.52,307.73,34.33l-2.27,4.85
							C2888.3,2558.16,2717.36,2479.29,2586.31,2524.84z"/>
					</g>
				</g>
			</g>
		</g>
		<g>
			<path class="st12" d="M2548.78,1441.32c0-465.56-396.37-842.97-885.31-842.97c-488.94,0-885.31,377.41-885.31,842.97
				c0,282.54,145.99,532.6,370.06,685.55c95.06,64.89,152.71,171.84,152.71,286.93v64.51c0,140.16,113.63,253.79,253.79,253.79
				h217.5c140.16,0,253.79-113.62,253.79-253.79v-64.51c0-115.09,57.65-222.04,152.71-286.93
				C2402.79,1973.92,2548.78,1723.85,2548.78,1441.32z"/>
			<linearGradient id="SVGID_10_" gradientUnits="userSpaceOnUse" x1="1645.0353" y1="3255.4739" x2="1660.7584" y2="3129.688">
				<stop  offset="3.597000e-03" style="stop-color:#26264F"/>
				<stop  offset="1" style="stop-color:#444B8C"/>
			</linearGradient>
			<ellipse class="st13" cx="1663.48" cy="3107.95" rx="196.39" ry="103.97"/>
			<linearGradient id="SVGID_11_" gradientUnits="userSpaceOnUse" x1="1580.3696" y1="3140.8306" x2="1737.6023" y2="2857.8118">
				<stop  offset="3.597000e-03" style="stop-color:#26264F"/>
				<stop  offset="1" style="stop-color:#444B8C"/>
			</linearGradient>
			<path class="st14" d="M1402.55,2922.21v106.18c0,35.92,20.44,68.84,52.87,84.3c45.01,21.47,119.86,45.03,228.63,42.24
				c88.24-2.26,145.78-16.67,182.36-31.81c35.34-14.63,57.99-49.57,57.99-87.82v-58.75L1402.55,2922.21z"/>
			<linearGradient id="SVGID_12_" gradientUnits="userSpaceOnUse" x1="1402.5518" y1="3006.7085" x2="1924.4003" y2="3006.7085">
				<stop  offset="3.597000e-03" style="stop-color:#26264F"/>
				<stop  offset="1" style="stop-color:#444B8C"/>
			</linearGradient>
			<path class="st15" d="M1402.55,3015.21c7.95,7.73,17.16,14.29,27.51,19.22c50.5,24.08,381.29,77.9,461.08,47.91
				c10.36-3.89,19.68-9.1,27.85-15.38c3.49-10.03,5.41-20.7,5.41-31.67v-58.75l-521.85-54.34V3015.21z"/>
			<linearGradient id="SVGID_13_" gradientUnits="userSpaceOnUse" x1="1595.3368" y1="3063.4924" x2="1750.6044" y2="2764.7502">
				<stop  offset="3.597000e-03" style="stop-color:#26264F"/>
				<stop  offset="1" style="stop-color:#444B8C"/>
			</linearGradient>
			<path class="st16" d="M1425.72,2849.97c-29.39-3.06-54.97,19.99-54.97,49.54v3.01c0,40.3,22.93,77.23,59.31,94.57
				c50.5,24.08,381.29,77.9,461.08,47.91c40.17-15.09,65.06-49.58,65.06-92.49v-2.42c0-25.51-19.28-46.9-44.65-49.54
				L1425.72,2849.97z"/>
			<linearGradient id="SVGID_14_" gradientUnits="userSpaceOnUse" x1="1379.171" y1="2918.7568" x2="1947.5222" y2="2918.7568">
				<stop  offset="3.597000e-03" style="stop-color:#26264F"/>
				<stop  offset="1" style="stop-color:#444B8C"/>
			</linearGradient>
			<path class="st17" d="M1911.55,2900.56l-485.83-50.59c-19.17-2-36.66,7.15-46.55,21.93c9.76,23,27.53,42.23,50.89,53.37
				c50.5,24.08,395.37,84.91,461.08,53.95c25.58-12.05,45.63-32.4,56.38-57.13C1939.52,2910.35,1926.63,2902.13,1911.55,2900.56z"/>
			<linearGradient id="SVGID_15_" gradientUnits="userSpaceOnUse" x1="1370.7511" y1="2816.0654" x2="1956.201" y2="2816.0654">
				<stop  offset="3.597000e-03" style="stop-color:#26264F"/>
				<stop  offset="1" style="stop-color:#444B8C"/>
			</linearGradient>
			<path class="st18" d="M1406.71,2677.95c-19.86,0-35.96,16.1-35.96,35.96v83.16c0,40.3,22.93,77.23,59.31,94.57
				c50.5,24.08,395.37,84.91,461.08,53.95c38.82-18.29,65.06-55.61,65.06-98.52v-133.16c0-19.86-16.1-35.96-35.96-35.96H1406.71z"/>
			<linearGradient id="SVGID_16_" gradientUnits="userSpaceOnUse" x1="1648.9365" y1="2771.9053" x2="1706.5886" y2="2501.9897">
				<stop  offset="3.597000e-03" style="stop-color:#26264F"/>
				<stop  offset="1" style="stop-color:#444B8C"/>
			</linearGradient>
			<ellipse class="st19" cx="1663.48" cy="2703.83" rx="285.48" ry="67.5"/>
			<linearGradient id="SVGID_17_" gradientUnits="userSpaceOnUse" x1="1538.2217" y1="1265.8109" x2="2682.0271" y2="3081.7493">
				<stop  offset="0" style="stop-color:#FCB148"/>
				<stop  offset="0.0521" style="stop-color:#FDBA46"/>
				<stop  offset="0.1424" style="stop-color:#FFC244"/>
				<stop  offset="0.3183" style="stop-color:#FFC444"/>
				<stop  offset="0.4849" style="stop-color:#FDB946"/>
				<stop  offset="0.7754" style="stop-color:#F99C4D"/>
				<stop  offset="0.8658" style="stop-color:#F8924F"/>
				<stop  offset="1" style="stop-color:#F8924F"/>
			</linearGradient>
			<path class="st20" d="M2548.78,1441.32c0-465.56-396.37-842.97-885.31-842.97c-488.94,0-885.31,377.41-885.31,842.97
				c0,282.54,145.99,532.6,370.06,685.55c95.06,64.89,152.71,171.84,152.71,286.93v64.51c0,140.16,113.63,253.79,253.79,253.79
				h217.5c140.16,0,253.79-113.62,253.79-253.79v-64.51c0-115.09,57.65-222.04,152.71-286.93
				C2402.79,1973.92,2548.78,1723.85,2548.78,1441.32z"/>
			<ellipse class="st21" cx="1663.48" cy="2650.61" rx="208.9" ry="49.39"/>
			<g>
				<linearGradient id="SVGID_18_" gradientUnits="userSpaceOnUse" x1="1329.2627" y1="2664.062" x2="1562.4912" y2="1982.7216">
					<stop  offset="0.494" style="stop-color:#EBEFF2"/>
					<stop  offset="1" style="stop-color:#FFFFFF"/>
				</linearGradient>
				<path class="st22" d="M1609.04,2680.79c-5.98,0-11.18-4.44-11.96-10.53L1443.4,1475.15c-0.85-6.61,3.82-12.66,10.44-13.51
					c6.63-0.89,12.66,3.82,13.51,10.43l153.68,1195.11c0.85,6.61-3.82,12.66-10.44,13.51
					C1610.07,2680.76,1609.55,2680.79,1609.04,2680.79z"/>
				<linearGradient id="SVGID_19_" gradientUnits="userSpaceOnUse" x1="1552.2358" y1="2740.387" x2="1785.4645" y2="2059.0461">
					<stop  offset="0.494" style="stop-color:#EBEFF2"/>
					<stop  offset="1" style="stop-color:#FFFFFF"/>
				</linearGradient>
				<path class="st23" d="M1704.49,2680.79c-0.51,0-1.03-0.03-1.55-0.1c-6.61-0.85-11.28-6.9-10.44-13.51l153.68-1195.11
					c0.85-6.61,6.89-11.33,13.51-10.43c6.61,0.85,11.28,6.9,10.44,13.51l-153.68,1195.11
					C1715.67,2676.35,1710.47,2680.79,1704.49,2680.79z"/>
				<linearGradient id="SVGID_20_" gradientUnits="userSpaceOnUse" x1="1248.0461" y1="2636.2617" x2="1481.2748" y2="1954.9208">
					<stop  offset="0.494" style="stop-color:#EBEFF2"/>
					<stop  offset="1" style="stop-color:#FFFFFF"/>
				</linearGradient>
				<path class="st24" d="M1829.65,1474.18c-3.92,0-7.77-1.91-10.09-5.43l-42.41-64.34c-0.44-0.66-1.11-1.04-1.72-0.97
					c-1.05,0.02-1.5,0.77-1.64,1.01l-28,46.9c-4.64,7.77-12.78,12.54-21.76,12.77c-8.93,0.29-17.37-4.14-22.41-11.69l-38.45-57.65
					c-0.42-0.62-0.98-0.95-1.66-0.95c-0.82,0.15-1.2,0.29-1.61,0.88l-33.78,48.82c-4.88,7.06-12.88,11.28-21.4,11.29h-0.05
					c-8.52,0-16.53-4.2-21.44-11.24l-48.7-69.76c-0.44-0.63-1.06-0.85-1.72-0.91c-0.7,0.03-1.24,0.38-1.62,1.04l-44.45,76.73
					c-3.34,5.76-10.73,7.73-16.5,4.39c-5.77-3.34-7.74-10.73-4.39-16.5l44.45-76.73c4.52-7.8,12.56-12.68,21.5-13.06
					c8.87-0.45,17.37,3.82,22.53,11.22l48.69,69.76c0.42,0.6,0.98,0.91,1.65,0.91h0c0.65-0.01,1.19-0.3,1.6-0.88l33.78-48.82
					c4.94-7.14,13.08-11.39,21.67-11.29c8.65,0.08,16.7,4.45,21.54,11.71l38.45,57.64c0.43,0.65,1.08,1.19,1.72,0.95
					c1.05-0.02,1.49-0.77,1.63-1.01l28-46.9c4.66-7.8,12.82-12.57,21.84-12.77c8.92-0.2,17.41,4.22,22.41,11.82l42.41,64.34
					c3.67,5.56,2.13,13.05-3.44,16.72C1834.23,1473.54,1831.93,1474.18,1829.65,1474.18z"/>
			</g>
			<linearGradient id="SVGID_21_" gradientUnits="userSpaceOnUse" x1="1578.3602" y1="856.4827" x2="1350.3728" y2="2735.4106">
				<stop  offset="0" style="stop-color:#FCB148"/>
				<stop  offset="0.0521" style="stop-color:#FDBA46"/>
				<stop  offset="0.1424" style="stop-color:#FFC244"/>
				<stop  offset="0.3183" style="stop-color:#FFC444"/>
				<stop  offset="0.4849" style="stop-color:#FDB946"/>
				<stop  offset="0.7754" style="stop-color:#F99C4D"/>
				<stop  offset="0.8658" style="stop-color:#F8924F"/>
				<stop  offset="1" style="stop-color:#F8924F"/>
			</linearGradient>
			<path class="st25" d="M1679.54,2106.23c18.97-324.91,566.7-400.95,564.36-691.11c-1.45-178.71-219.1-311.43-265.58-338.01
				c-342.47-195.88-764.01,30.32-851.06-129.77c-21.68-39.86-11.51-83.25-5.72-107.96c8.75-37.34,28.55-72.13,57.93-103.94
				c-241.63,150.52-401.3,410.43-401.3,705.88c0,282.54,145.99,532.6,370.06,685.55c95.06,64.89,152.71,171.84,152.71,286.93v64.51
				c0,140.16,113.63,253.79,253.79,253.79h217.5c140.16,0,253.79-113.62,253.79-253.79v-51.58
				c-29.94,22.94-64.32,38.94-102.02,38.63C1793.18,2464.29,1670.1,2267.91,1679.54,2106.23z"/>
			<ellipse class="st26" cx="1677.64" cy="1474.18" rx="761.83" ry="734.7"/>
		</g>
		<g>
			<defs>
				<path id="SVGID_22_" d="M2548.79,1441.32c0-465.56-396.37-842.97-885.31-842.97c-138.46,0-269.48,30.29-386.18,84.25
					c-5.61,71.82,3.11,130.75,16.53,178.19c72.49,256.22,302.14,254.36,488.15,591.83c144.09,261.42,71.82,381.44,220.32,548.63
					c49.66,55.91,107.53,98.48,168.89,130.96c2.49-1.8,5-3.58,7.55-5.32C2402.79,1973.92,2548.79,1723.85,2548.79,1441.32z"/>
			</defs>
			<clipPath id="SVGID_23_">
				<use xlink:href="#SVGID_22_"  style="overflow:visible;"/>
			</clipPath>
			<linearGradient id="SVGID_24_" gradientUnits="userSpaceOnUse" x1="1385.8346" y1="2037.827" x2="2040.2661" y2="631.7681">
				<stop  offset="5.405410e-03" style="stop-color:#D8DEE8"/>
				<stop  offset="1" style="stop-color:#F4F7FA"/>
			</linearGradient>
			<path class="st27" d="M2548.78,1441.32c0-465.56-396.37-842.97-885.31-842.97c-488.94,0-885.31,377.41-885.31,842.97
				c0,282.54,145.99,532.6,370.06,685.55c95.06,64.89,152.71,171.84,152.71,286.93v64.51c0,140.16,113.63,253.79,253.79,253.79
				h217.5c140.16,0,253.79-113.62,253.79-253.79v-64.51c0-115.09,57.65-222.04,152.71-286.93
				C2402.79,1973.92,2548.78,1723.85,2548.78,1441.32z"/>
			
				<linearGradient id="SVGID_25_" gradientUnits="userSpaceOnUse" x1="-1907.5209" y1="466.0331" x2="-1090.1454" y2="2613.7571" gradientTransform="matrix(-0.9526 -0.3041 -0.3041 0.9526 1198.1394 207.51)">
				<stop  offset="0" style="stop-color:#FF9085"/>
				<stop  offset="1" style="stop-color:#FB6FBB"/>
			</linearGradient>
			<path class="st28" d="M2027.33,2656.16c16.3,84.76-36.15,152.45-81.06,195.61c-7.69-1.86-12.68-0.84-20.9-0.88
				c-74.24-0.38-104.92-17.2-177.37-29.75c-15.59-2.7-58.26-25.43-75.07-35.93l-31-20.12c0,0-14.2-199.84,93.04-227.4
				s116.79-220.56,133.81-322.87c46.19-277.62,334.26-179.71,422.13-531.71c23.37-93.62,36.64-279.98,134.13-334.93
				c111.07-62.61,156.01,37.07,231.52-19.61c118.01-88.59,274.6-91.96,333.62,44.08c58.25,134.26-102.44,332.75-407.99,448.42
				c-209.8,107.81-223.71,152.25-237.45,265.46c-9.63,79.3,13.93,297.97-110.4,352.04
				C2110.02,2492.63,2008.7,2559.27,2027.33,2656.16z"/>
			<linearGradient id="SVGID_26_" gradientUnits="userSpaceOnUse" x1="1194.4611" y1="1407.3577" x2="2306.916" y2="1407.3577">
				<stop  offset="0" style="stop-color:#FCB148"/>
				<stop  offset="0.0521" style="stop-color:#FDBA46"/>
				<stop  offset="0.1424" style="stop-color:#FFC244"/>
				<stop  offset="0.3183" style="stop-color:#FFC444"/>
				<stop  offset="0.4849" style="stop-color:#FDB946"/>
				<stop  offset="0.7754" style="stop-color:#F99C4D"/>
				<stop  offset="0.8658" style="stop-color:#F8924F"/>
				<stop  offset="1" style="stop-color:#F8924F"/>
			</linearGradient>
			<path class="st29" d="M1277.29,682.59c84.33-1.12,200.28,11.86,282.92,90.35c103.29,98.1,55.92,204.9,126.72,348.47
				c119.11,241.55,359.18,154.25,524.15,403.19c150.03,226.41,94.31,514.19,31.68,558.71c-5.62,3.99-71.58,48.88-71.58,48.88l0,0
				l-976.71-420.39L1277.29,682.59z"/>
			<g class="st30">
				<path class="st2" d="M1663.48,2252.88c-227.42,0-441.23-84.37-602.06-237.55c-160.87-153.23-249.46-356.98-249.46-573.7
					s88.6-420.47,249.46-573.7c160.82-153.19,374.64-237.55,602.06-237.55c227.42,0,441.23,84.37,602.06,237.55
					c160.87,153.23,249.46,356.98,249.46,573.7s-88.59,420.47-249.46,573.7C2104.71,2168.52,1890.89,2252.88,1663.48,2252.88z
					 M1663.48,637.24c-225.65,0-437.78,83.69-597.32,235.66c-159.5,151.92-247.33,353.9-247.33,568.73s87.84,416.81,247.33,568.73
					c159.54,151.97,371.67,235.66,597.32,235.66c225.64,0,437.78-83.69,597.32-235.66c159.5-151.92,247.33-353.9,247.33-568.73
					s-87.84-416.81-247.33-568.73C2101.25,720.93,1889.12,637.24,1663.48,637.24z"/>
				<path class="st2" d="M1663.48,2252.88c-166.9,0-323.74-84.5-441.65-237.95c-117.7-153.17-182.52-356.78-182.52-573.31
					s64.82-420.14,182.52-573.31c117.91-153.44,274.76-237.95,441.65-237.95c166.9,0,323.74,84.5,441.65,237.95
					c117.7,153.17,182.52,356.78,182.52,573.31s-64.82,420.14-182.52,573.31C1987.22,2168.38,1830.37,2252.88,1663.48,2252.88z
					 M1663.48,637.24c-340.38,0-617.3,360.85-617.3,804.39s276.92,804.39,617.3,804.39s617.3-360.85,617.3-804.39
					S2003.86,637.24,1663.48,637.24z"/>
				<path class="st2" d="M1663.48,2252.88c-84.43,0-163.5-84.81-222.67-238.81c-58.77-152.96-91.13-356.26-91.13-572.45
					s32.37-419.49,91.13-572.45c59.17-154,138.25-238.81,222.67-238.81c84.42,0,163.5,84.81,222.67,238.81
					c58.77,152.96,91.13,356.26,91.13,572.45s-32.37,419.49-91.13,572.45C1826.98,2168.07,1747.9,2252.88,1663.48,2252.88z
					 M1663.48,637.24c-169.24,0-306.94,360.85-306.94,804.39s137.69,804.39,306.94,804.39c169.24,0,306.93-360.85,306.93-804.39
					S1832.72,637.24,1663.48,637.24z"/>
				<rect x="1660.04" y="633.8" class="st2" width="6.87" height="1615.65"/>
				<path class="st2" d="M1663.48,1535.86c-226.63,0-439.7-7.47-599.98-21.02c-78.02-6.6-139.29-14.29-182.13-22.85
					c-62.21-12.44-69.41-23.81-69.41-31.29s7.2-18.85,69.41-31.29c42.84-8.57,104.12-16.26,182.13-22.85
					c160.27-13.56,373.35-21.02,599.98-21.02c226.62,0,439.7,7.47,599.98,21.02c78.01,6.6,139.29,14.29,182.13,22.85
					c62.21,12.44,69.41,23.82,69.41,31.29s-7.2,18.85-69.41,31.29c-42.84,8.57-104.12,16.26-182.13,22.85
					C2103.17,1528.39,1890.1,1535.86,1663.48,1535.86z M1663.48,1392.4c-226.44,0-439.31,7.46-599.4,21
					c-233.43,19.74-245.25,42.87-245.25,47.3s11.82,27.55,245.25,47.3c160.09,13.54,372.96,21,599.4,21
					c226.44,0,439.31-7.46,599.4-21c233.43-19.74,245.25-42.86,245.25-47.3s-11.82-27.56-245.25-47.3
					C2102.78,1399.86,1889.92,1392.4,1663.48,1392.4z"/>
				<path class="st2" d="M1663.48,1230.06c-386.28,0-785.83-36.54-785.83-97.7c0-34.79,126.26-57.3,232.18-70.07
					c147.91-17.82,344.53-27.63,553.65-27.63s405.74,9.81,553.65,27.63c105.92,12.76,232.18,35.28,232.18,70.07
					C2449.3,1193.52,2049.75,1230.06,1663.48,1230.06z M1663.48,1041.53c-465.96,0-778.96,46.96-778.96,90.83
					c0,43.86,313,90.83,778.96,90.83c465.95,0,778.96-46.96,778.96-90.83C2442.43,1088.5,2129.43,1041.53,1663.48,1041.53z"/>
				<path class="st2" d="M1661.12,850.29c-229.52,0-466.92-28.64-466.92-76.57s237.4-76.57,466.92-76.57s466.92,28.64,466.92,76.57
					S1890.63,850.29,1661.12,850.29z M1661.12,704.02c-275.19,0-460.05,36.04-460.05,69.7s184.86,69.7,460.05,69.7
					s460.05-36.04,460.05-69.7S1936.31,704.02,1661.12,704.02z"/>
				<path class="st2" d="M1663.48,1842.54c-209.12,0-405.74-9.81-553.65-27.63c-105.92-12.76-232.18-35.28-232.18-70.07
					c0-34.79,126.26-57.3,232.18-70.07c147.91-17.82,344.53-27.63,553.65-27.63s405.74,9.81,553.65,27.63
					c105.92,12.76,232.18,35.28,232.18,70.07c0,34.79-126.26,57.3-232.18,70.07C2069.22,1832.73,1872.59,1842.54,1663.48,1842.54z
					 M1663.48,1654.02c-465.96,0-778.96,46.96-778.96,90.83c0,43.86,313,90.83,778.96,90.83c465.95,0,778.96-46.96,778.96-90.83
					C2442.43,1700.98,2129.43,1654.02,1663.48,1654.02z"/>
				<path class="st2" d="M1661.12,2180.05c-229.52,0-466.92-28.64-466.92-76.57c0-47.93,237.4-76.57,466.92-76.57
					s466.92,28.64,466.92,76.57C2128.03,2151.41,1890.63,2180.05,1661.12,2180.05z M1661.12,2033.79
					c-275.19,0-460.05,36.04-460.05,69.7s184.86,69.7,460.05,69.7s460.05-36.04,460.05-69.7S1936.31,2033.79,1661.12,2033.79z"/>
			</g>
			<circle class="st31" cx="2255" cy="1191.25" r="32.4"/>
			<circle class="st31" cx="1962.32" cy="1221.63" r="32.4"/>
			<circle class="st31" cx="2276.31" cy="1506.58" r="32.4"/>
			<circle class="st31" cx="1972.04" cy="1524.96" r="32.4"/>
			
				<ellipse transform="matrix(0.9239 -0.3827 0.3827 0.9239 -244.2097 1020.8569)" class="st31" cx="2443.99" cy="1124.29" rx="32.4" ry="32.4"/>
			<circle class="st31" cx="2508.79" cy="1461.53" r="32.4"/>
			<circle class="st31" cx="1663.48" cy="1225.81" r="32.4"/>
			<circle class="st31" cx="1663.48" cy="845.66" r="32.4"/>
			
				<ellipse transform="matrix(0.2298 -0.9732 0.9732 0.2298 625.9123 2464.9097)" class="st31" cx="1870.23" cy="837.02" rx="32.4" ry="32.4"/>
			<circle class="st31" cx="2046.2" cy="812.54" r="32.4"/>
			<circle class="st31" cx="2123.96" cy="767.83" r="32.4"/>
			<circle class="st31" cx="1663.48" cy="633.98" r="32.4"/>
			<circle class="st31" cx="1935.32" cy="1834.92" r="32.4"/>
			
				<ellipse transform="matrix(0.7071 -0.7071 0.7071 0.7071 -627.6092 2097.05)" class="st31" cx="2217.56" cy="1806.12" rx="32.4" ry="32.4"/>
			
				<ellipse transform="matrix(0.7071 -0.7071 0.7071 0.7071 -523.9235 2237.9319)" class="st31" cx="2439.46" cy="1751.4" rx="32.4" ry="32.4"/>
		</g>
		<g>
			<path class="st32" d="M2266.37,3193.78c-2.17,0-3.93-1.76-3.93-3.94V2163.6c0-2.17,1.76-3.94,3.93-3.94s3.93,1.76,3.93,3.94
				v1026.24C2270.3,3192.02,2268.54,3193.78,2266.37,3193.78z"/>
			<path class="st32" d="M2542.85,3129.32c-2.17,0-3.93-1.76-3.93-3.94v-987.66c0-2.17,1.76-3.94,3.93-3.94s3.93,1.76,3.93,3.94
				v987.66C2546.78,3127.55,2545.02,3129.32,2542.85,3129.32z"/>
			<path class="st32" d="M3182.06,3175.31c-1.61,0-3.12-0.99-3.7-2.59l-369.59-1018.38c-0.74-2.04,0.32-4.3,2.36-5.04
				c2.04-0.74,4.3,0.31,5.04,2.36l369.59,1018.38c0.74,2.04-0.32,4.3-2.36,5.04C3182.96,3175.23,3182.51,3175.31,3182.06,3175.31z"
				/>
			<path class="st32" d="M2909.22,3255c-1.68,0-3.24-1.09-3.76-2.77l-331.71-1073.7c-0.64-2.08,0.52-4.28,2.6-4.92
				c2.08-0.64,4.28,0.52,4.92,2.6l331.71,1073.7c0.64,2.08-0.52,4.28-2.6,4.92C2909.99,3254.94,2909.6,3255,2909.22,3255z"/>
			<polygon class="st32" points="2539.81,2136.7 2262.45,2157.23 2262.45,2163.46 2579.43,2177.67 2816.34,2148.64 2816.34,2142.41 
							"/>
			<polygon class="st33" points="2539.81,2130.46 2262.45,2157.23 2579.43,2171.44 2816.34,2142.41 			"/>
			<path class="st32" d="M2837.45,3022.72c-1.74,0-3.34-1.17-3.8-2.94c-0.55-2.1,0.7-4.25,2.81-4.81l264.08-69.28
				c2.09-0.55,4.25,0.7,4.81,2.81c0.55,2.1-0.7,4.25-2.81,4.81l-264.08,69.28C2838.12,3022.67,2837.78,3022.72,2837.45,3022.72z"/>
			<path class="st32" d="M2762.64,2779.67c-1.88,0-3.54-1.34-3.87-3.25c-0.38-2.14,1.05-4.18,3.19-4.56l259.18-45.89
				c2.16-0.37,4.19,1.05,4.56,3.19c0.38,2.14-1.05,4.18-3.19,4.56l-259.18,45.89C2763.1,2779.65,2762.87,2779.67,2762.64,2779.67z"
				/>
			<path class="st32" d="M2684.87,2528.81c-1.95,0-3.64-1.45-3.9-3.43c-0.28-2.16,1.24-4.13,3.4-4.41l250.83-32.33
				c2.23-0.3,4.13,1.25,4.41,3.4c0.28,2.16-1.24,4.13-3.4,4.41l-250.83,32.33C2685.2,2528.8,2685.03,2528.81,2684.87,2528.81z"/>
			<path class="st32" d="M2635.03,2354.72c-1.91,0-3.58-1.39-3.88-3.33c-0.34-2.15,1.13-4.16,3.28-4.5l235.83-36.9
				c2.15-0.34,4.16,1.14,4.49,3.28c0.34,2.15-1.13,4.16-3.28,4.5l-235.83,36.9C2635.43,2354.7,2635.23,2354.72,2635.03,2354.72z"/>
		</g>
		<g>
			<g>
				
					<linearGradient id="SVGID_27_" gradientUnits="userSpaceOnUse" x1="370.1411" y1="3208.7583" x2="408.5514" y2="3208.7583" gradientTransform="matrix(0.9858 -0.168 0.168 0.9858 2.0423 -81.8595)">
					<stop  offset="3.597000e-03" style="stop-color:#F36F56"/>
					<stop  offset="1" style="stop-color:#FFC444"/>
				</linearGradient>
				<path class="st34" d="M911.96,2993.19l-2.78,44.64c0,0,6.34,6.71,18.53,2.04l13.31-43.83L911.96,2993.19z"/>
				
					<linearGradient id="SVGID_28_" gradientUnits="userSpaceOnUse" x1="444.3719" y1="3050.4956" x2="343.6518" y2="3403.8706" gradientTransform="matrix(0.9858 -0.168 0.168 0.9858 2.0423 -81.8595)">
					<stop  offset="0" style="stop-color:#444B8C"/>
					<stop  offset="0.9964" style="stop-color:#26264F"/>
				</linearGradient>
				<path class="st35" d="M917.56,3026.01c0,0-21.86,8.92-17.61,18.59c2.28,5.19,10.17,16.92,16.98,26.66
					c6.31,9.02,17.7,13.01,28.24,9.85c3.54-1.06,7.16-2.1,10.36-2.92c6.63-1.71,7.01-10.97,0.56-13.25
					c-3.13-1.1-6.23-1.99-8.93-2.41c-8-1.23-19.02-20.14-20.31-27.71C925.56,3027.24,917.56,3026.01,917.56,3026.01z"/>
				
					<linearGradient id="SVGID_29_" gradientUnits="userSpaceOnUse" x1="1025.5283" y1="2688.5161" x2="699.8227" y2="2956.0603" gradientTransform="matrix(1 -2.000000e-04 2.000000e-04 1 0.866 -0.7051)">
					<stop  offset="0" style="stop-color:#AB316D"/>
					<stop  offset="1" style="stop-color:#792D3D"/>
				</linearGradient>
				<path class="st36" d="M864.93,2564.8c32.2,11.11,151.28,56.09,177.82,159.32c1.42,5.51,5.05,20.84,5.22,45.87
					c0.7,104.2-59.87,192.4-103.93,243.71c-13.89-0.23-27.79-0.46-41.68-0.69c-6.94-26.59-13.32-66.37-3.35-111.13
					c15.23-68.41,54.76-86.16,47.13-119.73c-13.86-60.97-155.43-51.72-168.78-106.31C772.53,2656.12,783.11,2622.65,864.93,2564.8z"
					/>
				
					<linearGradient id="SVGID_30_" gradientUnits="userSpaceOnUse" x1="873.2875" y1="2670.9102" x2="784.1549" y2="2983.6304" gradientTransform="matrix(0.9956 0.0935 -0.0935 0.9956 20.8041 68.2337)">
					<stop  offset="0" style="stop-color:#444B8C"/>
					<stop  offset="0.9964" style="stop-color:#26264F"/>
				</linearGradient>
				<path class="st37" d="M466.79,3188.71l60.46-1.42c3.73-0.09,5.32-4.73,2.47-7.13c-2.81-2.36-6.7-4.3-11.67-3.78
					c-11.49,1.2-37.29-14.88-49-11.43c-3.82,1.13-6.93,10.12-8.52,12.61C457.41,3182.45,460.99,3188.85,466.79,3188.71z"/>
				
					<linearGradient id="SVGID_31_" gradientUnits="userSpaceOnUse" x1="735.8484" y1="3030.3872" x2="781.1686" y2="3030.3872" gradientTransform="matrix(0.9956 0.0935 -0.0935 0.9956 20.8041 68.2337)">
					<stop  offset="3.597000e-03" style="stop-color:#F36F56"/>
					<stop  offset="1" style="stop-color:#FFC444"/>
				</linearGradient>
				<path class="st38" d="M493.94,3142.26l-24.89,22.7c0,0,8.69,6.49,21.37,3.71l25.44-17.52L493.94,3142.26z"/>
				<g class="st39">
					
						<linearGradient id="SVGID_32_" gradientUnits="userSpaceOnUse" x1="654.0844" y1="3152.7595" x2="280.2176" y2="2951.3149" gradientTransform="matrix(0.9858 -0.168 0.168 0.9858 2.0423 -81.8595)">
						<stop  offset="0" style="stop-color:#AB316D"/>
						<stop  offset="1" style="stop-color:#792D3D"/>
					</linearGradient>
					<path class="st40" d="M971.79,2833.63c16.69-45.09,36.71-100.68,13.83-132.24c-23.15-31.94-73.85-4.97-124.72-30.7
						c-18.87-9.54-38.26-26.62-54.4-57.54c-28.55,29.49-32.43,49.27-29.15,62.69c13.35,54.59,154.93,45.34,168.78,106.31
						c7.63,33.57-31.9,51.32-47.13,119.73c-8.57,38.48-5.05,73.25,0.52,99.16c4.95-24.06,12.64-49.32,24.41-74.83
						C942.17,2886.67,954.21,2881.13,971.79,2833.63z"/>
				</g>
				
					<linearGradient id="SVGID_33_" gradientUnits="userSpaceOnUse" x1="-111.9333" y1="2937.1184" x2="-472.9312" y2="3312.0005" gradientTransform="matrix(0.9541 -0.2994 0.2994 0.9541 -13.4346 -149.0448)">
					<stop  offset="0" style="stop-color:#AB316D"/>
					<stop  offset="1" style="stop-color:#792D3D"/>
				</linearGradient>
				<path class="st41" d="M883.37,2551.77c-19.58,89.98-61.32,227.38-156.97,370.8c-70.81,106.18-148.61,181.84-209.63,232.39
					c-4.34,1.3-11.74,2.89-20.82,1.78c-6.74-0.83-12.09-2.86-15.69-4.58c4.2-25.37,13.06-62.84,34.08-103.31
					c38.46-74.07,72.73-71.69,111.36-137.06c28.29-47.87,37.48-98.71,55.86-200.4c14.2-78.52,14.2-97.29,33.65-119.81
					C754.56,2546.06,828.43,2545.53,883.37,2551.77z"/>
				<g class="st39">
					
						<linearGradient id="SVGID_34_" gradientUnits="userSpaceOnUse" x1="-139.0874" y1="2926.564" x2="-492.5891" y2="3293.6616" gradientTransform="matrix(0.9541 -0.2994 0.2994 0.9541 -13.4346 -149.0448)">
						<stop  offset="0" style="stop-color:#AB316D"/>
						<stop  offset="1" style="stop-color:#792D3D"/>
					</linearGradient>
					<path class="st42" d="M529.1,3065.6c13.73-21.67,38.09-44.25,86.14-88.78c49.66-46.02,47.75-37.7,57.53-51.3
						c43.76-60.88,20.05-125.92,30.85-204.42c6.03-43.8,25.36-101.03,81.65-165.15c-26.38,4.87-51.65,15.34-70.04,35.63
						c-22.58,24.92-20.91,49.32-33.65,119.81c-18.38,101.69-27.58,152.53-55.86,200.4c-38.63,65.37-72.9,63-111.36,137.06
						c-21.02,40.48-29.88,77.95-34.08,103.31c3.6,1.71,8.94,3.75,15.69,4.58c5.35,0.65,10.09,0.36,13.99-0.25
						C506.76,3105.04,522.14,3076.6,529.1,3065.6z"/>
				</g>
				
					<linearGradient id="SVGID_35_" gradientUnits="userSpaceOnUse" x1="901.8195" y1="2203.4429" x2="910.5435" y2="1828.3037" gradientTransform="matrix(1 -2.000000e-04 2.000000e-04 1 0.866 -0.7051)">
					<stop  offset="0" style="stop-color:#FF9085"/>
					<stop  offset="1" style="stop-color:#FB6FBB"/>
				</linearGradient>
				<path class="st43" d="M936.18,1967.08c0,0,16.12,119.87-110.18,204.42l134.42,32.04c0,0,43-80.45,11.84-213.69L936.18,1967.08z"
					/>
				
					<linearGradient id="SVGID_36_" gradientUnits="userSpaceOnUse" x1="-1263.9115" y1="1954.0446" x2="-1258.3434" y2="2035.0356" gradientTransform="matrix(-1 2.000000e-04 2.000000e-04 1 -318.1064 -0.4318)">
					<stop  offset="3.597000e-03" style="stop-color:#F36F56"/>
					<stop  offset="1" style="stop-color:#FFC444"/>
				</linearGradient>
				<path class="st44" d="M959.84,1989.85c0,0,7.24-17.88,6.07-25.93c-1.17-8.05-20.33-18.79-33.4-29.88
					c-13.06-11.09,0.49,11.16,3.53,16.22c3.04,5.06,13.7,12.65,12.17,29.86L959.84,1989.85z"/>
				
					<linearGradient id="SVGID_37_" gradientUnits="userSpaceOnUse" x1="-1172.4998" y1="2217.9795" x2="-1180.4432" y2="2122.6567" gradientTransform="matrix(-0.9986 0.0539 0.0539 0.9986 -503.7567 -56.1364)">
					<stop  offset="0" style="stop-color:#444B8C"/>
					<stop  offset="0.9964" style="stop-color:#26264F"/>
				</linearGradient>
				<path class="st45" d="M809.46,2081.13c6.6-13,9.32-12.93,10.94-19.79c3.69-15.64-5.85-35.5-13.94-35.77
					c-5.21-0.18-5.64,7.93-16.68,20.57c-13.52,15.48-21.73,13.45-29.68,26.89c-1.86,3.14-10.24,17.29-5.08,27.85
					c6.58,13.47,32.5,15.6,43.34,5.21C803.49,2101.15,801.33,2097.15,809.46,2081.13z"/>
				
					<linearGradient id="SVGID_38_" gradientUnits="userSpaceOnUse" x1="800.9949" y1="2007.7562" x2="827.1674" y2="2400.3403" gradientTransform="matrix(1 -2.000000e-04 2.000000e-04 1 0.866 -0.7051)">
					<stop  offset="3.597000e-03" style="stop-color:#F36F56"/>
					<stop  offset="1" style="stop-color:#FFC444"/>
				</linearGradient>
				<path class="st46" d="M790.03,2095.17c0,0,4.63,24.71,1.34,44.8c-2.98,18.16-36.61,37.03-43.05,42.44
					c-6.45,5.41,17.1,11.27,38.7,8.44c21.6-2.83,80.73-21.76,89.72-32.31c8.99-10.55-10.46-5.35-26.82-7.34
					c-16.36-1.99-31.98-29.41-32.46-43.4C816.97,2093.8,790.03,2095.17,790.03,2095.17z"/>
				<g>
					
						<linearGradient id="SVGID_39_" gradientUnits="userSpaceOnUse" x1="3577.5801" y1="2663.2822" x2="3652.4956" y2="2742.2473" gradientTransform="matrix(0.966 -0.2586 0.2586 0.966 -3410.5564 403.1299)">
						<stop  offset="3.597000e-03" style="stop-color:#F36F56"/>
						<stop  offset="1" style="stop-color:#FFC444"/>
					</linearGradient>
					<path class="st47" d="M797.07,2113.61c0,0,16.54,7.26,31.18-4.46c13.11-10.49-6.39-42.7-19.73-43.11
						c-4.45-0.14-10.94,3.05-14.78,7.72c-2.26,2.76-2.4,4.59-6.19,9.02c-3.49,4.09-5.03,4.45-5.56,6.44
						c-0.66,2.48,0.48,6.63,9.46,13.76c-4.47-0.82-8.33,0.36-9.82,2.96c-0.24,0.42-0.73,1.72-0.58,3.06
						C781.58,2113.86,787.93,2116.11,797.07,2113.61z"/>
				</g>
				
					<linearGradient id="SVGID_40_" gradientUnits="userSpaceOnUse" x1="-1489.7098" y1="2029.5845" x2="-1474.0179" y2="2079.697" gradientTransform="matrix(-1 2.000000e-04 2.000000e-04 1 -318.1064 -0.4318)">
					<stop  offset="3.597000e-03" style="stop-color:#F36F56"/>
					<stop  offset="1" style="stop-color:#FFC444"/>
				</linearGradient>
				<path class="st48" d="M1160.44,2027.6c0,0,10.01-1.4,6.89-20.52c-2.45-14.99-0.6-20.03,2.94-17.38
					c3.54,2.66,4.04,11.32,4.04,11.32s12.91-11.01,18.22-25.44c5.31-14.43,8.73-2.28,9.87,4.93c1.14,7.21-7.59,29.61-12.52,33.79
					c-4.93,4.18-12.14,22.58-12.14,22.58L1160.44,2027.6z"/>
				
					<linearGradient id="SVGID_41_" gradientUnits="userSpaceOnUse" x1="604.9137" y1="2726.9326" x2="1084.7393" y2="2026.0968" gradientTransform="matrix(1 -2.000000e-04 2.000000e-04 1 0.866 -0.7051)">
					<stop  offset="0" style="stop-color:#FF9085"/>
					<stop  offset="1" style="stop-color:#FB6FBB"/>
				</linearGradient>
				<path class="st49" d="M1187.12,2032.72c-11.39-7.98-22.79-15.95-34.18-23.93c-13.84,85.21-45.34,118.65-72.1,133.28
					c-64.55,35.3-122.18-27.57-245.74-1.89c-34.05,7.08-93.4,20.26-126.3,68.77c-8.65,12.75-11.72,22.41-26.07,113.88
					c-18.34,116.93-18.99,137.33-16.4,162.51c4.75,46.07,7.62,73.99,28.87,98.7c56.42,65.61,176.31,31.75,191.34,27.3
					c27.77-8.23,70.93-21.02,88.07-57.72c8.07-17.27,7.21-33.05-5.21-96.19c-24.59-125.07-27.73-133.16-20.87-146.86
					c23.13-46.23,96.45-19.79,158.38-62.79C1143.13,2222.65,1183.94,2167.88,1187.12,2032.72z"/>
				
					<linearGradient id="SVGID_42_" gradientUnits="userSpaceOnUse" x1="-1335.3328" y1="2190.115" x2="-1238.1455" y2="2696.2993" gradientTransform="matrix(-1 2.000000e-04 2.000000e-04 1 -318.1064 -0.4318)">
					<stop  offset="0" style="stop-color:#FF9085"/>
					<stop  offset="1" style="stop-color:#FB6FBB"/>
				</linearGradient>
				<path class="st50" d="M830.36,2594.65c12.08-24.8-4.17-47.64,13.65-77.45c22.71-37.99,63.58-25.1,78.96-53.16
					c26.29-48-77.24-114.92-56.22-191.33c10.04-36.48,45.1-62.9,74.4-72.9c65.04-22.22,107.59,34.39,168.57,16.67
					c14.45-4.2,31.04-12.9,47.81-30.94c-14.82,31.29-33.24,50.19-50.6,62.25c-61.93,42.99-135.25,16.56-158.38,62.79
					c-6.85,13.7-3.71,21.79,20.87,146.86c12.41,63.14,13.27,78.92,5.21,96.19c-17.14,36.7-60.3,49.49-88.07,57.72
					c-8.23,2.44-47.88,13.66-91.34,12.58C814.6,2616.04,825.03,2605.59,830.36,2594.65z"/>
			</g>
			<g>
				<path class="st51" d="M1362.3,1805.39c28.25,14.34,63.73,1.16,79.25-29.42c15.52-30.59,5.21-67-23.04-81.34
					c-1.46-0.74-2.96-1.37-4.45-1.96c5.24-16.92,9.2-33.98,11.85-51.04c1.62,0,3.24-0.03,4.89-0.18
					c32.22-2.88,57.79-32.49,57.11-66.15c-0.68-33.66-27.36-58.61-59.58-55.73c-1.68,0.15-3.34,0.42-4.98,0.71
					c-3.37-16.68-7.98-32.97-13.8-48.74c1.48-0.87,2.96-1.76,4.4-2.77c27.57-19.32,36.37-57.44,19.67-85.15
					c-16.7-27.71-52.59-34.51-80.15-15.19c-1.41,0.99-2.74,2.06-4.05,3.15c-10.89-12.04-22.84-23.19-35.76-33.37
					c0.91-1.49,1.8-3,2.6-4.58c15.52-30.59,35.81-64,7.34-77.89c-65.86-32.13-94.11-4.61-109.63,25.98c-0.8,1.58-1.5,3.19-2.16,4.81
					c-15.85-4.42-31.9-7.48-48.04-9.16c0.1-1.7,0.18-3.4,0.14-5.13c-0.68-33.65,9.3-51.87-23.05-52.49
					c-70.54-1.36-94.33,29.26-93.65,62.92c0.04,1.76,0.18,3.48,0.36,5.19c-16.16,4.61-32.04,10.5-47.49,17.63
					c-0.73-1.5-1.5-2.99-2.37-4.44c-16.7-27.71-52.59-34.51-80.15-15.18c-27.57,19.32-36.37,57.44-19.67,85.15
					c0.85,1.42,1.79,2.75,2.74,4.06c-12.21,12.21-23.64,25.47-34.2,39.7c-1.37-0.86-2.75-1.69-4.22-2.44
					c-28.25-14.34-63.73-1.16-79.25,29.42c-15.52,30.59-5.21,67,23.04,81.34c1.46,0.74,2.96,1.37,4.46,1.96
					c-5.24,16.92-9.2,33.98-11.85,51.04c-1.62,0.01-3.24,0.03-4.89,0.18c-32.23,2.88-57.8,32.5-57.11,66.15
					c0.68,33.66,27.36,58.61,59.58,55.73c1.68-0.15,3.34-0.42,4.98-0.71c3.37,16.68,7.98,32.97,13.81,48.74
					c-1.48,0.87-2.96,1.76-4.4,2.77c-27.57,19.32-36.37,57.44-19.67,85.15c16.7,27.71,71.98,40.57,99.55,21.25
					c1.41-0.99-16.65-8.12-15.34-9.21c10.89,12.04,22.84,23.19,35.76,33.37c-0.91,1.49-1.8,3-2.6,4.58
					c-15.52,30.59-5.21,67,23.04,81.34c28.25,14.34,63.73,1.16,79.25-29.42c0.8-1.58,1.5-3.19,2.16-4.81
					c15.85,4.42,31.9,7.48,48.04,9.16c-0.1,1.7-0.18,3.4-0.14,5.13c0.68,33.66,27.36,58.61,59.58,55.73
					c32.22-2.88,57.79-32.5,57.11-66.15c-0.04-1.76-0.18-3.48-0.36-5.19c16.16-4.61,32.04-10.5,47.49-17.63
					c0.73,1.5,1.5,2.99,2.37,4.44c16.7,27.71,52.59,34.51,80.15,15.19c27.57-19.32,36.37-57.44,19.67-85.15
					c-0.86-1.42-1.79-2.75-2.74-4.05c12.21-12.21,23.64-25.47,34.2-39.7C1359.45,1803.81,1360.84,1804.65,1362.3,1805.39z
					 M1010.21,1809.93c-102.56-52.05-140.01-184.27-83.66-295.32c56.36-111.05,185.18-158.88,287.74-106.83
					c102.56,52.05,140.01,184.27,83.66,295.32C1241.59,1814.14,1112.77,1861.97,1010.21,1809.93z"/>
				<path class="st51" d="M1430.8,1641.45c32.22-2.88,57.79-32.5,57.11-66.15c-0.68-33.66-27.36-58.61-59.58-55.73
					c-1.68,0.15-3.34,0.42-4.98,0.71c-3.37-16.68-7.98-32.97-13.8-48.74c1.48-0.87,2.96-1.76,4.4-2.77
					c27.57-19.32,61.67-66,42.21-91.84c-36.93-49.06-75.13-27.81-102.69-8.49c-1.41,0.99-2.74,2.06-4.05,3.14
					c-10.89-12.04-22.84-23.19-35.76-33.37c0.91-1.49,1.8-3,2.6-4.58c8.45-16.65,9.19-35,3.61-50.6
					c-26.62,46.87-52.88,93.94-78.67,141.27c81.82,59.93,107.89,178.07,56.77,278.8c-43.32,85.36-129.45,133.3-213.56,127.31
					c-3.75,9.73-7.43,19.51-11.45,29.15c-10.9,26.15-23.28,51.77-35.68,77.35c7.8,1.47,15.63,2.62,23.49,3.45
					c-0.1,1.7-0.18,3.41-0.14,5.13c0.68,33.66,21.12,62.25,79.52,59.14c32.31-1.72,37.85-35.91,37.17-69.56
					c-0.04-1.76-0.18-3.48-0.36-5.19c16.16-4.61,32.04-10.5,47.49-17.63c0.73,1.5,1.5,2.99,2.37,4.44
					c16.7,27.71,74.63,39.47,102.19,20.15c27.57-19.32,14.34-62.41-2.37-90.12c-0.86-1.42-1.79-2.75-2.74-4.06
					c12.21-12.21,23.64-25.47,34.2-39.7c1.37,0.86,2.75,1.69,4.22,2.44c28.25,14.34,63.73,1.16,79.25-29.42
					c15.52-30.58,5.21-67-23.04-81.34c-1.46-0.74-2.96-1.37-4.45-1.96c5.24-16.92,9.2-33.98,11.85-51.04
					C1427.53,1641.62,1429.15,1641.59,1430.8,1641.45z"/>
				<path class="st2" d="M1392.68,1808.84c28.25,14.34,63.73,1.16,79.25-29.42c15.52-30.59,5.21-67-23.04-81.34
					c-1.46-0.74-2.96-1.37-4.46-1.96c5.24-16.92,9.2-33.98,11.85-51.04c1.62,0,3.24-0.03,4.89-0.18
					c32.22-2.88,57.79-32.49,57.11-66.15c-0.68-33.66-27.36-58.61-59.58-55.73c-1.68,0.15-3.34,0.42-4.98,0.71
					c-3.37-16.68-7.98-32.97-13.81-48.74c1.48-0.87,2.96-1.76,4.4-2.77c27.57-19.32,36.37-57.44,19.67-85.15
					c-16.7-27.71-52.59-34.51-80.15-15.19c-1.41,0.99-2.74,2.06-4.05,3.14c-10.89-12.04-22.84-23.19-35.76-33.37
					c0.91-1.49,1.8-3,2.6-4.58c15.52-30.59,5.21-67-23.04-81.34c-28.25-14.34-63.73-1.16-79.25,29.42c-0.8,1.58-1.5,3.19-2.16,4.81
					c-15.85-4.42-31.9-7.48-48.04-9.16c0.1-1.7,0.18-3.4,0.14-5.13c-0.68-33.66-27.36-58.61-59.58-55.73
					c-32.22,2.88-57.79,32.5-57.11,66.15c0.04,1.76,0.18,3.48,0.36,5.19c-16.16,4.61-32.04,10.5-47.49,17.63
					c-0.73-1.5-1.5-2.99-2.37-4.44c-16.7-27.71-52.59-34.51-80.15-15.18c-27.57,19.32-36.37,57.44-19.67,85.15
					c0.86,1.42,1.79,2.75,2.74,4.06c-12.21,12.21-23.64,25.47-34.2,39.7c-1.37-0.86-2.75-1.69-4.22-2.44
					c-28.25-14.34-63.73-1.16-79.25,29.42c-15.52,30.59-5.21,67,23.04,81.34c1.46,0.74,2.96,1.37,4.46,1.96
					c-5.24,16.92-9.2,33.98-11.85,51.04c-1.62,0.01-3.24,0.03-4.89,0.18c-32.22,2.88-57.79,32.5-57.11,66.15
					c0.68,33.66,27.36,58.61,59.58,55.73c1.68-0.15,3.34-0.42,4.98-0.71c3.37,16.68,7.98,32.97,13.81,48.74
					c-1.48,0.87-2.96,1.76-4.4,2.77c-27.57,19.32-36.37,57.44-19.67,85.15c16.7,27.71,52.59,34.51,80.15,15.19
					c1.41-0.99,2.74-2.06,4.05-3.15c10.89,12.04,22.84,23.19,35.76,33.37c-0.91,1.49-1.8,3-2.6,4.58
					c-15.52,30.59-5.21,67,23.04,81.34c28.25,14.33,63.73,1.16,79.25-29.42c0.8-1.58,1.5-3.19,2.16-4.81
					c15.85,4.42,31.9,7.48,48.04,9.16c-0.1,1.7-0.18,3.4-0.14,5.13c0.68,33.65,27.36,58.61,59.58,55.73
					c32.22-2.88,57.79-32.5,57.11-66.15c-0.04-1.76-0.18-3.48-0.36-5.19c16.16-4.61,32.04-10.5,47.49-17.63
					c0.73,1.5,1.5,2.99,2.37,4.44c16.7,27.71,52.59,34.51,80.15,15.19c27.57-19.32,36.37-57.44,19.67-85.15
					c-0.86-1.42-1.79-2.75-2.75-4.06c12.21-12.21,23.64-25.47,34.2-39.7C1389.83,1807.26,1391.22,1808.1,1392.68,1808.84z
					 M1040.59,1813.37c-102.56-52.05-140.01-184.27-83.66-295.32c56.36-111.05,185.18-158.88,287.74-106.83
					c102.56,52.05,140.01,184.27,83.66,295.32C1271.97,1817.59,1143.15,1865.42,1040.59,1813.37z"/>
			</g>
		</g>
		<path class="st2" d="M1772.23,2735.53h-217.5c-141.84,0-257.22-115.39-257.22-257.22v-64.51c0-113.26-56.53-219.46-151.21-284.09
			c-112.5-76.79-205.91-178.93-270.13-295.36c-66.36-120.31-101.43-256.21-101.43-393.03c0-226.11,92.47-438.69,260.37-598.56
			c167.85-159.83,391.02-247.85,628.38-247.85c237.36,0,460.52,88.02,628.38,247.85c167.9,159.87,260.37,372.44,260.37,598.56
			c0,136.82-35.07,272.72-101.43,393.03c-64.22,116.43-157.63,218.57-270.13,295.36c-94.68,64.63-151.21,170.83-151.21,284.09v64.51
			C2029.45,2620.14,1914.06,2735.53,1772.23,2735.53z M1663.48,601.78c-235.59,0-457.07,87.35-623.64,245.95
			C873.31,1006.29,781.6,1217.1,781.6,1441.32c0,135.66,34.78,270.42,100.58,389.71c63.7,115.5,156.37,216.81,267.98,293
			c96.56,65.91,154.21,174.24,154.21,289.77v64.51c0,138.04,112.31,250.35,250.36,250.35h217.5
			c138.04,0,250.36-112.31,250.36-250.35v-64.51c0-115.53,57.65-223.86,154.21-289.77c111.61-76.19,204.28-177.51,267.99-293
			c65.8-119.29,100.58-254.05,100.58-389.71c0-224.22-91.71-435.02-258.23-593.58C2120.54,689.13,1899.07,601.78,1663.48,601.78z"/>
		<circle class="st2" cx="2067.36" cy="2242.69" r="33.81"/>
		<circle class="st2" cx="1807.9" cy="2438.58" r="25.76"/>
		<polygon class="st2" points="1804.64,2447.98 1800.47,2442.52 2066.04,2239.37 2067.01,2239.27 2453.11,2200.11 2453.8,2206.95 
			2068.67,2246.01 		"/>
		
			<ellipse transform="matrix(0.9239 -0.3827 0.3827 0.9239 -658.5435 1107.0378)" class="st2" cx="2453.46" cy="2208.88" rx="25.76" ry="25.76"/>
		<g>
			
				<linearGradient id="SVGID_43_" gradientUnits="userSpaceOnUse" x1="3003.2085" y1="2001.7498" x2="3020.762" y2="2225.1555" gradientTransform="matrix(1 0 0 1 -626.2627 0)">
				<stop  offset="3.597000e-03" style="stop-color:#26264F"/>
				<stop  offset="1" style="stop-color:#444B8C"/>
			</linearGradient>
			<path class="st52" d="M2408.7,2113.49c0,0-63,32.01-64.03,37.12c-1.03,5.11,40.51-1.71,57.47-0.98
				c16.96,0.74,30.91-4.87,29.38-12.9c-1.54-8.03-7.47-28.23-7.47-28.23L2408.7,2113.49z"/>
			
				<linearGradient id="SVGID_44_" gradientUnits="userSpaceOnUse" x1="3044.8992" y1="2126.4131" x2="3041.7166" y2="1895.6559" gradientTransform="matrix(1 0 0 1 -626.2627 0)">
				<stop  offset="0" style="stop-color:#893976"/>
				<stop  offset="1" style="stop-color:#311944"/>
			</linearGradient>
			<path class="st53" d="M2406.39,2087.51l3.83,31.71c0,0,9.97,3.97,16.67-0.72l2.86-34.78L2406.39,2087.51z"/>
			
				<linearGradient id="SVGID_45_" gradientUnits="userSpaceOnUse" x1="3298.8083" y1="1975.62" x2="3316.4077" y2="2199.613" gradientTransform="matrix(1 0 0 1 -626.2627 0)">
				<stop  offset="3.597000e-03" style="stop-color:#26264F"/>
				<stop  offset="1" style="stop-color:#444B8C"/>
			</linearGradient>
			<path class="st54" d="M2703.07,2088.27l7.33,13.15c2.05,3.68,2.66,8.11,1.68,12.3c-2.56,10.94-7.68,32.25-9.91,37.81
				c-3.04,7.57-43.81,12.07-43.81,12.07s-3.64-5.72,4.83-12.63c8.46-6.91,13.9-8,16.89-18.19c2.99-10.19,4.98-39.03,4.98-39.03
				L2703.07,2088.27z"/>
			
				<linearGradient id="SVGID_46_" gradientUnits="userSpaceOnUse" x1="3315.9502" y1="2122.2329" x2="3312.7678" y2="1891.5049" gradientTransform="matrix(1 0 0 1 -626.2627 0)">
				<stop  offset="0" style="stop-color:#893976"/>
				<stop  offset="1" style="stop-color:#311944"/>
			</linearGradient>
			<path class="st55" d="M2672.57,2054.85c2.68,2.38,15.77,46.82,15.77,46.82s4.24,6.06,12.29-2.88c8.05-8.94,3.64-4.01,3.64-4.01
				l-1.51-43.7L2672.57,2054.85z"/>
			<linearGradient id="SVGID_47_" gradientUnits="userSpaceOnUse" x1="2369.3452" y1="1752.7628" x2="2521.8728" y2="1752.7628">
				<stop  offset="0" style="stop-color:#AB316D"/>
				<stop  offset="1" style="stop-color:#792D3D"/>
			</linearGradient>
			<path class="st56" d="M2371.73,1450.38c-3.32,94.6-3.46,197.38,1.41,307.17c5.48,123.64,16.5,237.92,30.38,341.51
				c5.16,0.18,10.58,0.21,16.25,0.04c3.83-0.12,7.53-0.33,11.11-0.6c7.2-21.48,15.72-49.73,23.34-83.47
				c8.02-35.48,12.85-67.3,16.3-97.73c12.13-107.15-2.09-116.49,7.76-195.9c8.72-70.33,21.12-73.07,35.68-172.92
				c15.79-108.34,4.04-124.59-1.68-130.46C2487.93,1393.02,2430.76,1410.03,2371.73,1450.38z"/>
			<linearGradient id="SVGID_48_" gradientUnits="userSpaceOnUse" x1="2379.8914" y1="1752.7698" x2="2521.8721" y2="1752.7698">
				<stop  offset="0" style="stop-color:#AB316D"/>
				<stop  offset="1" style="stop-color:#792D3D"/>
			</linearGradient>
			<path class="st57" d="M2512.27,1418.01c-23.22-23.84-76.31-9.41-132.38,26.98c64.51,77.93,71.54,128.48,63.81,161.28
				c-8.74,37.07-35.31,47.75-35.21,88.28c0.13,49.81,40.33,63.01,39.48,115.72c-0.57,34.86-18.23,34.49-22.41,77.55
				c-4.94,50.94,18.15,68.49,10.67,106.18c-3.22,16.21-12.4,37.4-38.54,59.23c1.88,15.48,3.82,30.8,5.83,45.83
				c5.16,0.18,10.58,0.21,16.25,0.03c3.83-0.12,7.53-0.33,11.11-0.6c7.2-21.48,15.72-49.73,23.34-83.47
				c8.02-35.48,12.85-67.3,16.3-97.73c12.13-107.15-2.09-116.49,7.76-195.9c8.72-70.33,21.12-73.07,35.68-172.92
				C2529.75,1440.14,2517.99,1423.88,2512.27,1418.01z"/>
			<linearGradient id="SVGID_49_" gradientUnits="userSpaceOnUse" x1="2411.6892" y1="1735.9524" x2="2718.7441" y2="1735.9524">
				<stop  offset="0" style="stop-color:#AB316D"/>
				<stop  offset="1" style="stop-color:#792D3D"/>
			</linearGradient>
			<path class="st58" d="M2411.69,1448.79c55.55,90.87,115.46,203.96,169.04,339.33c40.49,102.3,69.86,198.35,91.42,283.95
				c2.92,1.51,9.8,4.52,18.59,3.22c11.99-1.77,19.18-10.33,21.06-12.72c8.78-61.36,7.81-113.33,4.83-150.84
				c-1.91-24.02-5.28-64.01-18.97-113.38c-15.33-55.3-25.88-58.41-45.88-116.92c-20.76-60.73-15.74-75.88-35.62-151.88
				c-8.17-31.22-21.84-77.68-44.41-133.25C2518.39,1413.8,2465.04,1431.29,2411.69,1448.79z"/>
			
				<linearGradient id="SVGID_50_" gradientUnits="userSpaceOnUse" x1="3270.4636" y1="1076.2643" x2="3532.7185" y2="1316.2938" gradientTransform="matrix(0.969 0.2471 -0.2471 0.969 -333.3113 -839.6736)">
				<stop  offset="3.597000e-03" style="stop-color:#26264F"/>
				<stop  offset="1" style="stop-color:#444B8C"/>
			</linearGradient>
			<path class="st59" d="M2344.92,1047.08c-44.27-48.23-68.05-50.04-75.51-85.12c-7.37-34.7,5.13-83.59,36.94-103.07
				c2.34-1.43,26.41-15.65,51.55-5.75c38.03,14.97,28.27,65.35,66.54,99.33c32.43,28.79,76.61,25.62,106.52,23.48
				c72-5.17,92.51-44.43,125.22-29c40.99,19.34,27.13,89.64,69,104.87c27.98,10.17,42.5-18.2,82.36-16.87
				c46.84,1.56,88.16,42.79,106.52,84.79c33.56,76.77-3.96,169.03-50.06,219.43c-37.87,41.41-107.07,82.5-150.49,58.79
				c-34.31-18.73-34.46-68.03-67.2-71.48c-23.28-2.45-30.31,21.73-60.04,27.51c-48.82,9.5-92.59-43.49-104.53-57.94
				c-34.03-41.2-22.39-59.03-60.7-134C2405.91,1132.44,2384.12,1089.79,2344.92,1047.08z"/>
			<linearGradient id="SVGID_51_" gradientUnits="userSpaceOnUse" x1="1903.0088" y1="876.5114" x2="1957.6296" y2="876.5114">
				<stop  offset="0" style="stop-color:#893976"/>
				<stop  offset="1" style="stop-color:#311944"/>
			</linearGradient>
			<path class="st60" d="M1957.63,898.16c0,0-10.36-14.5-16.94-25.28c-6.58-10.78-37.28-41.06-37.28-41.06s-2.34,4.8,4.27,12.49
				c6.61,7.69,20.52,20.86,17.32,26.44c-3.2,5.57-12.2,10.49-5.7,21.01c6.5,10.53,17.79,3.34,23.57,11.78
				c5.77,8.44,11.69,17.65,11.69,17.65L1957.63,898.16z"/>
			<linearGradient id="SVGID_52_" gradientUnits="userSpaceOnUse" x1="2161.2458" y1="1126.6846" x2="2404.5791" y2="1998.6294">
				<stop  offset="0" style="stop-color:#AA80F9"/>
				<stop  offset="0.9964" style="stop-color:#6165D7"/>
			</linearGradient>
			<path class="st61" d="M1961.68,888.69c-6.99,11.83-13.98,23.65-20.97,35.47c7.28,23.77,19.82,56.78,41.8,91.6
				c9.69,15.36,39.75,60.43,90.64,96.67c69.28,49.33,195.49,95.36,232.43,42.86c32.97-46.84-20.24-150.68-30.04-169.32
				c-19.83,10.4-52.42,24.19-94.31,27.45c-13.73,1.07-49.46,3.5-89.72-10.32C2016.99,977.52,1975.63,912.94,1961.68,888.69z"/>
			<linearGradient id="SVGID_53_" gradientUnits="userSpaceOnUse" x1="2444.9238" y1="1047.5186" x2="2688.2568" y2="1919.463">
				<stop  offset="0" style="stop-color:#AA80F9"/>
				<stop  offset="0.9964" style="stop-color:#6165D7"/>
			</linearGradient>
			<path class="st62" d="M2194.71,1047.19c3.49,17.52,57.97,8.12,69.22,39.92c6.03,17.06-6.78,27.9-7.31,56.88
				c-0.6,32.44,14.86,50.86,26.72,76.39c17.37,37.38,17.44,74.02,17.57,147.3c0.18,104.31-22.88,125.29-3.19,158.91
				c25.63,43.76,87.17,46.55,103.8,47.31c56.88,2.58,63.63-27.63,125.36-31.24c70.49-4.12,80.53,34.19,130.95,17.85
				c46.05-14.93,61.55-54.64,97.41-46.42c22.41,5.14,28.36,23.4,49.5,21.43c21.25-1.99,43.22-23.05,44.71-44.64
				c1.86-26.84-27.48-60.65-73.46-60.7c-18.27,7.17-48.56,15.48-82.24,6.25c-55.19-15.13-83.89-67.6-115.77-125.87
				c-22.06-40.31-62.59-114.41-63.08-211.57c-0.2-40.07,6.57-51.79-3.19-73.2c-31.71-69.54-154.76-59.17-165.18-58.16
				C2262.67,975.68,2190.5,1026.04,2194.71,1047.19z"/>
			<g>
				<linearGradient id="SVGID_54_" gradientUnits="userSpaceOnUse" x1="2303.3823" y1="1218.9561" x2="2207.8005" y2="1377.3864">
					<stop  offset="3.597000e-03" style="stop-color:#6165D7"/>
					<stop  offset="1" style="stop-color:#AA80F9"/>
				</linearGradient>
				<path class="st63" d="M2167.22,1134.71l154.55,6.74c1.7,0.07,3.18,1.29,3.76,3.08l72.81,225.82c1.04,3.24-2.23,11.34-5.29,10.97
					l-152.8-23.24c-1.55-0.19-2.88-1.33-3.44-2.96l-75.75-210.78C2159.98,1141.22,2164.23,1134.58,2167.22,1134.71z"/>
				<linearGradient id="SVGID_55_" gradientUnits="userSpaceOnUse" x1="2368.3684" y1="1213.2567" x2="2131.5679" y2="1339.2958">
					<stop  offset="0" style="stop-color:#FF9085"/>
					<stop  offset="1" style="stop-color:#FB6FBB"/>
				</linearGradient>
				<path class="st64" d="M2164.82,1140.24l154.55,6.74c1.7,0.07,3.18,1.29,3.76,3.08l72.8,225.82c1.04,3.24-1.31,6.58-4.37,6.21
					l-153.72-18.48c-1.55-0.19-2.88-1.33-3.45-2.96l-73.63-214.08C2159.69,1143.44,2161.83,1140.11,2164.82,1140.24z"/>
				<linearGradient id="SVGID_56_" gradientUnits="userSpaceOnUse" x1="2260.718" y1="1052.8586" x2="2232.6143" y2="1144.8345">
					<stop  offset="3.597000e-03" style="stop-color:#26264F"/>
					<stop  offset="1" style="stop-color:#444B8C"/>
				</linearGradient>
				<path class="st65" d="M2207.08,1148.65l-5.96-18c-0.54-1.62,0.54-3.35,2.09-3.35h56.26c0.97,0,1.83,0.7,2.12,1.74l5.66,19.91
					c0.46,1.64-0.66,3.29-2.19,3.24l-55.96-1.91C2208.2,1150.24,2207.4,1149.6,2207.08,1148.65z"/>
				<linearGradient id="SVGID_57_" gradientUnits="userSpaceOnUse" x1="2359.2122" y1="1198.0753" x2="2123.6104" y2="1323.4762">
					<stop  offset="0" style="stop-color:#FF9085"/>
					<stop  offset="1" style="stop-color:#FB6FBB"/>
				</linearGradient>
				<path class="st66" d="M2302.22,1327.43c-10.04-36.4,6.48-60.1-10.38-88.38c-23.85-40-75.09-23.07-91.02-55.35
					c-4.3-8.7-6.35-21.68-0.56-41.91l-35.44-1.54c-2.99-0.13-5.13,3.2-4.05,6.33l73.63,214.08c0.56,1.63,1.89,2.77,3.45,2.96
					l93.43,11.24C2314.63,1358.62,2306.3,1342.22,2302.22,1327.43z"/>
			</g>
			<linearGradient id="SVGID_58_" gradientUnits="userSpaceOnUse" x1="2328.8362" y1="1295.7086" x2="2415.0786" y2="1295.7086">
				<stop  offset="0" style="stop-color:#893976"/>
				<stop  offset="1" style="stop-color:#311944"/>
			</linearGradient>
			<path class="st67" d="M2415.08,1300.38c0,0-23.35-5.19-32.36-11.53c-9.01-6.34-18.56-16.53-31.84-15.97
				c-13.28,0.56-26.64,8.11-20.51,9.84c6.14,1.73,17.59,15.34,26.35,20.69c8.75,5.36,28.76,5.84,32.48,5.55
				c3.72-0.29,18.43,9.6,18.43,9.6L2415.08,1300.38z"/>
			<linearGradient id="SVGID_59_" gradientUnits="userSpaceOnUse" x1="2289.751" y1="1295.1046" x2="2849.5156" y2="1295.1046">
				<stop  offset="0" style="stop-color:#AA80F9"/>
				<stop  offset="0.9964" style="stop-color:#6165D7"/>
			</linearGradient>
			<path class="st68" d="M2775.98,1430.17c-18.27,7.17-48.56,15.48-82.24,6.25c-55.19-15.13-83.89-67.6-115.77-125.87
				c-22.06-40.31-62.59-114.41-63.08-211.57c-0.2-40.07,6.57-51.79-3.19-73.2c-1.55-3.41-3.39-6.57-5.35-9.6
				c-24.09,18.21-33.43,36.44-36.16,52.45c-6.64,38.97,24.69,70.84,8.38,104.45c-15.62,32.2-54.23,23.29-62.28,50.89
				c-8.68,29.77,34.05,47.73,35.93,93.74c2.26,55.21-57.11,82.25-46.71,119.18c9.02,32.01,58.71,29.7,58.69,46.87
				c-0.03,20.41,1.54-21.73-58.69-46.87c-18.25-7.62-104.15,55.78-114.59,44.65c-2.25,17.99-1.84,30.31,6.8,45.06
				c25.63,43.76,87.17,46.55,103.8,47.31c56.88,2.58,63.63-27.63,125.36-31.24c70.49-4.12,80.53,34.19,130.95,17.85
				c46.05-14.93,61.55-54.64,97.41-46.42c22.41,5.14,28.36,23.4,49.5,21.43c21.25-1.99,43.22-23.05,44.71-44.64
				C2851.29,1464.03,2821.95,1430.22,2775.98,1430.17z"/>
			<linearGradient id="SVGID_60_" gradientUnits="userSpaceOnUse" x1="2470.9763" y1="1040.2483" x2="2714.3098" y2="1912.194">
				<stop  offset="0" style="stop-color:#AA80F9"/>
				<stop  offset="0.9964" style="stop-color:#6165D7"/>
			</linearGradient>
			<path class="st69" d="M2414.48,1289.56c-7.19,14.29-14.37,28.57-21.56,42.85c11.08,6.07,129.52,68.73,215.38,6.7
				c10.62-7.67,38.83-28.05,54.03-67.97c16.76-44,7.36-84.9,1.26-111.47c-15.1-65.77-57.79-134.76-118.37-162.47
				c-23.14-10.59-50.61-15.94-76.45-20.98c-21.91-4.27-56.35-9.51-57.09-5.8c-0.36,1.81,7.64,4.12,13.2,7.64
				c34.13,21.59-9.2,110.74,30.91,153.5c38.43,40.96,88.3,34.19,96.34,71.31c3.74,17.26-4,32.78-7.44,39.7
				C2525.47,1281.15,2473.71,1298.42,2414.48,1289.56z"/>
			
				<linearGradient id="SVGID_61_" gradientUnits="userSpaceOnUse" x1="2761.9551" y1="1213.683" x2="2872.3191" y2="1053.4769" gradientTransform="matrix(0.9787 -0.2054 0.2054 0.9787 -614.8153 371.9818)">
				<stop  offset="0" style="stop-color:#893976"/>
				<stop  offset="1" style="stop-color:#311944"/>
			</linearGradient>
			<path class="st70" d="M2334.09,903.48c0,0,13.91,45.21,31.23,52.26c17.32,7.04,44.71,15.12,48.15,18.25
				c3.44,3.13-92.04,37.79-145.58,21.84l0,0c15.25-7.46,19.33-9.85,19.33-9.85c4.07-2.39,11.67-6.82,18.8-13.88
				c4.85-4.8,12.45-13.74,18.17-28.6l-5-25.67L2334.09,903.48z"/>
			
				<linearGradient id="SVGID_62_" gradientUnits="userSpaceOnUse" x1="2749.4341" y1="1135.0568" x2="2944.4888" y2="1017.6257" gradientTransform="matrix(0.9787 -0.2054 0.2054 0.9787 -614.8153 371.9818)">
				<stop  offset="0" style="stop-color:#893976"/>
				<stop  offset="1" style="stop-color:#311944"/>
			</linearGradient>
			<path class="st71" d="M2340.33,923.22c0,0-8.06,20.04-27.18,16.96c-17.12-2.75-16.25-50.9-4.62-59.1
				c3.88-2.73,11.75-3.77,17.59-1.38c4.11,1.68,16.34,12.88,13.61,29.28c3.77-2.24,7.53-1.89,8.83,0.12
				c1.66,2.56-1.03,7.2-1.63,8.25C2344.83,921,2341.77,922.6,2340.33,923.22z"/>
		</g>
		<g>
			
				<linearGradient id="SVGID_63_" gradientUnits="userSpaceOnUse" x1="2364.407" y1="2372.3508" x2="1622.5599" y2="5095.5864" gradientTransform="matrix(-1 0 0 1 4763.3062 0)">
				<stop  offset="0" style="stop-color:#444B8C"/>
				<stop  offset="0.9964" style="stop-color:#26264F"/>
			</linearGradient>
			<polygon class="st72" points="2425.41,2925.91 2651.69,2752.13 2613.51,2704.88 2387.63,2879.16 			"/>
			
				<linearGradient id="SVGID_64_" gradientUnits="userSpaceOnUse" x1="2324.6296" y1="2361.5154" x2="1582.7858" y2="5084.7393" gradientTransform="matrix(-1 0 0 1 4763.3062 0)">
				<stop  offset="0" style="stop-color:#444B8C"/>
				<stop  offset="0.9964" style="stop-color:#26264F"/>
			</linearGradient>
			<polygon class="st73" points="2493.33,3032.31 2743.08,2842.36 2673.89,2756.75 2424.94,2947.69 			"/>
			
				<linearGradient id="SVGID_65_" gradientUnits="userSpaceOnUse" x1="2245.7131" y1="2245.1526" x2="1382.6926" y2="5413.2021" gradientTransform="matrix(-1 0 0 1 4763.3062 0)">
				<stop  offset="0" style="stop-color:#444B8C"/>
				<stop  offset="0.9964" style="stop-color:#26264F"/>
			</linearGradient>
			<polygon class="st74" points="2584.01,3251.19 3024.84,3251.19 2929.12,3012.18 2752.02,2856.93 2503.07,3047.87 			"/>
			
				<linearGradient id="SVGID_66_" gradientUnits="userSpaceOnUse" x1="2431.6567" y1="2390.6699" x2="1689.8113" y2="5113.9004" gradientTransform="matrix(-1 0 0 1 4763.3062 0)">
				<stop  offset="0" style="stop-color:#444B8C"/>
				<stop  offset="0.9964" style="stop-color:#26264F"/>
			</linearGradient>
			<polygon class="st75" points="2063.2,2304.57 2051.5,2290.09 2063.02,2280.73 2385.3,2679.52 2406.16,2676.4 2413.98,2657.12 
				2091.27,2257.79 2102.83,2248.39 2114.56,2262.91 2619.13,2518.17 2622.66,2677.1 2504.13,2768.67 2475.33,2790.92 
				2358.42,2881.24 2205.06,2841.18 			"/>
		</g>
	</g>
</g>
</svg>
