<?xml version="1.0" encoding="utf-8"?>
<!-- Generator: Adobe Illustrator 25.2.0, SVG Export Plug-In . SVG Version: 6.00 Build 0)  -->
<svg version="1.1" xmlns="http://www.w3.org/2000/svg" xmlns:xlink="http://www.w3.org/1999/xlink" x="0px" y="0px"
	 viewBox="0 0 3710 3710" style="enable-background:new 0 0 3710 3710;" xml:space="preserve">
<style type="text/css">
	.st0{display:none;}
	.st1{fill:#F4F7FA;}
	.st2{fill:url(#SVGID_1_);}
	.st3{opacity:0.2;fill:url(#SVGID_2_);}
	.st4{fill:url(#SVGID_3_);}
	.st5{fill:url(#SVGID_4_);}
	.st6{fill:url(#SVGID_5_);}
	.st7{fill:url(#SVGID_6_);}
	.st8{fill:url(#SVGID_7_);}
	.st9{fill:url(#SVGID_8_);}
	.st10{fill:url(#SVGID_9_);}
	.st11{fill:url(#SVGID_10_);}
	.st12{opacity:0.6;fill:url(#SVGID_11_);}
	.st13{fill:url(#SVGID_12_);}
	.st14{fill:url(#SVGID_13_);}
	.st15{fill:url(#SVGID_14_);}
	.st16{fill:url(#SVGID_15_);}
	.st17{fill:url(#SVGID_16_);}
	.st18{fill:url(#SVGID_17_);}
	.st19{opacity:0.3;fill:url(#SVGID_18_);}
	.st20{fill:url(#SVGID_19_);}
	.st21{fill:url(#SVGID_20_);}
	.st22{fill:url(#SVGID_21_);}
	.st23{fill:url(#SVGID_22_);}
	.st24{fill:url(#SVGID_23_);}
	.st25{fill:url(#SVGID_24_);}
	.st26{opacity:0.3;fill:url(#SVGID_25_);}
	.st27{fill:#FFFFFF;}
	.st28{fill:url(#SVGID_26_);}
	.st29{fill:url(#SVGID_27_);}
	.st30{fill:url(#SVGID_28_);}
	.st31{fill:url(#SVGID_29_);}
	.st32{opacity:0.3;fill:url(#SVGID_30_);}
	.st33{fill:url(#SVGID_31_);}
	.st34{fill:url(#SVGID_32_);}
	.st35{fill:url(#SVGID_33_);}
	.st36{fill:url(#SVGID_34_);}
	.st37{fill:url(#SVGID_35_);}
	.st38{fill:url(#SVGID_36_);}
	.st39{fill:url(#SVGID_37_);}
	.st40{opacity:0.6;fill:url(#SVGID_38_);}
	.st41{fill:url(#SVGID_39_);}
	.st42{fill:url(#SVGID_40_);}
	.st43{fill:url(#SVGID_41_);}
	.st44{fill:url(#SVGID_42_);}
	.st45{opacity:0.3;fill:url(#SVGID_43_);}
	.st46{fill:url(#SVGID_44_);}
	.st47{fill:url(#SVGID_45_);}
	.st48{fill:url(#SVGID_46_);}
	.st49{fill:url(#SVGID_47_);}
	.st50{fill:url(#SVGID_48_);}
	.st51{fill:url(#SVGID_49_);}
	.st52{opacity:0.3;fill:url(#SVGID_50_);}
	.st53{fill:url(#SVGID_51_);}
	.st54{fill:url(#SVGID_52_);}
	.st55{fill:#97A6B7;}
	.st56{fill:#D8DEE8;}
	.st57{fill:url(#SVGID_53_);}
	.st58{opacity:0.5;fill:url(#SVGID_54_);}
	.st59{fill:url(#SVGID_55_);}
	.st60{fill:url(#SVGID_56_);}
	.st61{fill:url(#SVGID_57_);}
	.st62{fill:url(#SVGID_58_);}
	.st63{fill:url(#SVGID_59_);}
	.st64{fill:url(#SVGID_60_);}
	.st65{opacity:0.5;fill:url(#SVGID_61_);}
	.st66{fill:url(#SVGID_62_);}
	.st67{opacity:0.5;fill:url(#SVGID_63_);}
	.st68{fill:url(#SVGID_64_);}
	.st69{fill:url(#SVGID_65_);}
	.st70{fill:url(#SVGID_66_);}
	.st71{fill:url(#SVGID_67_);}
	.st72{fill:url(#SVGID_68_);}
	.st73{fill:url(#SVGID_69_);}
	.st74{fill:url(#SVGID_70_);}
	.st75{fill:url(#SVGID_71_);}
	.st76{fill:url(#SVGID_72_);}
	.st77{fill:url(#SVGID_73_);}
	.st78{fill:url(#SVGID_74_);}
	.st79{fill:url(#SVGID_75_);}
	.st80{fill:url(#SVGID_76_);}
	.st81{fill:url(#SVGID_77_);}
	.st82{fill:url(#SVGID_78_);}
	.st83{fill:url(#SVGID_79_);}
	.st84{fill:url(#SVGID_80_);}
	.st85{fill:url(#SVGID_81_);}
	.st86{fill:url(#SVGID_82_);}
</style>
<g id="Background" class="st0">
</g>
<g id="Illustration">
	<g>
		<path class="st1" d="M3172.13,1659.62c-75.26-492.64-383.84-1097.88-993.48-1161.22c0,0-462.86-56.3-919.15,29.03
			C988.7,578.07,751.25,728.83,600.99,945.5c-150.25,216.67-200.44,480.87-139.53,732.75c39.56,163.6,66.29,332.92,58.96,501.02
			c-12.77,292.57-5.42,565.67,278.51,740.15c253.52,155.79,572.58,293.2,876.97,317.27c206.86,16.36,438.84-10.11,638.22-63.97
			C3330.19,2898.25,3247.4,2152.26,3172.13,1659.62z"/>
		<g>
			<g>
				<linearGradient id="SVGID_1_" gradientUnits="userSpaceOnUse" x1="792.7966" y1="2567.5474" x2="1617.4889" y2="2969.0427">
					<stop  offset="0" style="stop-color:#FF9085"/>
					<stop  offset="1" style="stop-color:#FB6FBB"/>
				</linearGradient>
				<path class="st2" d="M1292.3,2919.93c32.36-22.49,101.02-77.21,131.57-170.91c48.43-148.52-21.61-325.31-158.7-408.28
					c-162.47-98.33-338.16-15.86-359.45-5.43c-121.55,59.57-172.37,164.97-200.75,223.81c-49.82,103.32-118.43,324.85-17.63,410.99
					c59,50.41,152.23,34.12,261.81,14.97c110.87-19.37,139.3-55.3,146.46-65.16c27.23-37.49,14.48-66.49,25.67-131.62
					c18.12-105.42,84.59-221.76,135.1-218.07c41.15,3.01,70.85,85.62,76.24,142.31c9.2,96.65-47.49,167.85-62.59,185.69
					C1277.47,2905.47,1284.89,2912.7,1292.3,2919.93z"/>
				<linearGradient id="SVGID_2_" gradientUnits="userSpaceOnUse" x1="649.3605" y1="2749.3999" x2="1097.6666" y2="2749.3999">
					<stop  offset="0" style="stop-color:#FF9085"/>
					<stop  offset="1" style="stop-color:#FB6FBB"/>
				</linearGradient>
				<path class="st3" d="M969.48,2766.65c-44.16-69.88,95.21-193.37,58.33-248.22c-26.03-38.7-127.67-25.15-196.68,10.85
					c-124.51,64.94-157.62,210.66-169.55,263.14c-9.94,43.72-13.02,85.09-12.05,122.8c8.27,21.42,20.56,40.14,37.82,54.89
					c59,50.41,152.23,34.12,261.81,14.97c110.87-19.37,139.3-55.3,146.46-65.16c0.71-0.98,1.38-1.95,2.04-2.92
					c-0.27-36.49-8.65-70.57-31.88-94.74C1031.25,2786.33,990.52,2799.94,969.48,2766.65z"/>
				<linearGradient id="SVGID_3_" gradientUnits="userSpaceOnUse" x1="750.2761" y1="2654.8857" x2="1574.9667" y2="3056.3804">
					<stop  offset="0" style="stop-color:#FF9085"/>
					<stop  offset="1" style="stop-color:#FB6FBB"/>
				</linearGradient>
				<path class="st4" d="M967.06,2928c0,0-234.95,18.57-187.47-155.49c47.47-174.05,207.27-306.57,207.27-306.57l-81.12-130.63
					c0,0-379.64,174.97-426.51,457.11c-46.87,282.13,461.66,184.14,461.66,184.14L967.06,2928z"/>
				<linearGradient id="SVGID_4_" gradientUnits="userSpaceOnUse" x1="1077.9934" y1="2946.6194" x2="1079.3499" y2="2946.6194">
					<stop  offset="0" style="stop-color:#FFC444"/>
					<stop  offset="0.9964" style="stop-color:#F36F56"/>
				</linearGradient>
				<path class="st5" d="M1087.89,2970.6c0,0-14.28-47.78-36.5-58.72c-22.22-10.94-84.33,16.12-84.33,16.12s-27.86,38.9-26.18,48.57
					c1.68,9.67,51.76,11.92,69.33-5.96c17.57-17.89,41.62-20.36,51.99-5C1072.57,2980.96,1087.89,2970.6,1087.89,2970.6z"/>
				<linearGradient id="SVGID_5_" gradientUnits="userSpaceOnUse" x1="1365.1097" y1="3040.5859" x2="1034.1483" y2="2831.7002">
					<stop  offset="0" style="stop-color:#311944"/>
					<stop  offset="1" style="stop-color:#A03976"/>
				</linearGradient>
				<polygon class="st6" points="961.4,2998.55 1067.16,3052.17 1482.38,2922.62 1481.27,2901.13 1350.55,2892.27 967.06,2972.22 
									"/>
				<linearGradient id="SVGID_6_" gradientUnits="userSpaceOnUse" x1="967.058" y1="2292.9565" x2="1181.2321" y2="2292.9565">
					<stop  offset="0" style="stop-color:#FFC444"/>
					<stop  offset="0.9964" style="stop-color:#F36F56"/>
				</linearGradient>
				<path class="st7" d="M1083.82,2215.7l-24.36,52.28c-5.04,10.82-14.48,18.96-25.92,22.37l-66.49,19.79
					c0,0,145.33,62.71,148.03,60c2.7-2.71,66.15-65.31,66.15-65.31l-21.74-7.9c-13.14-4.77-22.2-16.89-23.06-30.84l-2.5-40.19
					L1083.82,2215.7z"/>
				<g>
					<g>
						
							<linearGradient id="SVGID_7_" gradientUnits="userSpaceOnUse" x1="1698.2181" y1="2126.4751" x2="1677.21" y2="2156.4375" gradientTransform="matrix(0.9943 0.1063 -0.1063 0.9943 -246.6458 -99.2899)">
							<stop  offset="0" style="stop-color:#AA80F9"/>
							<stop  offset="0.9964" style="stop-color:#6165D7"/>
						</linearGradient>
						<path class="st8" d="M1192.4,2175.88l4.22,0.45c17.39,1.86,29.45,22.39,26.95,45.86l-0.14,1.32
							c-2.51,23.47-18.64,40.99-36.03,39.13l-4.22-0.45c-8.77-0.94-13.82-21.02-11.27-44.85
							C1174.45,2193.5,1183.63,2174.94,1192.4,2175.88z"/>
						
							<linearGradient id="SVGID_8_" gradientUnits="userSpaceOnUse" x1="1659.9989" y1="2173.9453" x2="1700.6935" y2="2090.2952" gradientTransform="matrix(0.9943 0.1063 -0.1063 0.9943 -246.6458 -99.2899)">
							<stop  offset="0" style="stop-color:#AA80F9"/>
							<stop  offset="0.9964" style="stop-color:#6165D7"/>
						</linearGradient>
						<path class="st9" d="M1161.99,2216.28c-2.79,26.09,5.12,48.32,18.07,49.71c12.96,1.39,26.07-18.6,28.85-44.69
							c2.79-26.09-5.8-48.39-18.76-49.78C1177.2,2170.13,1164.78,2190.19,1161.99,2216.28z"/>
						
							<linearGradient id="SVGID_9_" gradientUnits="userSpaceOnUse" x1="1689.7064" y1="2139.439" x2="1696.6133" y2="2135.1328" gradientTransform="matrix(0.9943 0.1063 -0.1063 0.9943 -246.6458 -99.2899)">
							<stop  offset="0" style="stop-color:#444B8C"/>
							<stop  offset="0.9964" style="stop-color:#3E4177"/>
						</linearGradient>
						<polygon class="st10" points="1180.74,2266.06 1175.8,2265.53 1185.89,2171.06 1190.84,2171.59 						"/>
						
							<linearGradient id="SVGID_10_" gradientUnits="userSpaceOnUse" x1="1696.0038" y1="2117.0222" x2="1674.8809" y2="2142.0483" gradientTransform="matrix(0.9943 0.1063 -0.1063 0.9943 -246.6458 -99.2899)">
							<stop  offset="0" style="stop-color:#AA80F9"/>
							<stop  offset="0.9964" style="stop-color:#6165D7"/>
						</linearGradient>
						<path class="st11" d="M1157.38,2215.79c-2.79,26.09,5.46,48.36,18.42,49.74c12.96,1.39,25.72-18.64,28.51-44.73
							c2.79-26.09-5.46-48.36-18.42-49.74C1172.93,2169.67,1160.17,2189.7,1157.38,2215.79z"/>
						
							<linearGradient id="SVGID_11_" gradientUnits="userSpaceOnUse" x1="1652.9946" y1="2152.7764" x2="1678.657" y2="2152.7764" gradientTransform="matrix(0.9943 0.1063 -0.1063 0.9943 -246.6458 -99.2899)">
							<stop  offset="3.597120e-03" style="stop-color:#6165D7"/>
							<stop  offset="1" style="stop-color:#AA80F9"/>
						</linearGradient>
						<path class="st12" d="M1168.09,2216.93c-1.52,14.18,2.97,26.29,10.01,27.05c7.05,0.75,13.99-10.14,15.5-24.32
							c1.52-14.18-2.97-26.29-10.01-27.05C1176.54,2191.86,1169.6,2202.75,1168.09,2216.93z"/>
					</g>
					
						<linearGradient id="SVGID_12_" gradientUnits="userSpaceOnUse" x1="-12353.041" y1="3126.5054" x2="-12351.3281" y2="3126.5054" gradientTransform="matrix(-0.9495 -0.3138 -0.3138 0.9495 8295.8398 1267.5063)">
						<stop  offset="0" style="stop-color:#311944"/>
						<stop  offset="1" style="stop-color:#A03976"/>
					</linearGradient>
					<path class="st13" d="M1182.98,2212.67c16.36-10.62,25.77-36.01,18.15-56.89c-6.55-17.96-23.61-26.23-33.82-31.18
						c-29.52-14.32-72.36-15.54-95.02,7.15c-13.41,13.43-7.66,53.29-7.02,60.32c0.73,7.95,5.44,12.28,8.79,19.3
						c4.64,9.73,11.86,25.15,23.48,50.8c3.32-5.14,7.83-11.36,13.79-17.71c2.3-2.45,11.42-11.96,22.6-18.55
						C1156.35,2212.65,1167.5,2222.71,1182.98,2212.67z"/>
					
						<linearGradient id="SVGID_13_" gradientUnits="userSpaceOnUse" x1="-5186.7637" y1="845.5199" x2="-5186.7637" y2="844.1636" gradientTransform="matrix(0.9669 0.2551 -0.2551 0.9669 6848.7139 842.1304)">
						<stop  offset="0" style="stop-color:#FFC444"/>
						<stop  offset="0.9964" style="stop-color:#F36F56"/>
					</linearGradient>
					<path class="st14" d="M1077.18,2236.78c0,0,9.21,39.34,50.1,51.26c36.72,10.71,68.66-65.91,51.29-90.82
						c-5.79-8.3-20.38-16.09-34.01-17.14c-8.05-0.62-11.55,1.47-24.67,0.21c-12.09-1.16-14.83-3.49-19.12-1.93
						c-5.36,1.95-11.3,9.3-12.03,34.7c-4.55-9.19-11.86-14.71-18.57-14.12c-1.07,0.1-4.07,0.85-6.29,2.82
						C1055.88,2208.9,1060.38,2223.31,1077.18,2236.78z"/>
					
						<linearGradient id="SVGID_14_" gradientUnits="userSpaceOnUse" x1="-12352.8555" y1="3172.3245" x2="-12351.1426" y2="3172.3245" gradientTransform="matrix(-0.9495 -0.3138 -0.3138 0.9495 8295.8398 1267.5063)">
						<stop  offset="0" style="stop-color:#311944"/>
						<stop  offset="1" style="stop-color:#A03976"/>
					</linearGradient>
					<path class="st15" d="M1100.73,2173.1c1.3,1.87-6.1,6.27-9.5,15.03c-6.6,16.98,4.3,44.13,22,52.46
						c10.47,4.93,15.6-0.35,34.15,4.24c11.5,2.85,20.29,7.55,25.69,10.88c-0.79,21.01-12.52,38-28.53,42.06
						c-17.21,4.36-33.15-7.82-39.81-12.91c-4.45-3.4-18.72-14.27-22.24-31.57c-3.66-18.02,7.91-23.93,1.33-37.59
						c-3.32-6.89-9.18-11.46-12.29-23.6c-0.84-3.3-1.21-6.08-1.39-7.93C1082.59,2177.92,1098.85,2170.39,1100.73,2173.1z"/>
					
						<linearGradient id="SVGID_15_" gradientUnits="userSpaceOnUse" x1="6477.2622" y1="-7.9943" x2="6477.2622" y2="-9.3507" gradientTransform="matrix(-0.9495 -0.3138 -0.3138 0.9495 8295.8398 1267.5063)">
						<stop  offset="0" style="stop-color:#FFC444"/>
						<stop  offset="1" style="stop-color:#F36F56"/>
					</linearGradient>
					<path class="st16" d="M1157.62,2258.04c0,0-9.11,1.15-22.27-4.41c-0.64-0.27-1.42-0.34-1.62-0.04
						c-0.73,1.13,5.99,9.77,14.66,10.46c6.16,0.49,12.3-3.12,11.99-4.72C1160.25,2258.66,1158.95,2258.28,1157.62,2258.04z"/>
					<g>
						
							<linearGradient id="SVGID_16_" gradientUnits="userSpaceOnUse" x1="1569.849" y1="1826.1053" x2="1609.304" y2="1745.0034" gradientTransform="matrix(1.0295 0.11 -0.1166 1.0914 -281.2317 40.1212)">
							<stop  offset="0" style="stop-color:#AA80F9"/>
							<stop  offset="0.9964" style="stop-color:#6165D7"/>
						</linearGradient>
						<path class="st17" d="M1084.02,2178.88l-5.37-0.63l1.9-16.59c3.27-28.61,25.64-49.92,50.94-48.51l27.07,1.51
							c14.16,0.79,26.91,7.92,35.91,20.08c9,12.16,13.02,27.68,11.3,43.7l-1.42,13.27l-5.37-0.57l1.42-13.27
							c1.53-14.34-2.06-28.23-10.12-39.11c-8.06-10.88-19.47-17.26-32.13-17.97l-27.07-1.51c-22.42-1.25-42.26,17.64-45.16,43.01
							L1084.02,2178.88z"/>
						<g>
							
								<linearGradient id="SVGID_17_" gradientUnits="userSpaceOnUse" x1="1596.5951" y1="1724.931" x2="1588.0934" y2="1753.1494" gradientTransform="matrix(1.0295 0.11 -0.1166 1.0914 -281.2317 40.1212)">
								<stop  offset="0" style="stop-color:#AA80F9"/>
								<stop  offset="0.9964" style="stop-color:#6165D7"/>
							</linearGradient>
							<path class="st18" d="M1193.41,2148.83c-2.18-0.23-4.25-1.47-5.63-3.62c-7.03-10.95-17.98-17.62-30.04-18.29l-27.08-1.51
								c-9.46-0.53-18.72,3.04-26.07,10.05c-3.48,3.31-8.59,2.87-11.42-0.98c-2.83-3.86-2.3-9.67,1.18-12.98
								c10.6-10.09,23.93-15.23,37.55-14.48l27.07,1.51c16.88,0.94,32.19,10.26,42.02,25.59c2.6,4.06,1.75,9.83-1.9,12.89
								C1197.38,2148.45,1195.35,2149.04,1193.41,2148.83z"/>
							
								<linearGradient id="SVGID_18_" gradientUnits="userSpaceOnUse" x1="1596.6353" y1="1724.7976" x2="1588.1125" y2="1753.0856" gradientTransform="matrix(1.0295 0.11 -0.1166 1.0914 -281.2317 40.1212)">
								<stop  offset="0" style="stop-color:#AA80F9"/>
								<stop  offset="0.9964" style="stop-color:#6165D7"/>
							</linearGradient>
							<path class="st19" d="M1184.04,2128.99c-19.11-8.67-18.57-14.7-28.87-16.27c-19.26-2.93-29.29,16.93-47.85,12.19
								c-4.35-1.11-7.92-3.26-10.69-5.46c-0.78,0.66-1.54,1.35-2.29,2.06c-3.48,3.31-4.01,9.12-1.18,12.98
								c2.83,3.85,7.94,4.29,11.42,0.98c7.36-7.01,16.62-10.58,26.07-10.05l27.08,1.51c12.06,0.67,23.01,7.34,30.04,18.29
								c1.38,2.15,3.45,3.38,5.63,3.62c1.94,0.21,3.97-0.38,5.69-1.82c3.31-2.78,4.32-7.78,2.54-11.71
								C1196.47,2133.91,1190.49,2131.91,1184.04,2128.99z"/>
						</g>
					</g>
					<g>
						<g>
							
								<linearGradient id="SVGID_19_" gradientUnits="userSpaceOnUse" x1="1539.9137" y1="2151.998" x2="1587.631" y2="2151.998" gradientTransform="matrix(0.9943 0.1063 -0.1063 0.9943 -246.6458 -99.2899)">
								<stop  offset="0" style="stop-color:#AA80F9"/>
								<stop  offset="0.9964" style="stop-color:#6165D7"/>
							</linearGradient>
							<path class="st20" d="M1103.18,2209.21c-2.82,26.37-15.72,46.62-28.83,45.22c-13.1-1.4-21.44-23.92-18.62-50.29
								c2.82-26.37,15.72-46.62,28.83-45.22C1097.66,2160.32,1106,2182.83,1103.18,2209.21z"/>
							
								<linearGradient id="SVGID_20_" gradientUnits="userSpaceOnUse" x1="1544.5211" y1="2160.4695" x2="1506.2206" y2="2182.7534" gradientTransform="matrix(0.9943 0.1063 -0.1063 0.9943 -246.6458 -99.2899)">
								<stop  offset="0" style="stop-color:#AA80F9"/>
								<stop  offset="0.9964" style="stop-color:#6165D7"/>
							</linearGradient>
							<path class="st21" d="M1098.51,2208.71c-2.82,26.37-15.72,46.62-28.83,45.22c-13.1-1.4-21.44-23.92-18.62-50.29
								c2.82-26.37,15.72-46.62,28.83-45.22C1093,2159.82,1101.33,2182.33,1098.51,2208.71z"/>
							
								<linearGradient id="SVGID_21_" gradientUnits="userSpaceOnUse" x1="1517.2991" y1="2151.9985" x2="1569.7621" y2="2151.9985" gradientTransform="matrix(0.9943 0.1063 -0.1063 0.9943 -246.6458 -99.2899)">
								<stop  offset="0" style="stop-color:#AA80F9"/>
								<stop  offset="0.9964" style="stop-color:#6165D7"/>
							</linearGradient>
							<path class="st22" d="M1074.01,2161.96l-4.27-0.46c-17.58-1.88-33.89,15.83-36.43,39.56l-0.14,1.33
								c-2.54,23.73,9.66,44.49,27.24,46.37l4.27,0.46c8.87,0.95,18.15-17.82,20.72-41.91
								C1087.99,2183.21,1082.88,2162.91,1074.01,2161.96z"/>
						</g>
						
							<linearGradient id="SVGID_22_" gradientUnits="userSpaceOnUse" x1="1517.2992" y1="2151.3259" x2="1548.8479" y2="2151.3259" gradientTransform="matrix(0.9943 0.1063 -0.1063 0.9943 -246.6458 -99.2899)">
							<stop  offset="0" style="stop-color:#AA80F9"/>
							<stop  offset="0.9964" style="stop-color:#6165D7"/>
						</linearGradient>
						<path class="st23" d="M1064.69,2204.42c-1.86,17.39-10.39,30.74-19.05,29.82c-8.66-0.93-14.18-15.78-12.32-33.17
							c1.86-17.39,10.39-30.74,19.05-29.82C1061.03,2172.17,1066.55,2187.02,1064.69,2204.42z"/>
					</g>
				</g>
			</g>
			<g>
				
					<linearGradient id="SVGID_23_" gradientUnits="userSpaceOnUse" x1="-146.2086" y1="2674.7539" x2="634.5834" y2="2674.7539" gradientTransform="matrix(-1 0 0 1 1755.9615 0)">
					<stop  offset="0" style="stop-color:#AA80F9"/>
					<stop  offset="0.9964" style="stop-color:#6165D7"/>
				</linearGradient>
				<path class="st24" d="M1121.38,3042.71l40.34-532.33c0.64-8.42,7.85-16.28,17.41-18.97l690.48-194.1
					c6.18-1.74,18.03-0.04,22.74,2.88c4.7,2.92,10.04,2.29,9.81,7.72l-28.86,491.95c-0.48,8.18-7.21,15.94-16.42,18.93
					l-720.67,234.1L1121.38,3042.71z"/>
				
					<linearGradient id="SVGID_24_" gradientUnits="userSpaceOnUse" x1="391.5976" y1="2441.5801" x2="-11.6068" y2="3054.2925" gradientTransform="matrix(-1 0 0 1 1755.9615 0)">
					<stop  offset="0" style="stop-color:#AA80F9"/>
					<stop  offset="0.9964" style="stop-color:#6165D7"/>
				</linearGradient>
				<path class="st25" d="M1136.21,3052.9l41.81-536.79c0.65-8.41,7.86-16.25,17.4-18.93l690.52-194.11
					c6.18-1.74,12.5-1.05,17.21,1.87c4.71,2.92,7.3,7.76,7.07,13.2l-20.79,487.07c-0.36,8.37-7.29,16.35-16.77,19.29L1136.21,3052.9
					z"/>
				
					<linearGradient id="SVGID_25_" gradientUnits="userSpaceOnUse" x1="-139.7359" y1="2855.603" x2="619.7468" y2="2855.603" gradientTransform="matrix(-1 0 0 1 1755.9615 0)">
					<stop  offset="0" style="stop-color:#AA80F9"/>
					<stop  offset="0.9964" style="stop-color:#6165D7"/>
				</linearGradient>
				<path class="st26" d="M1136.21,3052.9l736.44-228.4c9.48-2.94,16.41-10.92,16.77-19.29l6.27-146.89
					c-218.62,139.5-493.88,193.36-750.08,273.92L1136.21,3052.9z"/>
				<path class="st27" d="M1502.67,3069.24l-26.12,16.22c0,0-124.03-55-131.45-58.3c-1.18-0.52-6.28-6.87,0-9.49
					c33.23-13.83,160.05-46.61,160.05-46.61l66,31.35L1502.67,3069.24z"/>
				
					<linearGradient id="SVGID_26_" gradientUnits="userSpaceOnUse" x1="376.5948" y1="2958.0583" x2="169.065" y2="3082.5767" gradientTransform="matrix(-1 0 0 1 1755.9615 0)">
					<stop  offset="0" style="stop-color:#AA80F9"/>
					<stop  offset="0.9964" style="stop-color:#6165D7"/>
				</linearGradient>
				<path class="st28" d="M1502.67,3059.76l-26.12,16.23c0,0-124.03-55-131.45-58.3c-7.42-3.3,160.05-56.1,160.05-56.1l66,31.35
					L1502.67,3059.76z"/>
				<path class="st27" d="M1631.64,2648.77c0,0,62.7,335.5,69.3,354.2c6.09,17.26-171.49,73.26-213.95,83.88
					c-3.53,0.88-8.79-0.66-10.45-1.38c-12.1,1.1,44.28-405.08,44.28-405.08l4.12-0.82L1631.64,2648.77z"/>
				
					<linearGradient id="SVGID_27_" gradientUnits="userSpaceOnUse" x1="235.6758" y1="2703.7217" x2="85.4628" y2="3336.1985" gradientTransform="matrix(-1 0 0 1 1755.9615 0)">
					<stop  offset="0" style="stop-color:#AA80F9"/>
					<stop  offset="0.9964" style="stop-color:#6165D7"/>
				</linearGradient>
				<path class="st29" d="M1631.64,2648.77c0,0,73.7,336.6,80.3,355.3c6.6,18.7-205.7,79.2-224.4,82.5c-12.1,1.1,37.4-407,37.4-407
					L1631.64,2648.77z"/>
			</g>
		</g>
		<g>
			<g>
				
					<linearGradient id="SVGID_28_" gradientUnits="userSpaceOnUse" x1="1577.7712" y1="3000.46" x2="2140.2959" y2="3000.46" gradientTransform="matrix(-1 0 0 1 4514.0518 0)">
					<stop  offset="0" style="stop-color:#444B8C"/>
					<stop  offset="0.9964" style="stop-color:#26264F"/>
				</linearGradient>
				<polygon class="st30" points="2936.28,3027.02 2497.56,2907.68 2373.76,2933.27 2373.76,2953.39 2778.26,3093.24 				"/>
				
					<linearGradient id="SVGID_29_" gradientUnits="userSpaceOnUse" x1="1666.1564" y1="3277.9863" x2="1942.3029" y2="2412.7261" gradientTransform="matrix(-1 0 0 1 4514.0518 0)">
					<stop  offset="0" style="stop-color:#311944"/>
					<stop  offset="1" style="stop-color:#A03976"/>
				</linearGradient>
				<path class="st31" d="M2856.5,2973.57c37.45,16.37,88.15,38.88,156.49,36.82c43.52-1.31,67.29-2.02,82.85-16.88
					c51.83-49.47-38.35-211.65-220.81-533.99c-58.35-103.09-96.71-165.16-173.69-194.3c-87.39-33.09-171.44-3.62-202.31,7.21
					c-21.78,7.64-198.66,72.85-231.67,240.87c-26.97,137.3,52.98,288.05,199.45,359.01c8.69-12.27,17.39-24.55,26.08-36.82
					c-13.4-21.58-39.15-69.68-39.89-135.01c-0.79-70.02,27.24-152.89,50.63-151.89c37.29,1.6-6.64,213.32,121.2,326.79
					C2645.53,2893.74,2632.6,2875.7,2856.5,2973.57z"/>
				
					<linearGradient id="SVGID_30_" gradientUnits="userSpaceOnUse" x1="1655.8434" y1="3274.6948" x2="1931.9895" y2="2409.4353" gradientTransform="matrix(-1 0 0 1 4514.0518 0)">
					<stop  offset="0" style="stop-color:#311944"/>
					<stop  offset="1" style="stop-color:#A03976"/>
				</linearGradient>
				<path class="st32" d="M2333.33,2614.56c8.04-56.07,33.03-230.43,141.15-273.09c84.77-33.45,168.62,34.59,208.65-7.67
					c16.2-17.1,17.53-44.14,13.65-70.2c1.52,0.54,3.03,1.05,4.55,1.62c76.98,29.14,115.34,91.22,173.69,194.3
					c182.47,322.34,272.64,484.51,220.81,533.99c-15.56,14.85-39.33,15.57-82.85,16.88c-68.34,2.05-119.05-20.45-156.49-36.82
					c-223.9-97.87-210.98-79.83-231.67-98.19c-127.85-113.47-83.92-325.19-121.2-326.79c-23.39-1.01-51.42,81.87-50.63,151.89
					c0.74,65.33,26.49,113.44,39.89,135.01c-8.69,12.27-17.39,24.55-26.08,36.82c-54.3-26.31-99.44-63.6-133.4-107.09
					C2327.11,2720.76,2325.4,2669.85,2333.33,2614.56z"/>
				
					<linearGradient id="SVGID_31_" gradientUnits="userSpaceOnUse" x1="1367.6934" y1="3182.7329" x2="1643.839" y2="2317.4751" gradientTransform="matrix(-1 0 0 1 4514.0518 0)">
					<stop  offset="0" style="stop-color:#311944"/>
					<stop  offset="1" style="stop-color:#A03976"/>
				</linearGradient>
				<path class="st33" d="M2942.42,2953.39l-29.4-12.16c0,0,164.41-166.44-143.97-505.84c0,0-151.9-194.62-76.33-177.73
					c97.9,21.88,258,68.69,405.74,270.33C3246.19,2729.63,3161.46,2906.08,2942.42,2953.39z"/>
				
					<linearGradient id="SVGID_32_" gradientUnits="userSpaceOnUse" x1="1571.6046" y1="2965.2532" x2="1743.9225" y2="2965.2532" gradientTransform="matrix(-1 0 0 1 4514.0518 0)">
					<stop  offset="0" style="stop-color:#FFC444"/>
					<stop  offset="0.9964" style="stop-color:#F36F56"/>
				</linearGradient>
				<path class="st34" d="M2942.42,2953.39c0,0-16.28-20.54-54.93-23.2c-38.65-2.65-100.16,23.03-112.3,41.43
					c-12.14,18.4-0.56,29.65,15.06,28.84c15.62-0.81,37.1-22.29,66.25-26.89C2885.65,2968.97,2943.95,3012.34,2942.42,2953.39z"/>
				
					<linearGradient id="SVGID_33_" gradientUnits="userSpaceOnUse" x1="1821.3341" y1="2242.2986" x2="2005.4353" y2="2242.2986" gradientTransform="matrix(-1 0 0 1 4514.0518 0)">
					<stop  offset="0" style="stop-color:#FFC444"/>
					<stop  offset="0.9964" style="stop-color:#F36F56"/>
				</linearGradient>
				<path class="st35" d="M2537.49,2269.42c9.13-7.17,11.03-20.24,4.32-29.71l-19.76-27.88l20.61-38.1l72.54,54.3
					c19.26,14.41,41.73,23.93,65.49,27.71l12.04,1.92c0,0-69.87,37.91-105.7,50.12c-35.83,12.21-78.4-15.7-78.4-15.7
					L2537.49,2269.42z"/>
				<g>
					<g>
						
							<linearGradient id="SVGID_34_" gradientUnits="userSpaceOnUse" x1="1300.7952" y1="2347.6614" x2="1278.7946" y2="2379.0393" gradientTransform="matrix(-0.9799 -0.1993 -0.1993 0.9799 4180.6694 65.2842)">
							<stop  offset="0" style="stop-color:#AA80F9"/>
							<stop  offset="0.9964" style="stop-color:#6165D7"/>
						</linearGradient>
						<path class="st36" d="M2467.77,2094.26l-4.36-0.89c-17.95-3.65-36.49,13.03-41.42,37.25l-0.28,1.36
							c-4.93,24.22,5.63,46.82,23.58,50.47l4.36,0.89c9.05,1.84,20.45-16.61,25.45-41.2
							C2480.11,2117.54,2476.83,2096.1,2467.77,2094.26z"/>
						
							<linearGradient id="SVGID_35_" gradientUnits="userSpaceOnUse" x1="1260.7703" y1="2397.373" x2="1303.3875" y2="2309.7712" gradientTransform="matrix(-0.9799 -0.1993 -0.1993 0.9799 4180.6694 65.2842)">
							<stop  offset="0" style="stop-color:#AA80F9"/>
							<stop  offset="0.9964" style="stop-color:#6165D7"/>
						</linearGradient>
						<path class="st37" d="M2485.34,2144.21c-5.48,26.92-20.4,46.62-33.78,43.9c-13.37-2.72-20.13-26.82-14.66-53.75
							c5.48-26.92,21.11-46.47,34.48-43.75C2484.76,2093.33,2490.81,2117.29,2485.34,2144.21z"/>
						
							<linearGradient id="SVGID_36_" gradientUnits="userSpaceOnUse" x1="1291.8828" y1="2361.2356" x2="1299.1165" y2="2356.7256" gradientTransform="matrix(-0.9799 -0.1993 -0.1993 0.9799 4180.6694 65.2842)">
							<stop  offset="0" style="stop-color:#444B8C"/>
							<stop  offset="0.9964" style="stop-color:#3E4177"/>
						</linearGradient>
						<polygon class="st38" points="2450.86,2187.97 2455.97,2189.01 2475.8,2091.51 2470.69,2090.47 						"/>
						
							<linearGradient id="SVGID_37_" gradientUnits="userSpaceOnUse" x1="1298.4766" y1="2337.76" x2="1276.3556" y2="2363.9685" gradientTransform="matrix(-0.9799 -0.1993 -0.1993 0.9799 4180.6694 65.2842)">
							<stop  offset="0" style="stop-color:#AA80F9"/>
							<stop  offset="0.9964" style="stop-color:#6165D7"/>
						</linearGradient>
						<path class="st39" d="M2490.1,2145.18c-5.47,26.92-20.76,46.54-34.13,43.82s-19.78-26.75-14.3-53.67
							c5.48-26.92,20.76-46.54,34.13-43.82C2489.17,2094.23,2495.57,2118.26,2490.1,2145.18z"/>
						
							<linearGradient id="SVGID_38_" gradientUnits="userSpaceOnUse" x1="1253.4358" y1="2375.2036" x2="1280.3098" y2="2375.2036" gradientTransform="matrix(-0.9799 -0.1993 -0.1993 0.9799 4180.6694 65.2842)">
							<stop  offset="3.597120e-03" style="stop-color:#6165D7"/>
							<stop  offset="1" style="stop-color:#AA80F9"/>
						</linearGradient>
						<path class="st40" d="M2479.05,2142.94c-2.98,14.64-11.29,25.31-18.56,23.83s-10.75-14.54-7.78-29.18
							c2.98-14.64,11.29-25.31,18.56-23.83C2478.54,2115.23,2482.03,2128.3,2479.05,2142.94z"/>
					</g>
					<g>
						<linearGradient id="SVGID_39_" gradientUnits="userSpaceOnUse" x1="2531.0742" y1="2315.884" x2="2539.0034" y2="2176.3301">
							<stop  offset="0" style="stop-color:#311944"/>
							<stop  offset="1" style="stop-color:#6B3976"/>
						</linearGradient>
						<path class="st41" d="M2521.3,2202.14c6.43,1.81,20.18,5.13,38.35,4.85c16.71-0.26,47.16-1.02,66.95-22.34
							c3.35-3.61,11.4-12.51,13.76-26.45c0.68-4.01,3.16-18.62-4.97-29.83c-8.77-12.1-19.86-6.41-30.54-17.05
							c-15.2-15.14-3-36.89-15.62-45.45c-11.12-7.55-22.38,8.13-46.87,2.84c-13.32-2.88-13.27-8.22-31.25-12.78
							c-11.94-3.03-26.97-6.85-34.95,0.46c-7.7,7.05-0.62,16.94-8.13,31.04c-7.55,14.18-18.54,11.37-24.09,21.95
							c-10.27,19.6,13.35,56.12,38.67,74.71C2498.17,2195.51,2514.58,2200.26,2521.3,2202.14z"/>
						
							<linearGradient id="SVGID_40_" gradientUnits="userSpaceOnUse" x1="5711.6714" y1="383.0807" x2="5707.5615" y2="714.2249" gradientTransform="matrix(-0.9971 -0.0753 -0.0753 0.9971 8249.0176 2194.3374)">
							<stop  offset="0" style="stop-color:#FFC444"/>
							<stop  offset="0.9964" style="stop-color:#F36F56"/>
						</linearGradient>
						<path class="st42" d="M2559.93,2203.79c0,0-21.1,31.76-63.92,27.31c-38.26-3.98-44.83-83.67-20.65-99.51
							c8.07-5.29,24.36-6.95,37.68-2.96c7.87,2.36,10.57,5.49,23.51,9.12c11.94,3.35,15.29,2.27,18.92,5.22
							c4.54,3.69,7.95,12.42,0.74,35.38c7.23-6.55,15.99-8.81,22.25-5.83c1,0.48,3.66,2.25,5.18,4.82
							C2589.14,2186.68,2580.3,2197.92,2559.93,2203.79z"/>
					</g>
					<g>
						
							<linearGradient id="SVGID_41_" gradientUnits="userSpaceOnUse" x1="1182.0288" y1="2027.2273" x2="1223.3473" y2="1942.295" gradientTransform="matrix(-1.0146 -0.2063 -0.2187 1.0756 4172.1616 209.5301)">
							<stop  offset="0" style="stop-color:#AA80F9"/>
							<stop  offset="0.9964" style="stop-color:#6165D7"/>
						</linearGradient>
						<path class="st43" d="M2575.01,2131.57l5.56,1.07l3.36-17.16c5.79-29.59-9.8-57.94-35.49-64.55l-27.5-7.07
							c-14.38-3.7-29.36-0.61-42.2,8.68c-12.83,9.29-21.76,23.51-25.12,40.05l-1.84,9.06l6.52-3.69l0.86-4.25
							c3.01-14.8,10.99-27.53,22.48-35.84c11.49-8.31,24.9-11.07,37.76-7.77l27.5,7.07c22.78,5.85,36.6,30.99,31.46,57.22
							L2575.01,2131.57z"/>
						<g>
							
								<linearGradient id="SVGID_42_" gradientUnits="userSpaceOnUse" x1="1210.8834" y1="1921.6855" x2="1201.98" y2="1951.2375" gradientTransform="matrix(-1.0146 -0.2063 -0.2187 1.0756 4172.1616 209.5301)">
								<stop  offset="0" style="stop-color:#AA80F9"/>
								<stop  offset="0.9964" style="stop-color:#6165D7"/>
							</linearGradient>
							<path class="st44" d="M2475.33,2066.94c2.25,0.46,4.71-0.12,6.77-1.83c10.49-8.71,23.53-11.9,35.78-8.75l27.5,7.07
								c9.6,2.47,17.72,8.96,22.84,18.29c2.42,4.41,7.67,5.59,11.71,2.64c4.04-2.95,5.36-8.92,2.93-13.33
								c-7.38-13.43-19.07-22.78-32.9-26.34l-27.5-7.07c-17.14-4.41-35.38,0.06-50.05,12.24c-3.88,3.23-4.86,9.26-2.19,13.47
								C2471.49,2065.31,2473.33,2066.54,2475.33,2066.94z"/>
							
								<linearGradient id="SVGID_43_" gradientUnits="userSpaceOnUse" x1="1210.9255" y1="1921.5461" x2="1202.0001" y2="1951.171" gradientTransform="matrix(-1.0146 -0.2063 -0.2187 1.0756 4172.1616 209.5301)">
								<stop  offset="0" style="stop-color:#AA80F9"/>
								<stop  offset="0.9964" style="stop-color:#6165D7"/>
							</linearGradient>
							<path class="st45" d="M2490.96,2050.1c21.82-2.6,23.19-8.8,33.97-7.1c20.16,3.18,23.88,26.17,43.91,27.31
								c4.69,0.27,8.93-0.74,12.4-2.07c0.56,0.91,1.11,1.83,1.63,2.78c2.42,4.41,1.11,10.38-2.93,13.33
								c-4.04,2.95-9.29,1.77-11.71-2.64c-5.13-9.32-13.24-15.82-22.84-18.29l-27.5-7.07c-12.25-3.15-25.29,0.04-35.78,8.75
								c-2.06,1.71-4.51,2.29-6.77,1.83c-2-0.41-3.85-1.63-5.1-3.62c-2.42-3.82-1.85-9.13,1.17-12.49
								C2477,2051.08,2483.6,2050.98,2490.96,2050.1z"/>
						</g>
					</g>
					<g>
						<g>
							
								<linearGradient id="SVGID_44_" gradientUnits="userSpaceOnUse" x1="1135.0156" y1="2374.3809" x2="1184.9858" y2="2374.3809" gradientTransform="matrix(-0.9799 -0.1993 -0.1993 0.9799 4180.6694 65.2842)">
								<stop  offset="0" style="stop-color:#AA80F9"/>
								<stop  offset="0.9964" style="stop-color:#6165D7"/>
							</linearGradient>
							<path class="st46" d="M2546.29,2155.77c-5.54,27.22,0.94,51.51,14.46,54.26c13.52,2.75,28.97-17.09,34.51-44.31
								c5.54-27.22-0.94-51.52-14.46-54.27C2567.27,2108.72,2551.82,2128.55,2546.29,2155.77z"/>
							
								<linearGradient id="SVGID_45_" gradientUnits="userSpaceOnUse" x1="1139.84" y1="2383.2524" x2="1099.729" y2="2406.5896" gradientTransform="matrix(-0.9799 -0.1993 -0.1993 0.9799 4180.6694 65.2842)">
								<stop  offset="0" style="stop-color:#AA80F9"/>
								<stop  offset="0.9964" style="stop-color:#6165D7"/>
							</linearGradient>
							<path class="st47" d="M2551.1,2156.75c-5.54,27.22,0.94,51.52,14.46,54.27c13.52,2.75,28.97-17.09,34.51-44.31
								c5.54-27.22-0.94-51.52-14.46-54.27C2572.09,2109.69,2556.64,2129.53,2551.1,2156.75z"/>
							
								<linearGradient id="SVGID_46_" gradientUnits="userSpaceOnUse" x1="1111.3334" y1="2374.3806" x2="1166.2736" y2="2374.3806" gradientTransform="matrix(-0.9799 -0.1993 -0.1993 0.9799 4180.6694 65.2842)">
								<stop  offset="0" style="stop-color:#AA80F9"/>
								<stop  offset="0.9964" style="stop-color:#6165D7"/>
							</linearGradient>
							<path class="st48" d="M2590.35,2117.84l4.41,0.9c18.15,3.69,28.82,26.53,23.84,51.02l-0.28,1.37
								c-4.98,24.49-23.73,41.35-41.87,37.66l-4.41-0.9c-9.15-1.86-12.47-23.53-7.42-48.4
								C2569.68,2134.63,2581.2,2115.98,2590.35,2117.84z"/>
						</g>
						
							<linearGradient id="SVGID_47_" gradientUnits="userSpaceOnUse" x1="1111.3336" y1="2373.6748" x2="1144.3718" y2="2373.6748" gradientTransform="matrix(-0.9799 -0.1993 -0.1993 0.9799 4180.6694 65.2842)">
							<stop  offset="0" style="stop-color:#AA80F9"/>
							<stop  offset="0.9964" style="stop-color:#6165D7"/>
						</linearGradient>
						<path class="st49" d="M2586.23,2163.18c-3.65,17.95,0.64,33.98,9.58,35.79c8.94,1.82,19.15-11.26,22.8-29.21
							c3.65-17.95-0.64-33.98-9.58-35.79C2600.08,2132.15,2589.88,2145.22,2586.23,2163.18z"/>
					</g>
				</g>
			</g>
			<g>
				<g>
					
						<linearGradient id="SVGID_48_" gradientUnits="userSpaceOnUse" x1="-785.786" y1="2676.6543" x2="5.2444" y2="2676.6543" gradientTransform="matrix(1 0 0 1 2758.0901 0)">
						<stop  offset="0" style="stop-color:#AA80F9"/>
						<stop  offset="0.9964" style="stop-color:#6165D7"/>
					</linearGradient>
					<path class="st50" d="M2763.33,3049.43l-40.87-539.31c-0.65-8.53-7.95-16.49-17.64-19.21l-699.54-196.64
						c-6.26-1.76-18.27-0.04-23.04,2.92c-4.77,2.96-10.17,2.32-9.94,7.82l29.24,498.4c0.49,8.29,7.3,16.15,16.64,19.18
						l730.12,237.17L2763.33,3049.43z"/>
					
						<linearGradient id="SVGID_49_" gradientUnits="userSpaceOnUse" x1="-240.9278" y1="2440.4229" x2="-649.4193" y2="3061.1694" gradientTransform="matrix(1 0 0 1 2758.0901 0)">
						<stop  offset="0" style="stop-color:#AA80F9"/>
						<stop  offset="0.9964" style="stop-color:#6165D7"/>
					</linearGradient>
					<path class="st51" d="M2748.3,3059.76l-42.35-543.83c-0.66-8.52-7.96-16.46-17.63-19.18l-699.57-196.65
						c-6.26-1.76-12.66-1.07-17.43,1.89c-4.77,2.96-7.4,7.87-7.16,13.37l21.06,493.46c0.36,8.48,7.39,16.57,16.99,19.55
						L2748.3,3059.76z"/>
					
						<linearGradient id="SVGID_50_" gradientUnits="userSpaceOnUse" x1="-779.2285" y1="2859.8748" x2="-9.7868" y2="2859.8748" gradientTransform="matrix(1 0 0 1 2758.0901 0)">
						<stop  offset="0" style="stop-color:#AA80F9"/>
						<stop  offset="0.9964" style="stop-color:#6165D7"/>
					</linearGradient>
					<path class="st52" d="M2748.3,3059.76l-746.1-231.4c-9.6-2.98-16.63-11.06-16.99-19.55l-6.35-148.82
						c221.48,141.33,500.36,195.9,759.92,277.52L2748.3,3059.76z"/>
					<path class="st27" d="M2377.04,3076.32l26.47,16.44c0,0,125.65-55.72,133.18-59.06c1.2-0.53,6.36-6.96,0-9.61
						c-33.67-14.02-162.15-47.23-162.15-47.23l-66.87,31.76L2377.04,3076.32z"/>
					
						<linearGradient id="SVGID_51_" gradientUnits="userSpaceOnUse" x1="-256.1272" y1="2963.6738" x2="-466.3783" y2="3089.8247" gradientTransform="matrix(1 0 0 1 2758.0901 0)">
						<stop  offset="0" style="stop-color:#AA80F9"/>
						<stop  offset="0.9964" style="stop-color:#6165D7"/>
					</linearGradient>
					<path class="st53" d="M2377.04,3066.7l26.47,16.44c0,0,125.65-55.72,133.18-59.06c7.52-3.34-162.15-56.84-162.15-56.84
						l-66.87,31.76L2377.04,3066.7z"/>
					<path class="st27" d="M2246.38,2650.33c0,0-63.52,339.9-70.21,358.85c-6.17,17.49,173.74,74.22,216.76,84.98
						c3.58,0.9,8.91-0.67,10.59-1.39c12.26,1.12-44.86-410.39-44.86-410.39l-4.18-0.84L2246.38,2650.33z"/>
					
						<linearGradient id="SVGID_52_" gradientUnits="userSpaceOnUse" x1="-398.894" y1="2706.0017" x2="-551.0767" y2="3346.7722" gradientTransform="matrix(1 0 0 1 2758.0901 0)">
						<stop  offset="0" style="stop-color:#AA80F9"/>
						<stop  offset="0.9964" style="stop-color:#6165D7"/>
					</linearGradient>
					<path class="st54" d="M2246.38,2650.33c0,0-74.67,341.02-81.35,359.96c-6.69,18.94,208.4,80.24,227.35,83.58
						c12.26,1.11-37.89-412.34-37.89-412.34L2246.38,2650.33z"/>
				</g>
			</g>
		</g>
		<g>
			<g>
				<path class="st55" d="M1872.62,2143.58c-28.81,0.83-56.9-6.43-81.24-21.01c-74.15-44.45-183.71-117.85-282.28-213.94
					c-125.08-121.93-196.94-245.87-212.66-367.58l-0.25-1.91l-3.05-519.32c0-102.63,66.94-185.94,192.62-240.69
					c103.84-45.23,241.47-67.64,386.86-63.43c143.7,4.16,276.68,33.81,375.1,83.21c116.99,58.73,178.38,141.27,178.38,239.12
					l-2.78,496.21l-0.23,1.82c-14.37,116.55-80.49,237.01-197.35,358.84c-93.74,97.71-199.66,175.14-272.41,223.12
					C1929.27,2133.91,1901.36,2142.75,1872.62,2143.58z"/>
				<path class="st56" d="M1901.14,2143.58c-28.43,0.83-56.15-6.43-80.17-21.01c-73.17-44.45-181.29-117.85-278.55-213.94
					c-123.42-121.93-194.34-245.87-209.85-367.58l-0.24-1.91l-3.01-519.32c0-102.63,66.06-185.94,190.08-240.69
					c102.47-45.23,238.28-67.64,381.75-63.43c141.8,4.16,273.02,33.81,370.14,83.21c115.45,58.73,176.03,141.27,176.03,239.12
					l-2.75,496.21l-0.22,1.82c-14.18,116.55-79.42,237.01-194.75,358.84c-92.5,97.71-197.02,175.14-268.81,223.12
					C1957.04,2133.91,1929.5,2142.75,1901.14,2143.58z"/>
				<path class="st56" d="M1363.6,1020.2l3.03,516.69c34.01,263.63,343.84,477.07,478.77,558.17c38.66,23.23,88.08,21.85,126.46-3.4
					c132.12-86.94,424.98-305.81,456.27-559.28l2.78-494.84C2430.91,670.41,1363.6,636.84,1363.6,1020.2z"/>
				<path class="st27" d="M1908.8,2015.42c-2.47,0.06-6.22-0.35-10-2.65c-55.56-33.65-163.26-104.12-256.96-196.15
					c-101.21-99.41-159.58-196.07-172.96-286.85l-2.97-508.14c0.12-48.76,38.72-90.48,114.37-123.87
					c84.45-37.27,204.39-56.83,328.52-53.88c122.89,2.92,239.33,27.66,319.99,67.68c71.35,35.41,107.43,77.15,107.54,124.21
					l-2.77,490.54c-12.49,87.85-67.28,182.55-163.47,282.1c-90.44,93.6-196.09,167.8-251.31,203.88
					C1915.01,2014.77,1911.27,2015.36,1908.8,2015.42z"/>
				<path class="st56" d="M1896.12,1980.69c-56.11-34.56-155.89-101.29-242.94-186.96c-95.11-93.6-150.15-183.43-163.09-266.54
					l-2.95-505.19c0.09-34.86,32.13-66.84,95-94.67c80-35.43,194.63-54.09,313.98-51.41c118.2,2.65,229.61,26,306.18,63.88
					c59.49,29.43,89.58,61.54,89.67,95.54l-2.76,488.74c-12.14,80.64-64.06,168.83-154.84,262.61
					C2050.07,1873.77,1951.97,1943.79,1896.12,1980.69z"/>
			</g>
		</g>
		<g>
			<linearGradient id="SVGID_53_" gradientUnits="userSpaceOnUse" x1="1475.8584" y1="1492.2854" x2="2281.2002" y2="1492.2854">
				<stop  offset="0" style="stop-color:#FCB148"/>
				<stop  offset="0.0521" style="stop-color:#FDBA46"/>
				<stop  offset="0.1424" style="stop-color:#FFC244"/>
				<stop  offset="0.3183" style="stop-color:#FFC444"/>
				<stop  offset="0.4849" style="stop-color:#FDB946"/>
				<stop  offset="0.7754" style="stop-color:#F99C4D"/>
				<stop  offset="0.8658" style="stop-color:#F8924F"/>
				<stop  offset="1" style="stop-color:#F8924F"/>
			</linearGradient>
			<path class="st57" d="M2281.2,1207.27l-571.72,571.72c-4.98,4.98-10.72,9.1-17.06,12.26l-205.81,102.9
				c-2.89,1.45-6.33,0.91-8.6-1.36c-2.26-2.26-2.81-5.7-1.36-8.6l102.9-205.81c3.17-6.34,7.29-12.08,12.26-17.06l571.72-571.72
				L2281.2,1207.27z"/>
			<linearGradient id="SVGID_54_" gradientUnits="userSpaceOnUse" x1="1478.0197" y1="1522.2244" x2="2281.2002" y2="1522.2244">
				<stop  offset="0" style="stop-color:#FCB148"/>
				<stop  offset="0.0521" style="stop-color:#FDBA46"/>
				<stop  offset="0.1424" style="stop-color:#FFC244"/>
				<stop  offset="0.3183" style="stop-color:#FFC444"/>
				<stop  offset="0.4849" style="stop-color:#FDB946"/>
				<stop  offset="0.7754" style="stop-color:#F99C4D"/>
				<stop  offset="0.8658" style="stop-color:#F8924F"/>
				<stop  offset="1" style="stop-color:#F8924F"/>
			</linearGradient>
			<path class="st58" d="M2281.2,1207.27l-571.72,571.72c-4.98,4.98-9.59,10.23-15.93,13.39l-206.37,102.34
				c-2.89,1.45-4.64,2.6-9.16-1.92l744.35-744.35L2281.2,1207.27z"/>
			
				<linearGradient id="SVGID_55_" gradientUnits="userSpaceOnUse" x1="3203.7532" y1="2012.3619" x2="3376.5447" y2="2012.3619" gradientTransform="matrix(0.7071 0.7071 -0.7071 0.7071 1515.6962 -2797.8103)">
				<stop  offset="0" style="stop-color:#AB316D"/>
				<stop  offset="1" style="stop-color:#792D3D"/>
			</linearGradient>
			<circle class="st59" cx="2419.22" cy="951.6" r="86.39"/>
			
				<linearGradient id="SVGID_56_" gradientUnits="userSpaceOnUse" x1="3251.7507" y1="2181.9536" x2="3322.1475" y2="2181.9536" gradientTransform="matrix(0.7071 0.7071 -0.7071 0.7071 1515.6962 -2797.8103)">
				<stop  offset="0" style="stop-color:#AB316D"/>
				<stop  offset="1" style="stop-color:#792D3D"/>
			</linearGradient>
			<path class="st60" d="M2259.71,1156.36c-13.12,13.12-34.39,13.12-47.51,0l-2.26-2.26c-13.12-13.12-13.12-34.39,0-47.51
				l124.44-124.44c13.12-13.12,34.39-13.12,47.51,0l2.26,2.26c13.12,13.12,13.12,34.39,0,47.51L2259.71,1156.36z"/>
			
				<linearGradient id="SVGID_57_" gradientUnits="userSpaceOnUse" x1="3017.6118" y1="2282.4575" x2="3562.6863" y2="2282.4575" gradientTransform="matrix(0.7071 0.7071 -0.7071 0.7071 1515.6962 -2797.8103)">
				<stop  offset="0" style="stop-color:#AB316D"/>
				<stop  offset="1" style="stop-color:#792D3D"/>
			</linearGradient>
			<path class="st61" d="M2396.33,1304.81c21.56,34.67,22.13,49.95,1.56,33.54c-132.8-108.36-257.08-232.63-365.45-365.45
				c-16.4-20.56-1.13-19.98,33.54,1.56l0,0c34.66,21.54,71.12,44.9,81.14,52.43c71.51,58.34,138.43,125.27,196.78,196.78
				C2351.47,1233.74,2374.73,1270.08,2396.33,1304.81L2396.33,1304.81z"/>
		</g>
		<g>
			
				<linearGradient id="SVGID_58_" gradientUnits="userSpaceOnUse" x1="1689.7947" y1="-351.2034" x2="1775.0596" y2="-351.2034" gradientTransform="matrix(0.6414 -0.7672 0.7672 0.6414 1060.7925 2919.4802)">
				<stop  offset="0" style="stop-color:#AB316D"/>
				<stop  offset="1" style="stop-color:#792D3D"/>
			</linearGradient>
			<polygon class="st62" points="2282.98,1627.6 2228.32,1693 1522.07,1102.6 1576.74,1037.2 			"/>
			
				<linearGradient id="SVGID_59_" gradientUnits="userSpaceOnUse" x1="1793.4331" y1="-366.13" x2="1847.4169" y2="-809.3676" gradientTransform="matrix(0.6414 -0.7672 0.7672 0.6414 1060.7925 2919.4802)">
				<stop  offset="0" style="stop-color:#AB316D"/>
				<stop  offset="1" style="stop-color:#792D3D"/>
			</linearGradient>
			<path class="st63" d="M2313.59,1593.94c-5.62-4.7-13.98-3.95-18.67,1.67l-95.97,114.8c-4.7,5.62-3.95,13.98,1.67,18.67
				l36.33,30.37c5.62,4.7,13.98,3.95,18.67-1.67l95.97-114.8c4.7-5.62,3.95-13.98-1.67-18.67L2313.59,1593.94z"/>
			<g>
				<linearGradient id="SVGID_60_" gradientUnits="userSpaceOnUse" x1="1215.8646" y1="1257.6722" x2="1757.2716" y2="1257.6722">
					<stop  offset="0" style="stop-color:#FCB148"/>
					<stop  offset="0.0521" style="stop-color:#FDBA46"/>
					<stop  offset="0.1424" style="stop-color:#FFC244"/>
					<stop  offset="0.3183" style="stop-color:#FFC444"/>
					<stop  offset="0.4849" style="stop-color:#FDB946"/>
					<stop  offset="0.7754" style="stop-color:#F99C4D"/>
					<stop  offset="0.8658" style="stop-color:#F8924F"/>
					<stop  offset="1" style="stop-color:#F8924F"/>
				</linearGradient>
				<path class="st64" d="M1620.92,1200.04l-108.9-91.04l-29.8,36.35c-13.14,15.98-34.03,23.96-54.38,20.58
					c-43.32-7.18-117.66-27.05-162.42-79.2c-14.54-16.89-25.85-37.39-32.03-61.89c-0.63-2.52-2.86-4.29-5.44-4.21
					c-2.58,0.07-4.68,1.88-5.19,4.34c-12.49,65.17-26.39,238.61,137.36,375.5c161.48,134.99,330.57,92.28,393.54,68.87
					c2.42-0.86,3.94-3.38,3.55-5.93c-0.39-2.55-2.39-4.59-4.95-4.8c-25.46-1.88-47.67-9.78-66.98-21.41
					c-58.27-35.01-90.18-104.13-104.74-145.18c-6.94-19.43-3.56-40.39,9.84-56.15L1620.92,1200.04z"/>
				<linearGradient id="SVGID_61_" gradientUnits="userSpaceOnUse" x1="1265.4208" y1="1262.4164" x2="1685.231" y2="1262.4164">
					<stop  offset="0" style="stop-color:#FCB148"/>
					<stop  offset="0.0521" style="stop-color:#FDBA46"/>
					<stop  offset="0.1424" style="stop-color:#FFC244"/>
					<stop  offset="0.3183" style="stop-color:#FFC444"/>
					<stop  offset="0.4849" style="stop-color:#FDB946"/>
					<stop  offset="0.7754" style="stop-color:#F99C4D"/>
					<stop  offset="0.8658" style="stop-color:#F8924F"/>
					<stop  offset="1" style="stop-color:#F8924F"/>
				</linearGradient>
				<path class="st65" d="M1620.92,1200.04l-108.9-91.04l-29.8,36.35c-13.14,15.98-34.03,23.96-54.38,20.58
					c-43.32-7.18-117.66-27.05-162.42-79.2c8.51,77.62,42.58,174.09,141.98,257.18c98.35,82.22,199.58,98.44,277.83,93.35
					c-58.27-35.01-90.16-104.16-104.71-145.22c-6.94-19.43-3.55-40.41,9.85-56.17L1620.92,1200.04z"/>
				<linearGradient id="SVGID_62_" gradientUnits="userSpaceOnUse" x1="1447.3955" y1="963.0411" x2="1988.5979" y2="963.0411">
					<stop  offset="0" style="stop-color:#FCB148"/>
					<stop  offset="0.0521" style="stop-color:#FDBA46"/>
					<stop  offset="0.1424" style="stop-color:#FFC244"/>
					<stop  offset="0.3183" style="stop-color:#FFC444"/>
					<stop  offset="0.4849" style="stop-color:#FDB946"/>
					<stop  offset="0.7754" style="stop-color:#F99C4D"/>
					<stop  offset="0.8658" style="stop-color:#F8924F"/>
					<stop  offset="1" style="stop-color:#F8924F"/>
				</linearGradient>
				<path class="st66" d="M1690.16,1117.21l-108.9-91.04l32.32-37.95c13.4-15.76,18.46-38.83,11.52-58.26
					c-14.74-41.36-47.02-111.55-106.29-146.35c-19.2-11.32-41.15-19.08-66.36-20.82c-2.59-0.17-4.61-2.19-5-4.74
					c-0.39-2.55,1.08-5.01,3.41-5.94c61.93-23.85,230.18-68.3,393.93,68.58c161.48,134.99,149.43,308.95,137.55,375.08
					c-0.42,2.54-2.62,4.47-5.2,4.53c-2.58,0.07-4.93-1.54-5.6-4.02c-6.36-24.73-18.08-45.18-32.94-62.12
					c-44.79-51.14-118.46-70.3-161.45-77.35c-20.35-3.39-42.21,5.84-55.34,21.81L1690.16,1117.21z"/>
				<linearGradient id="SVGID_63_" gradientUnits="userSpaceOnUse" x1="1518.8116" y1="958.4549" x2="1938.554" y2="958.4549">
					<stop  offset="0" style="stop-color:#FCB148"/>
					<stop  offset="0.0521" style="stop-color:#FDBA46"/>
					<stop  offset="0.1424" style="stop-color:#FFC244"/>
					<stop  offset="0.3183" style="stop-color:#FFC444"/>
					<stop  offset="0.4849" style="stop-color:#FDB946"/>
					<stop  offset="0.7754" style="stop-color:#F99C4D"/>
					<stop  offset="0.8658" style="stop-color:#F8924F"/>
					<stop  offset="1" style="stop-color:#F8924F"/>
				</linearGradient>
				<path class="st67" d="M1690.16,1117.21l-108.9-91.04l32.32-37.95c13.4-15.76,18.46-38.83,11.52-58.26
					c-14.74-41.36-47.02-111.55-106.29-146.35c77.9-5.39,179.11,10.77,278.51,93.87c98.35,82.22,132.38,178.84,141.24,256.75
					c-44.79-51.14-118.43-70.33-161.42-77.38c-20.35-3.39-42.19,5.82-55.33,21.8L1690.16,1117.21z"/>
			</g>
			
				<linearGradient id="SVGID_64_" gradientUnits="userSpaceOnUse" x1="1687.6968" y1="-378.9682" x2="1741.6793" y2="-822.1951" gradientTransform="matrix(0.6414 -0.7672 0.7672 0.6414 1060.7925 2919.4802)">
				<stop  offset="0" style="stop-color:#AB316D"/>
				<stop  offset="1" style="stop-color:#792D3D"/>
			</linearGradient>
			<polygon class="st68" points="1703.23,1098.51 1604.83,1216.22 1495.85,1125.11 1594.25,1007.4 			"/>
		</g>
		<g>
			
				<linearGradient id="SVGID_65_" gradientUnits="userSpaceOnUse" x1="4735.061" y1="1718.7008" x2="5282.2153" y2="2295.511" gradientTransform="matrix(-1 0 0 1 5905.063 0)">
				<stop  offset="0" style="stop-color:#AA80F9"/>
				<stop  offset="0.9964" style="stop-color:#6165D7"/>
			</linearGradient>
			<polygon class="st69" points="812.44,1958.2 1246.29,1884 1246.29,1795.33 812.43,1849.92 			"/>
			<polygon class="st27" points="1233.14,1869.92 1233.14,1813.31 831.76,1867.14 831.76,1935.25 			"/>
			
				<linearGradient id="SVGID_66_" gradientUnits="userSpaceOnUse" x1="5040.1343" y1="1817.3864" x2="5335.249" y2="2128.4958" gradientTransform="matrix(-1 0 0 1 5905.063 0)">
				<stop  offset="0" style="stop-color:#AA80F9"/>
				<stop  offset="0.9964" style="stop-color:#6165D7"/>
			</linearGradient>
			<polygon class="st70" points="703.86,1976.72 912,1941.12 843.19,1799.07 703.85,1813.84 			"/>
			<polygon class="st27" points="883.35,1926.8 831.13,1820 724.95,1832.13 724.96,1952.58 			"/>
			<polygon class="st27" points="1199.02,1866.75 1223.38,1862.9 1223.38,1823.24 1199.02,1826.61 			"/>
			<polygon class="st27" points="1165.04,1872.14 1190.23,1868.15 1190.22,1827.83 1165.04,1831.31 			"/>
			<polygon class="st27" points="1129.89,1877.71 1155.94,1873.58 1155.94,1832.57 1129.89,1836.18 			"/>
			<polygon class="st27" points="1093.51,1883.47 1120.48,1879.2 1120.47,1837.48 1093.51,1841.22 			"/>
			
				<linearGradient id="SVGID_67_" gradientUnits="userSpaceOnUse" x1="4914.3643" y1="1789.8096" x2="4721.1777" y2="1975.8995" gradientTransform="matrix(-1 0 0 1 5905.063 0)">
				<stop  offset="0" style="stop-color:#AA80F9"/>
				<stop  offset="0.9964" style="stop-color:#6165D7"/>
			</linearGradient>
			<polygon class="st71" points="1055.83,1889.44 1083.76,1885.01 1083.76,1842.56 1055.83,1846.43 			"/>
			
				<linearGradient id="SVGID_68_" gradientUnits="userSpaceOnUse" x1="4934.4121" y1="1813.3433" x2="4736.4438" y2="2004.0398" gradientTransform="matrix(-1 0 0 1 5905.063 0)">
				<stop  offset="0" style="stop-color:#AA80F9"/>
				<stop  offset="0.9964" style="stop-color:#6165D7"/>
			</linearGradient>
			<polygon class="st72" points="1016.79,1895.62 1045.73,1891.04 1045.73,1847.83 1016.79,1851.84 			"/>
			
				<linearGradient id="SVGID_69_" gradientUnits="userSpaceOnUse" x1="4954.9316" y1="1837.9946" x2="4751.9556" y2="2033.5146" gradientTransform="matrix(-1 0 0 1 5905.063 0)">
				<stop  offset="0" style="stop-color:#AA80F9"/>
				<stop  offset="0.9964" style="stop-color:#6165D7"/>
			</linearGradient>
			<polygon class="st73" points="976.3,1902.04 1006.32,1897.28 1006.32,1853.29 976.3,1857.44 			"/>
			
				<linearGradient id="SVGID_70_" gradientUnits="userSpaceOnUse" x1="4975.9341" y1="1863.8414" x2="4767.7124" y2="2064.4143" gradientTransform="matrix(-1 0 0 1 5905.063 0)">
				<stop  offset="0" style="stop-color:#AA80F9"/>
				<stop  offset="0.9964" style="stop-color:#6165D7"/>
			</linearGradient>
			<polygon class="st74" points="934.29,1908.69 965.44,1903.76 965.44,1858.95 934.29,1863.26 			"/>
		</g>
		<g>
			
				<linearGradient id="SVGID_71_" gradientUnits="userSpaceOnUse" x1="3058.4253" y1="1718.7008" x2="3605.5793" y2="2295.5107" gradientTransform="matrix(1 0 0 1 -505.0532 0)">
				<stop  offset="0" style="stop-color:#FF9085"/>
				<stop  offset="1" style="stop-color:#FB6FBB"/>
			</linearGradient>
			<polygon class="st75" points="2910.94,1958.2 2477.08,1884 2477.09,1795.33 2910.94,1849.92 			"/>
			<polygon class="st27" points="2490.23,1869.92 2490.24,1813.31 2891.62,1867.14 2891.62,1935.25 			"/>
			
				<linearGradient id="SVGID_72_" gradientUnits="userSpaceOnUse" x1="3363.4985" y1="1817.3864" x2="3658.6128" y2="2128.4958" gradientTransform="matrix(1 0 0 1 -505.0532 0)">
				<stop  offset="0" style="stop-color:#FF9085"/>
				<stop  offset="1" style="stop-color:#FB6FBB"/>
			</linearGradient>
			<polygon class="st76" points="3019.52,1976.72 2811.38,1941.12 2880.18,1799.07 3019.52,1813.84 			"/>
			<polygon class="st27" points="2840.03,1926.8 2892.24,1820 2998.42,1832.13 2998.41,1952.58 			"/>
			<polygon class="st27" points="2524.35,1866.75 2499.99,1862.9 2499.99,1823.24 2524.35,1826.61 			"/>
			<polygon class="st27" points="2558.33,1872.14 2533.15,1868.15 2533.15,1827.83 2558.34,1831.31 			"/>
			<polygon class="st27" points="2593.48,1877.71 2567.43,1873.58 2567.43,1832.57 2593.49,1836.18 			"/>
			<polygon class="st27" points="2629.86,1883.47 2602.9,1879.2 2602.9,1837.48 2629.87,1841.22 			"/>
			<polygon class="st27" points="2667.54,1889.44 2639.61,1885.01 2639.61,1842.56 2667.54,1846.43 			"/>
			<polygon class="st27" points="2706.58,1895.62 2677.64,1891.04 2677.64,1847.83 2706.59,1851.84 			"/>
			
				<linearGradient id="SVGID_73_" gradientUnits="userSpaceOnUse" x1="3278.2957" y1="1837.9946" x2="3075.3193" y2="2033.5148" gradientTransform="matrix(1 0 0 1 -505.0532 0)">
				<stop  offset="0" style="stop-color:#FF9085"/>
				<stop  offset="1" style="stop-color:#FB6FBB"/>
			</linearGradient>
			<polygon class="st77" points="2747.07,1902.04 2717.05,1897.28 2717.05,1853.29 2747.07,1857.44 			"/>
			
				<linearGradient id="SVGID_74_" gradientUnits="userSpaceOnUse" x1="3299.2979" y1="1863.8414" x2="3091.0764" y2="2064.4143" gradientTransform="matrix(1 0 0 1 -505.0532 0)">
				<stop  offset="0" style="stop-color:#FF9085"/>
				<stop  offset="1" style="stop-color:#FB6FBB"/>
			</linearGradient>
			<polygon class="st78" points="2789.08,1908.69 2757.93,1903.76 2757.93,1858.95 2789.08,1863.26 			"/>
		</g>
		<linearGradient id="SVGID_75_" gradientUnits="userSpaceOnUse" x1="842.6449" y1="1096.0388" x2="149.4654" y2="1763.7554">
			<stop  offset="0" style="stop-color:#FCB148"/>
			<stop  offset="0.0521" style="stop-color:#FDBA46"/>
			<stop  offset="0.1424" style="stop-color:#FFC244"/>
			<stop  offset="0.3183" style="stop-color:#FFC444"/>
			<stop  offset="0.4849" style="stop-color:#FDB946"/>
			<stop  offset="0.7754" style="stop-color:#F99C4D"/>
			<stop  offset="0.8658" style="stop-color:#F8924F"/>
			<stop  offset="1" style="stop-color:#F8924F"/>
		</linearGradient>
		<circle class="st79" cx="702.52" cy="1231.01" r="84.11"/>
		<linearGradient id="SVGID_76_" gradientUnits="userSpaceOnUse" x1="2766.8589" y1="1445.3282" x2="2235.824" y2="1956.8563">
			<stop  offset="0" style="stop-color:#FCB148"/>
			<stop  offset="0.0521" style="stop-color:#FDBA46"/>
			<stop  offset="0.1424" style="stop-color:#FFC244"/>
			<stop  offset="0.3183" style="stop-color:#FFC444"/>
			<stop  offset="0.4849" style="stop-color:#FDB946"/>
			<stop  offset="0.7754" style="stop-color:#F99C4D"/>
			<stop  offset="0.8658" style="stop-color:#F8924F"/>
			<stop  offset="1" style="stop-color:#F8924F"/>
		</linearGradient>
		<circle class="st80" cx="2659.51" cy="1548.73" r="64.44"/>
		<g>
			<linearGradient id="SVGID_77_" gradientUnits="userSpaceOnUse" x1="1134.7031" y1="898.5007" x2="565.1053" y2="1447.1752">
				<stop  offset="0" style="stop-color:#FF9085"/>
				<stop  offset="1" style="stop-color:#FB6FBB"/>
			</linearGradient>
			<rect x="995.73" y="934.52" class="st81" width="47.66" height="149.78"/>
			
				<linearGradient id="SVGID_78_" gradientUnits="userSpaceOnUse" x1="3974.3923" y1="1322.0593" x2="3394.6924" y2="1880.4648" gradientTransform="matrix(0 1 -1 0 2454.5 -2849.5)">
				<stop  offset="0" style="stop-color:#FF9085"/>
				<stop  offset="1" style="stop-color:#FB6FBB"/>
			</linearGradient>
			<rect x="944.67" y="982.18" class="st82" width="149.78" height="51.06"/>
		</g>
		<g>
			<linearGradient id="SVGID_79_" gradientUnits="userSpaceOnUse" x1="3038.7522" y1="1140.2256" x2="2311.9727" y2="1840.3081">
				<stop  offset="0" style="stop-color:#FF9085"/>
				<stop  offset="1" style="stop-color:#FB6FBB"/>
			</linearGradient>
			<rect x="2861.2" y="1186.43" class="st83" width="61.27" height="190.63"/>
			
				<linearGradient id="SVGID_80_" gradientUnits="userSpaceOnUse" x1="4278.4966" y1="-580.8226" x2="3541.6152" y2="128.9906" gradientTransform="matrix(0 1 -1 0 2454.5 -2849.5)">
				<stop  offset="0" style="stop-color:#FF9085"/>
				<stop  offset="1" style="stop-color:#FB6FBB"/>
			</linearGradient>
			<rect x="2796.52" y="1247.7" class="st84" width="190.63" height="64.68"/>
		</g>
		<linearGradient id="SVGID_81_" gradientUnits="userSpaceOnUse" x1="990.0292" y1="1400.1179" x2="520.678" y2="1852.2281">
			<stop  offset="0" style="stop-color:#AA80F9"/>
			<stop  offset="0.9964" style="stop-color:#6165D7"/>
		</linearGradient>
		<polygon class="st85" points="836.99,1513.22 896.26,1410.57 955.53,1513.22 		"/>
		<linearGradient id="SVGID_82_" gradientUnits="userSpaceOnUse" x1="2768.0007" y1="981.4089" x2="2298.6497" y2="1433.5192">
			<stop  offset="0" style="stop-color:#AA80F9"/>
			<stop  offset="0.9964" style="stop-color:#6165D7"/>
		</linearGradient>
		<polygon class="st86" points="2614.96,1094.52 2674.23,991.86 2733.5,1094.52 		"/>
	</g>
</g>
</svg>
